<?xml version="1.0" encoding="utf-8" standalone="no"?>
<!DOCTYPE svg PUBLIC "-//W3C//DTD SVG 1.1//EN"
  "http://www.w3.org/Graphics/SVG/1.1/DTD/svg11.dtd">
<svg xmlns:xlink="http://www.w3.org/1999/xlink" width="720pt" height="360pt" viewBox="0 0 720 360" xmlns="http://www.w3.org/2000/svg" version="1.1">
 <metadata>
  <rdf:RDF xmlns:dc="http://purl.org/dc/elements/1.1/" xmlns:cc="http://creativecommons.org/ns#" xmlns:rdf="http://www.w3.org/1999/02/22-rdf-syntax-ns#">
   <cc:Work>
    <dc:type rdf:resource="http://purl.org/dc/dcmitype/StillImage"/>
    <dc:date>2026-05-14T07:17:14.124645</dc:date>
    <dc:format>image/svg+xml</dc:format>
    <dc:creator>
     <cc:Agent>
      <dc:title>Matplotlib v3.10.9, https://matplotlib.org/</dc:title>
     </cc:Agent>
    </dc:creator>
   </cc:Work>
  </rdf:RDF>
 </metadata>
 <defs>
  <style type="text/css">*{stroke-linejoin: round; stroke-linecap: butt}</style>
 </defs>
 <g id="figure_1">
  <g id="patch_1">
   <path d="M 0 360 
L 720 360 
L 720 0 
L 0 0 
z
" style="fill: #ffffff"/>
  </g>
  <g id="axes_1">
   <g id="patch_2">
    <path d="M 90 320.4 
L 648 320.4 
L 648 43.2 
L 90 43.2 
z
" style="fill: #ffffff"/>
   </g>
   <g id="matplotlib.axis_1">
    <g id="xtick_1">
     <g id="line2d_1">
      <path d="M 131.951707 320.4 
L 131.951707 43.2 
" clip-path="url(#p038791185d)" style="fill: none; stroke-dasharray: 2.96,1.28; stroke-dashoffset: 0; stroke: #b0b0b0; stroke-opacity: 0.6; stroke-width: 0.8"/>
     </g>
     <g id="line2d_2">
      <defs>
       <path id="mf20fabd60a" d="M 0 0 
L 0 3.5 
" style="stroke: #000000; stroke-width: 0.8"/>
      </defs>
      <g>
       <use xlink:href="#mf20fabd60a" x="131.951707" y="320.4" style="stroke: #000000; stroke-width: 0.8"/>
      </g>
     </g>
     <g id="text_1">
      <!-- 19 20:40 -->
      <g transform="translate(109.590769 334.998438) scale(0.1 -0.1)">
       <defs>
        <path id="DejaVuSans-31" d="M 794 531 
L 1825 531 
L 1825 4091 
L 703 3866 
L 703 4441 
L 1819 4666 
L 2450 4666 
L 2450 531 
L 3481 531 
L 3481 0 
L 794 0 
L 794 531 
z
" transform="scale(0.015625)"/>
        <path id="DejaVuSans-39" d="M 703 97 
L 703 672 
Q 941 559 1184 500 
Q 1428 441 1663 441 
Q 2288 441 2617 861 
Q 2947 1281 2994 2138 
Q 2813 1869 2534 1725 
Q 2256 1581 1919 1581 
Q 1219 1581 811 2004 
Q 403 2428 403 3163 
Q 403 3881 828 4315 
Q 1253 4750 1959 4750 
Q 2769 4750 3195 4129 
Q 3622 3509 3622 2328 
Q 3622 1225 3098 567 
Q 2575 -91 1691 -91 
Q 1453 -91 1209 -44 
Q 966 3 703 97 
z
M 1959 2075 
Q 2384 2075 2632 2365 
Q 2881 2656 2881 3163 
Q 2881 3666 2632 3958 
Q 2384 4250 1959 4250 
Q 1534 4250 1286 3958 
Q 1038 3666 1038 3163 
Q 1038 2656 1286 2365 
Q 1534 2075 1959 2075 
z
" transform="scale(0.015625)"/>
        <path id="DejaVuSans-20" transform="scale(0.015625)"/>
        <path id="DejaVuSans-32" d="M 1228 531 
L 3431 531 
L 3431 0 
L 469 0 
L 469 531 
Q 828 903 1448 1529 
Q 2069 2156 2228 2338 
Q 2531 2678 2651 2914 
Q 2772 3150 2772 3378 
Q 2772 3750 2511 3984 
Q 2250 4219 1831 4219 
Q 1534 4219 1204 4116 
Q 875 4013 500 3803 
L 500 4441 
Q 881 4594 1212 4672 
Q 1544 4750 1819 4750 
Q 2544 4750 2975 4387 
Q 3406 4025 3406 3419 
Q 3406 3131 3298 2873 
Q 3191 2616 2906 2266 
Q 2828 2175 2409 1742 
Q 1991 1309 1228 531 
z
" transform="scale(0.015625)"/>
        <path id="DejaVuSans-30" d="M 2034 4250 
Q 1547 4250 1301 3770 
Q 1056 3291 1056 2328 
Q 1056 1369 1301 889 
Q 1547 409 2034 409 
Q 2525 409 2770 889 
Q 3016 1369 3016 2328 
Q 3016 3291 2770 3770 
Q 2525 4250 2034 4250 
z
M 2034 4750 
Q 2819 4750 3233 4129 
Q 3647 3509 3647 2328 
Q 3647 1150 3233 529 
Q 2819 -91 2034 -91 
Q 1250 -91 836 529 
Q 422 1150 422 2328 
Q 422 3509 836 4129 
Q 1250 4750 2034 4750 
z
" transform="scale(0.015625)"/>
        <path id="DejaVuSans-3a" d="M 750 794 
L 1409 794 
L 1409 0 
L 750 0 
L 750 794 
z
M 750 3309 
L 1409 3309 
L 1409 2516 
L 750 2516 
L 750 3309 
z
" transform="scale(0.015625)"/>
        <path id="DejaVuSans-34" d="M 2419 4116 
L 825 1625 
L 2419 1625 
L 2419 4116 
z
M 2253 4666 
L 3047 4666 
L 3047 1625 
L 3713 1625 
L 3713 1100 
L 3047 1100 
L 3047 0 
L 2419 0 
L 2419 1100 
L 313 1100 
L 313 1709 
L 2253 4666 
z
" transform="scale(0.015625)"/>
       </defs>
       <use xlink:href="#DejaVuSans-31"/>
       <use xlink:href="#DejaVuSans-39" transform="translate(63.623047 0)"/>
       <use xlink:href="#DejaVuSans-20" transform="translate(127.246094 0)"/>
       <use xlink:href="#DejaVuSans-32" transform="translate(159.033203 0)"/>
       <use xlink:href="#DejaVuSans-30" transform="translate(222.65625 0)"/>
       <use xlink:href="#DejaVuSans-3a" transform="translate(286.279297 0)"/>
       <use xlink:href="#DejaVuSans-34" transform="translate(319.970703 0)"/>
       <use xlink:href="#DejaVuSans-30" transform="translate(383.59375 0)"/>
      </g>
     </g>
    </g>
    <g id="xtick_2">
     <g id="line2d_3">
      <path d="M 198.315544 320.4 
L 198.315544 43.2 
" clip-path="url(#p038791185d)" style="fill: none; stroke-dasharray: 2.96,1.28; stroke-dashoffset: 0; stroke: #b0b0b0; stroke-opacity: 0.6; stroke-width: 0.8"/>
     </g>
     <g id="line2d_4">
      <g>
       <use xlink:href="#mf20fabd60a" x="198.315544" y="320.4" style="stroke: #000000; stroke-width: 0.8"/>
      </g>
     </g>
     <g id="text_2">
      <!-- 19 20:50 -->
      <g transform="translate(175.954607 334.998438) scale(0.1 -0.1)">
       <defs>
        <path id="DejaVuSans-35" d="M 691 4666 
L 3169 4666 
L 3169 4134 
L 1269 4134 
L 1269 2991 
Q 1406 3038 1543 3061 
Q 1681 3084 1819 3084 
Q 2600 3084 3056 2656 
Q 3513 2228 3513 1497 
Q 3513 744 3044 326 
Q 2575 -91 1722 -91 
Q 1428 -91 1123 -41 
Q 819 9 494 109 
L 494 744 
Q 775 591 1075 516 
Q 1375 441 1709 441 
Q 2250 441 2565 725 
Q 2881 1009 2881 1497 
Q 2881 1984 2565 2268 
Q 2250 2553 1709 2553 
Q 1456 2553 1204 2497 
Q 953 2441 691 2322 
L 691 4666 
z
" transform="scale(0.015625)"/>
       </defs>
       <use xlink:href="#DejaVuSans-31"/>
       <use xlink:href="#DejaVuSans-39" transform="translate(63.623047 0)"/>
       <use xlink:href="#DejaVuSans-20" transform="translate(127.246094 0)"/>
       <use xlink:href="#DejaVuSans-32" transform="translate(159.033203 0)"/>
       <use xlink:href="#DejaVuSans-30" transform="translate(222.65625 0)"/>
       <use xlink:href="#DejaVuSans-3a" transform="translate(286.279297 0)"/>
       <use xlink:href="#DejaVuSans-35" transform="translate(319.970703 0)"/>
       <use xlink:href="#DejaVuSans-30" transform="translate(383.59375 0)"/>
      </g>
     </g>
    </g>
    <g id="xtick_3">
     <g id="line2d_5">
      <path d="M 264.679382 320.4 
L 264.679382 43.2 
" clip-path="url(#p038791185d)" style="fill: none; stroke-dasharray: 2.96,1.28; stroke-dashoffset: 0; stroke: #b0b0b0; stroke-opacity: 0.6; stroke-width: 0.8"/>
     </g>
     <g id="line2d_6">
      <g>
       <use xlink:href="#mf20fabd60a" x="264.679382" y="320.4" style="stroke: #000000; stroke-width: 0.8"/>
      </g>
     </g>
     <g id="text_3">
      <!-- 19 21:00 -->
      <g transform="translate(242.318444 334.998438) scale(0.1 -0.1)">
       <use xlink:href="#DejaVuSans-31"/>
       <use xlink:href="#DejaVuSans-39" transform="translate(63.623047 0)"/>
       <use xlink:href="#DejaVuSans-20" transform="translate(127.246094 0)"/>
       <use xlink:href="#DejaVuSans-32" transform="translate(159.033203 0)"/>
       <use xlink:href="#DejaVuSans-31" transform="translate(222.65625 0)"/>
       <use xlink:href="#DejaVuSans-3a" transform="translate(286.279297 0)"/>
       <use xlink:href="#DejaVuSans-30" transform="translate(319.970703 0)"/>
       <use xlink:href="#DejaVuSans-30" transform="translate(383.59375 0)"/>
      </g>
     </g>
    </g>
    <g id="xtick_4">
     <g id="line2d_7">
      <path d="M 331.043219 320.4 
L 331.043219 43.2 
" clip-path="url(#p038791185d)" style="fill: none; stroke-dasharray: 2.96,1.28; stroke-dashoffset: 0; stroke: #b0b0b0; stroke-opacity: 0.6; stroke-width: 0.8"/>
     </g>
     <g id="line2d_8">
      <g>
       <use xlink:href="#mf20fabd60a" x="331.043219" y="320.4" style="stroke: #000000; stroke-width: 0.8"/>
      </g>
     </g>
     <g id="text_4">
      <!-- 19 21:10 -->
      <g transform="translate(308.682282 334.998438) scale(0.1 -0.1)">
       <use xlink:href="#DejaVuSans-31"/>
       <use xlink:href="#DejaVuSans-39" transform="translate(63.623047 0)"/>
       <use xlink:href="#DejaVuSans-20" transform="translate(127.246094 0)"/>
       <use xlink:href="#DejaVuSans-32" transform="translate(159.033203 0)"/>
       <use xlink:href="#DejaVuSans-31" transform="translate(222.65625 0)"/>
       <use xlink:href="#DejaVuSans-3a" transform="translate(286.279297 0)"/>
       <use xlink:href="#DejaVuSans-31" transform="translate(319.970703 0)"/>
       <use xlink:href="#DejaVuSans-30" transform="translate(383.59375 0)"/>
      </g>
     </g>
    </g>
    <g id="xtick_5">
     <g id="line2d_9">
      <path d="M 397.407057 320.4 
L 397.407057 43.2 
" clip-path="url(#p038791185d)" style="fill: none; stroke-dasharray: 2.96,1.28; stroke-dashoffset: 0; stroke: #b0b0b0; stroke-opacity: 0.6; stroke-width: 0.8"/>
     </g>
     <g id="line2d_10">
      <g>
       <use xlink:href="#mf20fabd60a" x="397.407057" y="320.4" style="stroke: #000000; stroke-width: 0.8"/>
      </g>
     </g>
     <g id="text_5">
      <!-- 19 21:20 -->
      <g transform="translate(375.046119 334.998438) scale(0.1 -0.1)">
       <use xlink:href="#DejaVuSans-31"/>
       <use xlink:href="#DejaVuSans-39" transform="translate(63.623047 0)"/>
       <use xlink:href="#DejaVuSans-20" transform="translate(127.246094 0)"/>
       <use xlink:href="#DejaVuSans-32" transform="translate(159.033203 0)"/>
       <use xlink:href="#DejaVuSans-31" transform="translate(222.65625 0)"/>
       <use xlink:href="#DejaVuSans-3a" transform="translate(286.279297 0)"/>
       <use xlink:href="#DejaVuSans-32" transform="translate(319.970703 0)"/>
       <use xlink:href="#DejaVuSans-30" transform="translate(383.59375 0)"/>
      </g>
     </g>
    </g>
    <g id="xtick_6">
     <g id="line2d_11">
      <path d="M 463.770894 320.4 
L 463.770894 43.2 
" clip-path="url(#p038791185d)" style="fill: none; stroke-dasharray: 2.96,1.28; stroke-dashoffset: 0; stroke: #b0b0b0; stroke-opacity: 0.6; stroke-width: 0.8"/>
     </g>
     <g id="line2d_12">
      <g>
       <use xlink:href="#mf20fabd60a" x="463.770894" y="320.4" style="stroke: #000000; stroke-width: 0.8"/>
      </g>
     </g>
     <g id="text_6">
      <!-- 19 21:30 -->
      <g transform="translate(441.409957 334.998438) scale(0.1 -0.1)">
       <defs>
        <path id="DejaVuSans-33" d="M 2597 2516 
Q 3050 2419 3304 2112 
Q 3559 1806 3559 1356 
Q 3559 666 3084 287 
Q 2609 -91 1734 -91 
Q 1441 -91 1130 -33 
Q 819 25 488 141 
L 488 750 
Q 750 597 1062 519 
Q 1375 441 1716 441 
Q 2309 441 2620 675 
Q 2931 909 2931 1356 
Q 2931 1769 2642 2001 
Q 2353 2234 1838 2234 
L 1294 2234 
L 1294 2753 
L 1863 2753 
Q 2328 2753 2575 2939 
Q 2822 3125 2822 3475 
Q 2822 3834 2567 4026 
Q 2313 4219 1838 4219 
Q 1578 4219 1281 4162 
Q 984 4106 628 3988 
L 628 4550 
Q 988 4650 1302 4700 
Q 1616 4750 1894 4750 
Q 2613 4750 3031 4423 
Q 3450 4097 3450 3541 
Q 3450 3153 3228 2886 
Q 3006 2619 2597 2516 
z
" transform="scale(0.015625)"/>
       </defs>
       <use xlink:href="#DejaVuSans-31"/>
       <use xlink:href="#DejaVuSans-39" transform="translate(63.623047 0)"/>
       <use xlink:href="#DejaVuSans-20" transform="translate(127.246094 0)"/>
       <use xlink:href="#DejaVuSans-32" transform="translate(159.033203 0)"/>
       <use xlink:href="#DejaVuSans-31" transform="translate(222.65625 0)"/>
       <use xlink:href="#DejaVuSans-3a" transform="translate(286.279297 0)"/>
       <use xlink:href="#DejaVuSans-33" transform="translate(319.970703 0)"/>
       <use xlink:href="#DejaVuSans-30" transform="translate(383.59375 0)"/>
      </g>
     </g>
    </g>
    <g id="xtick_7">
     <g id="line2d_13">
      <path d="M 530.134732 320.4 
L 530.134732 43.2 
" clip-path="url(#p038791185d)" style="fill: none; stroke-dasharray: 2.96,1.28; stroke-dashoffset: 0; stroke: #b0b0b0; stroke-opacity: 0.6; stroke-width: 0.8"/>
     </g>
     <g id="line2d_14">
      <g>
       <use xlink:href="#mf20fabd60a" x="530.134732" y="320.4" style="stroke: #000000; stroke-width: 0.8"/>
      </g>
     </g>
     <g id="text_7">
      <!-- 19 21:40 -->
      <g transform="translate(507.773794 334.998438) scale(0.1 -0.1)">
       <use xlink:href="#DejaVuSans-31"/>
       <use xlink:href="#DejaVuSans-39" transform="translate(63.623047 0)"/>
       <use xlink:href="#DejaVuSans-20" transform="translate(127.246094 0)"/>
       <use xlink:href="#DejaVuSans-32" transform="translate(159.033203 0)"/>
       <use xlink:href="#DejaVuSans-31" transform="translate(222.65625 0)"/>
       <use xlink:href="#DejaVuSans-3a" transform="translate(286.279297 0)"/>
       <use xlink:href="#DejaVuSans-34" transform="translate(319.970703 0)"/>
       <use xlink:href="#DejaVuSans-30" transform="translate(383.59375 0)"/>
      </g>
     </g>
    </g>
    <g id="xtick_8">
     <g id="line2d_15">
      <path d="M 596.49857 320.4 
L 596.49857 43.2 
" clip-path="url(#p038791185d)" style="fill: none; stroke-dasharray: 2.96,1.28; stroke-dashoffset: 0; stroke: #b0b0b0; stroke-opacity: 0.6; stroke-width: 0.8"/>
     </g>
     <g id="line2d_16">
      <g>
       <use xlink:href="#mf20fabd60a" x="596.49857" y="320.4" style="stroke: #000000; stroke-width: 0.8"/>
      </g>
     </g>
     <g id="text_8">
      <!-- 19 21:50 -->
      <g transform="translate(574.137632 334.998438) scale(0.1 -0.1)">
       <use xlink:href="#DejaVuSans-31"/>
       <use xlink:href="#DejaVuSans-39" transform="translate(63.623047 0)"/>
       <use xlink:href="#DejaVuSans-20" transform="translate(127.246094 0)"/>
       <use xlink:href="#DejaVuSans-32" transform="translate(159.033203 0)"/>
       <use xlink:href="#DejaVuSans-31" transform="translate(222.65625 0)"/>
       <use xlink:href="#DejaVuSans-3a" transform="translate(286.279297 0)"/>
       <use xlink:href="#DejaVuSans-35" transform="translate(319.970703 0)"/>
       <use xlink:href="#DejaVuSans-30" transform="translate(383.59375 0)"/>
      </g>
     </g>
    </g>
    <g id="text_9">
     <!-- Time Step -->
     <g transform="translate(343.792188 348.676562) scale(0.1 -0.1)">
      <defs>
       <path id="DejaVuSans-54" d="M -19 4666 
L 3928 4666 
L 3928 4134 
L 2272 4134 
L 2272 0 
L 1638 0 
L 1638 4134 
L -19 4134 
L -19 4666 
z
" transform="scale(0.015625)"/>
       <path id="DejaVuSans-69" d="M 603 3500 
L 1178 3500 
L 1178 0 
L 603 0 
L 603 3500 
z
M 603 4863 
L 1178 4863 
L 1178 4134 
L 603 4134 
L 603 4863 
z
" transform="scale(0.015625)"/>
       <path id="DejaVuSans-6d" d="M 3328 2828 
Q 3544 3216 3844 3400 
Q 4144 3584 4550 3584 
Q 5097 3584 5394 3201 
Q 5691 2819 5691 2113 
L 5691 0 
L 5113 0 
L 5113 2094 
Q 5113 2597 4934 2840 
Q 4756 3084 4391 3084 
Q 3944 3084 3684 2787 
Q 3425 2491 3425 1978 
L 3425 0 
L 2847 0 
L 2847 2094 
Q 2847 2600 2669 2842 
Q 2491 3084 2119 3084 
Q 1678 3084 1418 2786 
Q 1159 2488 1159 1978 
L 1159 0 
L 581 0 
L 581 3500 
L 1159 3500 
L 1159 2956 
Q 1356 3278 1631 3431 
Q 1906 3584 2284 3584 
Q 2666 3584 2933 3390 
Q 3200 3197 3328 2828 
z
" transform="scale(0.015625)"/>
       <path id="DejaVuSans-65" d="M 3597 1894 
L 3597 1613 
L 953 1613 
Q 991 1019 1311 708 
Q 1631 397 2203 397 
Q 2534 397 2845 478 
Q 3156 559 3463 722 
L 3463 178 
Q 3153 47 2828 -22 
Q 2503 -91 2169 -91 
Q 1331 -91 842 396 
Q 353 884 353 1716 
Q 353 2575 817 3079 
Q 1281 3584 2069 3584 
Q 2775 3584 3186 3129 
Q 3597 2675 3597 1894 
z
M 3022 2063 
Q 3016 2534 2758 2815 
Q 2500 3097 2075 3097 
Q 1594 3097 1305 2825 
Q 1016 2553 972 2059 
L 3022 2063 
z
" transform="scale(0.015625)"/>
       <path id="DejaVuSans-53" d="M 3425 4513 
L 3425 3897 
Q 3066 4069 2747 4153 
Q 2428 4238 2131 4238 
Q 1616 4238 1336 4038 
Q 1056 3838 1056 3469 
Q 1056 3159 1242 3001 
Q 1428 2844 1947 2747 
L 2328 2669 
Q 3034 2534 3370 2195 
Q 3706 1856 3706 1288 
Q 3706 609 3251 259 
Q 2797 -91 1919 -91 
Q 1588 -91 1214 -16 
Q 841 59 441 206 
L 441 856 
Q 825 641 1194 531 
Q 1563 422 1919 422 
Q 2459 422 2753 634 
Q 3047 847 3047 1241 
Q 3047 1584 2836 1778 
Q 2625 1972 2144 2069 
L 1759 2144 
Q 1053 2284 737 2584 
Q 422 2884 422 3419 
Q 422 4038 858 4394 
Q 1294 4750 2059 4750 
Q 2388 4750 2728 4690 
Q 3069 4631 3425 4513 
z
" transform="scale(0.015625)"/>
       <path id="DejaVuSans-74" d="M 1172 4494 
L 1172 3500 
L 2356 3500 
L 2356 3053 
L 1172 3053 
L 1172 1153 
Q 1172 725 1289 603 
Q 1406 481 1766 481 
L 2356 481 
L 2356 0 
L 1766 0 
Q 1100 0 847 248 
Q 594 497 594 1153 
L 594 3053 
L 172 3053 
L 172 3500 
L 594 3500 
L 594 4494 
L 1172 4494 
z
" transform="scale(0.015625)"/>
       <path id="DejaVuSans-70" d="M 1159 525 
L 1159 -1331 
L 581 -1331 
L 581 3500 
L 1159 3500 
L 1159 2969 
Q 1341 3281 1617 3432 
Q 1894 3584 2278 3584 
Q 2916 3584 3314 3078 
Q 3713 2572 3713 1747 
Q 3713 922 3314 415 
Q 2916 -91 2278 -91 
Q 1894 -91 1617 61 
Q 1341 213 1159 525 
z
M 3116 1747 
Q 3116 2381 2855 2742 
Q 2594 3103 2138 3103 
Q 1681 3103 1420 2742 
Q 1159 2381 1159 1747 
Q 1159 1113 1420 752 
Q 1681 391 2138 391 
Q 2594 391 2855 752 
Q 3116 1113 3116 1747 
z
" transform="scale(0.015625)"/>
      </defs>
      <use xlink:href="#DejaVuSans-54"/>
      <use xlink:href="#DejaVuSans-69" transform="translate(57.958984 0)"/>
      <use xlink:href="#DejaVuSans-6d" transform="translate(85.742188 0)"/>
      <use xlink:href="#DejaVuSans-65" transform="translate(183.154297 0)"/>
      <use xlink:href="#DejaVuSans-20" transform="translate(244.677734 0)"/>
      <use xlink:href="#DejaVuSans-53" transform="translate(276.464844 0)"/>
      <use xlink:href="#DejaVuSans-74" transform="translate(339.941406 0)"/>
      <use xlink:href="#DejaVuSans-65" transform="translate(379.150391 0)"/>
      <use xlink:href="#DejaVuSans-70" transform="translate(440.673828 0)"/>
     </g>
    </g>
   </g>
   <g id="matplotlib.axis_2">
    <g id="ytick_1">
     <g id="line2d_17">
      <path d="M 90 306.013896 
L 648 306.013896 
" clip-path="url(#p038791185d)" style="fill: none; stroke-dasharray: 2.96,1.28; stroke-dashoffset: 0; stroke: #b0b0b0; stroke-opacity: 0.6; stroke-width: 0.8"/>
     </g>
     <g id="line2d_18">
      <defs>
       <path id="m2e9bee3f16" d="M 0 0 
L -3.5 0 
" style="stroke: #000000; stroke-width: 0.8"/>
      </defs>
      <g>
       <use xlink:href="#m2e9bee3f16" x="90" y="306.013896" style="stroke: #000000; stroke-width: 0.8"/>
      </g>
     </g>
     <g id="text_10">
      <!-- −7 -->
      <g transform="translate(68.257812 309.813115) scale(0.1 -0.1)">
       <defs>
        <path id="DejaVuSans-2212" d="M 678 2272 
L 4684 2272 
L 4684 1741 
L 678 1741 
L 678 2272 
z
" transform="scale(0.015625)"/>
        <path id="DejaVuSans-37" d="M 525 4666 
L 3525 4666 
L 3525 4397 
L 1831 0 
L 1172 0 
L 2766 4134 
L 525 4134 
L 525 4666 
z
" transform="scale(0.015625)"/>
       </defs>
       <use xlink:href="#DejaVuSans-2212"/>
       <use xlink:href="#DejaVuSans-37" transform="translate(83.789062 0)"/>
      </g>
     </g>
    </g>
    <g id="ytick_2">
     <g id="line2d_19">
      <path d="M 90 270.269054 
L 648 270.269054 
" clip-path="url(#p038791185d)" style="fill: none; stroke-dasharray: 2.96,1.28; stroke-dashoffset: 0; stroke: #b0b0b0; stroke-opacity: 0.6; stroke-width: 0.8"/>
     </g>
     <g id="line2d_20">
      <g>
       <use xlink:href="#m2e9bee3f16" x="90" y="270.269054" style="stroke: #000000; stroke-width: 0.8"/>
      </g>
     </g>
     <g id="text_11">
      <!-- −6 -->
      <g transform="translate(68.257812 274.068273) scale(0.1 -0.1)">
       <defs>
        <path id="DejaVuSans-36" d="M 2113 2584 
Q 1688 2584 1439 2293 
Q 1191 2003 1191 1497 
Q 1191 994 1439 701 
Q 1688 409 2113 409 
Q 2538 409 2786 701 
Q 3034 994 3034 1497 
Q 3034 2003 2786 2293 
Q 2538 2584 2113 2584 
z
M 3366 4563 
L 3366 3988 
Q 3128 4100 2886 4159 
Q 2644 4219 2406 4219 
Q 1781 4219 1451 3797 
Q 1122 3375 1075 2522 
Q 1259 2794 1537 2939 
Q 1816 3084 2150 3084 
Q 2853 3084 3261 2657 
Q 3669 2231 3669 1497 
Q 3669 778 3244 343 
Q 2819 -91 2113 -91 
Q 1303 -91 875 529 
Q 447 1150 447 2328 
Q 447 3434 972 4092 
Q 1497 4750 2381 4750 
Q 2619 4750 2861 4703 
Q 3103 4656 3366 4563 
z
" transform="scale(0.015625)"/>
       </defs>
       <use xlink:href="#DejaVuSans-2212"/>
       <use xlink:href="#DejaVuSans-36" transform="translate(83.789062 0)"/>
      </g>
     </g>
    </g>
    <g id="ytick_3">
     <g id="line2d_21">
      <path d="M 90 234.524212 
L 648 234.524212 
" clip-path="url(#p038791185d)" style="fill: none; stroke-dasharray: 2.96,1.28; stroke-dashoffset: 0; stroke: #b0b0b0; stroke-opacity: 0.6; stroke-width: 0.8"/>
     </g>
     <g id="line2d_22">
      <g>
       <use xlink:href="#m2e9bee3f16" x="90" y="234.524212" style="stroke: #000000; stroke-width: 0.8"/>
      </g>
     </g>
     <g id="text_12">
      <!-- −5 -->
      <g transform="translate(68.257812 238.32343) scale(0.1 -0.1)">
       <use xlink:href="#DejaVuSans-2212"/>
       <use xlink:href="#DejaVuSans-35" transform="translate(83.789062 0)"/>
      </g>
     </g>
    </g>
    <g id="ytick_4">
     <g id="line2d_23">
      <path d="M 90 198.779369 
L 648 198.779369 
" clip-path="url(#p038791185d)" style="fill: none; stroke-dasharray: 2.96,1.28; stroke-dashoffset: 0; stroke: #b0b0b0; stroke-opacity: 0.6; stroke-width: 0.8"/>
     </g>
     <g id="line2d_24">
      <g>
       <use xlink:href="#m2e9bee3f16" x="90" y="198.779369" style="stroke: #000000; stroke-width: 0.8"/>
      </g>
     </g>
     <g id="text_13">
      <!-- −4 -->
      <g transform="translate(68.257812 202.578588) scale(0.1 -0.1)">
       <use xlink:href="#DejaVuSans-2212"/>
       <use xlink:href="#DejaVuSans-34" transform="translate(83.789062 0)"/>
      </g>
     </g>
    </g>
    <g id="ytick_5">
     <g id="line2d_25">
      <path d="M 90 163.034527 
L 648 163.034527 
" clip-path="url(#p038791185d)" style="fill: none; stroke-dasharray: 2.96,1.28; stroke-dashoffset: 0; stroke: #b0b0b0; stroke-opacity: 0.6; stroke-width: 0.8"/>
     </g>
     <g id="line2d_26">
      <g>
       <use xlink:href="#m2e9bee3f16" x="90" y="163.034527" style="stroke: #000000; stroke-width: 0.8"/>
      </g>
     </g>
     <g id="text_14">
      <!-- −3 -->
      <g transform="translate(68.257812 166.833746) scale(0.1 -0.1)">
       <use xlink:href="#DejaVuSans-2212"/>
       <use xlink:href="#DejaVuSans-33" transform="translate(83.789062 0)"/>
      </g>
     </g>
    </g>
    <g id="ytick_6">
     <g id="line2d_27">
      <path d="M 90 127.289685 
L 648 127.289685 
" clip-path="url(#p038791185d)" style="fill: none; stroke-dasharray: 2.96,1.28; stroke-dashoffset: 0; stroke: #b0b0b0; stroke-opacity: 0.6; stroke-width: 0.8"/>
     </g>
     <g id="line2d_28">
      <g>
       <use xlink:href="#m2e9bee3f16" x="90" y="127.289685" style="stroke: #000000; stroke-width: 0.8"/>
      </g>
     </g>
     <g id="text_15">
      <!-- −2 -->
      <g transform="translate(68.257812 131.088903) scale(0.1 -0.1)">
       <use xlink:href="#DejaVuSans-2212"/>
       <use xlink:href="#DejaVuSans-32" transform="translate(83.789062 0)"/>
      </g>
     </g>
    </g>
    <g id="ytick_7">
     <g id="line2d_29">
      <path d="M 90 91.544842 
L 648 91.544842 
" clip-path="url(#p038791185d)" style="fill: none; stroke-dasharray: 2.96,1.28; stroke-dashoffset: 0; stroke: #b0b0b0; stroke-opacity: 0.6; stroke-width: 0.8"/>
     </g>
     <g id="line2d_30">
      <g>
       <use xlink:href="#m2e9bee3f16" x="90" y="91.544842" style="stroke: #000000; stroke-width: 0.8"/>
      </g>
     </g>
     <g id="text_16">
      <!-- −1 -->
      <g transform="translate(68.257812 95.344061) scale(0.1 -0.1)">
       <use xlink:href="#DejaVuSans-2212"/>
       <use xlink:href="#DejaVuSans-31" transform="translate(83.789062 0)"/>
      </g>
     </g>
    </g>
    <g id="ytick_8">
     <g id="line2d_31">
      <path d="M 90 55.8 
L 648 55.8 
" clip-path="url(#p038791185d)" style="fill: none; stroke-dasharray: 2.96,1.28; stroke-dashoffset: 0; stroke: #b0b0b0; stroke-opacity: 0.6; stroke-width: 0.8"/>
     </g>
     <g id="line2d_32">
      <g>
       <use xlink:href="#m2e9bee3f16" x="90" y="55.8" style="stroke: #000000; stroke-width: 0.8"/>
      </g>
     </g>
     <g id="text_17">
      <!-- 0 -->
      <g transform="translate(76.6375 59.599219) scale(0.1 -0.1)">
       <use xlink:href="#DejaVuSans-30"/>
      </g>
     </g>
    </g>
    <g id="text_18">
     <!-- Holding Period Return (%) -->
     <g transform="translate(62.178125 246.514062) rotate(-90) scale(0.1 -0.1)">
      <defs>
       <path id="DejaVuSans-48" d="M 628 4666 
L 1259 4666 
L 1259 2753 
L 3553 2753 
L 3553 4666 
L 4184 4666 
L 4184 0 
L 3553 0 
L 3553 2222 
L 1259 2222 
L 1259 0 
L 628 0 
L 628 4666 
z
" transform="scale(0.015625)"/>
       <path id="DejaVuSans-6f" d="M 1959 3097 
Q 1497 3097 1228 2736 
Q 959 2375 959 1747 
Q 959 1119 1226 758 
Q 1494 397 1959 397 
Q 2419 397 2687 759 
Q 2956 1122 2956 1747 
Q 2956 2369 2687 2733 
Q 2419 3097 1959 3097 
z
M 1959 3584 
Q 2709 3584 3137 3096 
Q 3566 2609 3566 1747 
Q 3566 888 3137 398 
Q 2709 -91 1959 -91 
Q 1206 -91 779 398 
Q 353 888 353 1747 
Q 353 2609 779 3096 
Q 1206 3584 1959 3584 
z
" transform="scale(0.015625)"/>
       <path id="DejaVuSans-6c" d="M 603 4863 
L 1178 4863 
L 1178 0 
L 603 0 
L 603 4863 
z
" transform="scale(0.015625)"/>
       <path id="DejaVuSans-64" d="M 2906 2969 
L 2906 4863 
L 3481 4863 
L 3481 0 
L 2906 0 
L 2906 525 
Q 2725 213 2448 61 
Q 2172 -91 1784 -91 
Q 1150 -91 751 415 
Q 353 922 353 1747 
Q 353 2572 751 3078 
Q 1150 3584 1784 3584 
Q 2172 3584 2448 3432 
Q 2725 3281 2906 2969 
z
M 947 1747 
Q 947 1113 1208 752 
Q 1469 391 1925 391 
Q 2381 391 2643 752 
Q 2906 1113 2906 1747 
Q 2906 2381 2643 2742 
Q 2381 3103 1925 3103 
Q 1469 3103 1208 2742 
Q 947 2381 947 1747 
z
" transform="scale(0.015625)"/>
       <path id="DejaVuSans-6e" d="M 3513 2113 
L 3513 0 
L 2938 0 
L 2938 2094 
Q 2938 2591 2744 2837 
Q 2550 3084 2163 3084 
Q 1697 3084 1428 2787 
Q 1159 2491 1159 1978 
L 1159 0 
L 581 0 
L 581 3500 
L 1159 3500 
L 1159 2956 
Q 1366 3272 1645 3428 
Q 1925 3584 2291 3584 
Q 2894 3584 3203 3211 
Q 3513 2838 3513 2113 
z
" transform="scale(0.015625)"/>
       <path id="DejaVuSans-67" d="M 2906 1791 
Q 2906 2416 2648 2759 
Q 2391 3103 1925 3103 
Q 1463 3103 1205 2759 
Q 947 2416 947 1791 
Q 947 1169 1205 825 
Q 1463 481 1925 481 
Q 2391 481 2648 825 
Q 2906 1169 2906 1791 
z
M 3481 434 
Q 3481 -459 3084 -895 
Q 2688 -1331 1869 -1331 
Q 1566 -1331 1297 -1286 
Q 1028 -1241 775 -1147 
L 775 -588 
Q 1028 -725 1275 -790 
Q 1522 -856 1778 -856 
Q 2344 -856 2625 -561 
Q 2906 -266 2906 331 
L 2906 616 
Q 2728 306 2450 153 
Q 2172 0 1784 0 
Q 1141 0 747 490 
Q 353 981 353 1791 
Q 353 2603 747 3093 
Q 1141 3584 1784 3584 
Q 2172 3584 2450 3431 
Q 2728 3278 2906 2969 
L 2906 3500 
L 3481 3500 
L 3481 434 
z
" transform="scale(0.015625)"/>
       <path id="DejaVuSans-50" d="M 1259 4147 
L 1259 2394 
L 2053 2394 
Q 2494 2394 2734 2622 
Q 2975 2850 2975 3272 
Q 2975 3691 2734 3919 
Q 2494 4147 2053 4147 
L 1259 4147 
z
M 628 4666 
L 2053 4666 
Q 2838 4666 3239 4311 
Q 3641 3956 3641 3272 
Q 3641 2581 3239 2228 
Q 2838 1875 2053 1875 
L 1259 1875 
L 1259 0 
L 628 0 
L 628 4666 
z
" transform="scale(0.015625)"/>
       <path id="DejaVuSans-72" d="M 2631 2963 
Q 2534 3019 2420 3045 
Q 2306 3072 2169 3072 
Q 1681 3072 1420 2755 
Q 1159 2438 1159 1844 
L 1159 0 
L 581 0 
L 581 3500 
L 1159 3500 
L 1159 2956 
Q 1341 3275 1631 3429 
Q 1922 3584 2338 3584 
Q 2397 3584 2469 3576 
Q 2541 3569 2628 3553 
L 2631 2963 
z
" transform="scale(0.015625)"/>
       <path id="DejaVuSans-52" d="M 2841 2188 
Q 3044 2119 3236 1894 
Q 3428 1669 3622 1275 
L 4263 0 
L 3584 0 
L 2988 1197 
Q 2756 1666 2539 1819 
Q 2322 1972 1947 1972 
L 1259 1972 
L 1259 0 
L 628 0 
L 628 4666 
L 2053 4666 
Q 2853 4666 3247 4331 
Q 3641 3997 3641 3322 
Q 3641 2881 3436 2590 
Q 3231 2300 2841 2188 
z
M 1259 4147 
L 1259 2491 
L 2053 2491 
Q 2509 2491 2742 2702 
Q 2975 2913 2975 3322 
Q 2975 3731 2742 3939 
Q 2509 4147 2053 4147 
L 1259 4147 
z
" transform="scale(0.015625)"/>
       <path id="DejaVuSans-75" d="M 544 1381 
L 544 3500 
L 1119 3500 
L 1119 1403 
Q 1119 906 1312 657 
Q 1506 409 1894 409 
Q 2359 409 2629 706 
Q 2900 1003 2900 1516 
L 2900 3500 
L 3475 3500 
L 3475 0 
L 2900 0 
L 2900 538 
Q 2691 219 2414 64 
Q 2138 -91 1772 -91 
Q 1169 -91 856 284 
Q 544 659 544 1381 
z
M 1991 3584 
L 1991 3584 
z
" transform="scale(0.015625)"/>
       <path id="DejaVuSans-28" d="M 1984 4856 
Q 1566 4138 1362 3434 
Q 1159 2731 1159 2009 
Q 1159 1288 1364 580 
Q 1569 -128 1984 -844 
L 1484 -844 
Q 1016 -109 783 600 
Q 550 1309 550 2009 
Q 550 2706 781 3412 
Q 1013 4119 1484 4856 
L 1984 4856 
z
" transform="scale(0.015625)"/>
       <path id="DejaVuSans-25" d="M 4653 2053 
Q 4381 2053 4226 1822 
Q 4072 1591 4072 1178 
Q 4072 772 4226 539 
Q 4381 306 4653 306 
Q 4919 306 5073 539 
Q 5228 772 5228 1178 
Q 5228 1588 5073 1820 
Q 4919 2053 4653 2053 
z
M 4653 2450 
Q 5147 2450 5437 2106 
Q 5728 1763 5728 1178 
Q 5728 594 5436 251 
Q 5144 -91 4653 -91 
Q 4153 -91 3862 251 
Q 3572 594 3572 1178 
Q 3572 1766 3864 2108 
Q 4156 2450 4653 2450 
z
M 1428 4353 
Q 1159 4353 1004 4120 
Q 850 3888 850 3481 
Q 850 3069 1003 2837 
Q 1156 2606 1428 2606 
Q 1700 2606 1854 2837 
Q 2009 3069 2009 3481 
Q 2009 3884 1853 4118 
Q 1697 4353 1428 4353 
z
M 4250 4750 
L 4750 4750 
L 1831 -91 
L 1331 -91 
L 4250 4750 
z
M 1428 4750 
Q 1922 4750 2215 4408 
Q 2509 4066 2509 3481 
Q 2509 2891 2217 2550 
Q 1925 2209 1428 2209 
Q 931 2209 642 2551 
Q 353 2894 353 3481 
Q 353 4063 643 4406 
Q 934 4750 1428 4750 
z
" transform="scale(0.015625)"/>
       <path id="DejaVuSans-29" d="M 513 4856 
L 1013 4856 
Q 1481 4119 1714 3412 
Q 1947 2706 1947 2009 
Q 1947 1309 1714 600 
Q 1481 -109 1013 -844 
L 513 -844 
Q 928 -128 1133 580 
Q 1338 1288 1338 2009 
Q 1338 2731 1133 3434 
Q 928 4138 513 4856 
z
" transform="scale(0.015625)"/>
      </defs>
      <use xlink:href="#DejaVuSans-48"/>
      <use xlink:href="#DejaVuSans-6f" transform="translate(75.195312 0)"/>
      <use xlink:href="#DejaVuSans-6c" transform="translate(136.376953 0)"/>
      <use xlink:href="#DejaVuSans-64" transform="translate(164.160156 0)"/>
      <use xlink:href="#DejaVuSans-69" transform="translate(227.636719 0)"/>
      <use xlink:href="#DejaVuSans-6e" transform="translate(255.419922 0)"/>
      <use xlink:href="#DejaVuSans-67" transform="translate(318.798828 0)"/>
      <use xlink:href="#DejaVuSans-20" transform="translate(382.275391 0)"/>
      <use xlink:href="#DejaVuSans-50" transform="translate(414.0625 0)"/>
      <use xlink:href="#DejaVuSans-65" transform="translate(470.740234 0)"/>
      <use xlink:href="#DejaVuSans-72" transform="translate(532.263672 0)"/>
      <use xlink:href="#DejaVuSans-69" transform="translate(573.376953 0)"/>
      <use xlink:href="#DejaVuSans-6f" transform="translate(601.160156 0)"/>
      <use xlink:href="#DejaVuSans-64" transform="translate(662.341797 0)"/>
      <use xlink:href="#DejaVuSans-20" transform="translate(725.818359 0)"/>
      <use xlink:href="#DejaVuSans-52" transform="translate(757.605469 0)"/>
      <use xlink:href="#DejaVuSans-65" transform="translate(822.587891 0)"/>
      <use xlink:href="#DejaVuSans-74" transform="translate(884.111328 0)"/>
      <use xlink:href="#DejaVuSans-75" transform="translate(923.320312 0)"/>
      <use xlink:href="#DejaVuSans-72" transform="translate(986.699219 0)"/>
      <use xlink:href="#DejaVuSans-6e" transform="translate(1026.0625 0)"/>
      <use xlink:href="#DejaVuSans-20" transform="translate(1089.441406 0)"/>
      <use xlink:href="#DejaVuSans-28" transform="translate(1121.228516 0)"/>
      <use xlink:href="#DejaVuSans-25" transform="translate(1160.242188 0)"/>
      <use xlink:href="#DejaVuSans-29" transform="translate(1255.261719 0)"/>
     </g>
    </g>
   </g>
   <g id="line2d_33">
    <path d="M 211.608601 55.8 
L 115.363636 55.8 
L 584.127497 55.826171 
L 354.647202 56.681207 
L 584.12773 56.707379 
L 354.65499 57.56599 
L 354.661131 57.56599 
L 584.128644 57.592159 
L 354.748098 58.443621 
L 354.748337 58.443621 
L 584.128892 58.469788 
L 354.82598 59.314102 
L 354.828142 59.314102 
L 584.12964 59.340271 
L 354.838805 60.181015 
L 354.854952 60.181015 
L 584.129935 60.207182 
L 354.928264 61.001479 
L 354.984837 61.001479 
L 584.130776 61.027647 
L 355.014509 61.825519 
L 355.107849 61.825519 
L 584.131254 61.851686 
L 355.142179 62.635265 
L 355.262318 62.635265 
L 584.136295 62.654286 
L 355.874377 63.523617 
L 356.17349 63.523617 
L 584.138202 63.549789 
L 356.190531 64.454845 
L 356.222303 64.454845 
L 584.138985 64.481016 
L 356.22601 65.446806 
L 356.397611 65.446806 
L 584.140551 65.472973 
L 356.413053 66.499495 
L 356.454695 66.499495 
L 584.142094 66.52566 
L 363.831008 67.548608 
L 584.159711 67.578354 
L 363.838926 68.608453 
L 584.169923 68.645343 
L 363.840265 69.664715 
L 584.174793 69.687298 
L 363.847316 70.717386 
L 363.89262 70.717386 
L 584.176044 70.743544 
L 363.91472 71.791494 
L 363.933776 71.791494 
L 584.176775 71.817653 
L 363.93567 72.940631 
L 363.95154 72.940631 
L 584.17755 72.966791 
L 363.957827 74.082624 
L 363.958987 74.082624 
L 584.177862 74.108785 
L 363.96338 75.217474 
L 584.178317 75.243634 
L 363.972719 76.348748 
L 363.974694 76.348748 
L 584.178762 76.37491 
L 363.985692 77.451445 
L 584.179825 77.484753 
L 364.000931 78.543419 
L 364.006954 78.543419 
L 584.180614 78.569572 
L 364.014926 79.617516 
L 364.082841 79.617516 
L 584.182005 79.643672 
L 364.094287 80.673756 
L 364.226217 80.673756 
L 584.184257 80.699913 
L 364.245862 81.704988 
L 364.768415 81.704988 
L 584.186068 81.731144 
L 364.771948 82.743365 
L 365.422002 82.743365 
L 584.186525 82.769526 
L 365.425485 83.803189 
L 365.425674 83.803189 
L 584.189132 83.829345 
L 365.441086 84.863002 
L 365.476288 84.863002 
L 584.190054 84.88916 
L 365.486876 85.919246 
L 365.534839 85.919246 
L 584.190614 85.945407 
L 365.537602 86.954061 
L 365.600885 86.954061 
L 584.191547 86.980221 
L 365.608471 87.953145 
L 365.632708 87.953145 
L 584.191878 87.979307 
L 365.635812 88.916506 
L 365.64404 88.916506 
L 584.192666 88.942668 
L 365.655984 89.890585 
L 365.857742 89.890585 
L 584.194467 89.916747 
L 365.86311 90.803929 
L 365.904657 90.803929 
L 584.194695 90.830088 
L 365.904852 91.667251 
L 365.983897 91.667251 
L 584.195542 91.693412 
L 365.985423 92.512713 
L 365.991115 92.512713 
L 584.195543 92.538872 
L 365.993717 93.34388 
L 366.015845 93.34388 
L 584.196044 93.370035 
L 366.126907 94.182183 
L 584.197783 94.211913 
L 373.386786 94.949035 
L 584.212102 94.985909 
L 373.393247 95.705158 
L 584.219277 95.731302 
L 373.395982 96.432685 
L 584.244216 96.46598 
L 373.400477 97.178079 
L 584.248259 97.204218 
L 373.4029 97.905596 
L 373.522447 97.892113 
L 584.255937 97.313047 
L 373.654198 97.971559 
L 584.257762 97.997701 
L 373.659587 98.645493 
L 373.673966 98.722991 
L 584.25856 98.111754 
L 373.702754 98.763118 
L 584.259457 98.789262 
L 373.711923 99.437055 
L 584.262556 98.83735 
L 374.191682 99.524441 
L 374.244834 99.696409 
L 374.30321 99.692834 
L 374.352497 99.748041 
L 374.378957 99.726594 
L 584.267269 99.090335 
L 374.981177 99.770285 
L 584.270187 99.800005 
L 374.986735 100.432688 
L 584.270544 99.79643 
L 375.04395 100.53518 
L 375.166966 100.75967 
L 584.270988 100.785817 
L 375.183791 101.572949 
L 375.410651 101.572949 
L 584.272338 101.599098 
L 375.413896 102.547003 
L 375.448956 102.547003 
L 584.273646 102.573152 
L 375.453839 103.599656 
L 375.460157 103.599656 
L 584.274079 103.625804 
L 375.464435 104.648734 
L 375.493848 104.648734 
L 584.27476 104.674883 
L 375.49681 105.565624 
L 382.94278 105.565624 
L 584.280925 105.591777 
L 382.944356 106.303888 
L 382.947746 106.303888 
L 584.289562 106.333617 
L 382.949637 107.052873 
L 584.293754 107.082598 
L 382.952626 107.798278 
L 584.305905 107.831578 
L 382.956486 108.54011 
L 584.32916 108.573408 
L 382.958617 109.274793 
L 584.339172 109.297365 
L 382.960149 110.00947 
L 584.346239 110.02847 
L 382.961314 110.747726 
L 584.350432 110.763152 
L 382.962578 111.493127 
L 382.964264 111.493127 
L 584.352596 111.519278 
L 382.964502 112.23496 
L 383.113491 112.146425 
L 584.363719 111.674593 
L 383.818297 112.251831 
L 383.903631 112.373301 
L 383.929659 112.287514 
L 383.931055 112.291088 
L 383.93561 112.273216 
L 384.535881 112.269641 
L 584.383714 111.887171 
L 384.813522 112.162407 
L 384.814654 112.14096 
L 384.817284 112.17313 
L 584.407716 111.890746 
L 411.612663 111.987257 
L 584.517759 111.880022 
L 411.899465 111.876448 
L 411.913023 111.82998 
L 411.914054 111.837129 
L 584.548396 111.89432 
L 412.344177 111.941895 
L 412.347218 111.96803 
L 412.348004 111.957306 
L 584.555001 112.013143 
L 412.415396 112.06787 
L 412.424027 112.127296 
L 584.55579 112.153438 
L 412.426536 112.227157 
L 412.482926 112.62779 
L 584.557727 112.62779 
L 412.576452 112.709801 
L 412.605435 112.858402 
L 584.572365 112.939281 
L 413.370639 112.933276 
L 584.572962 113.059493 
L 413.371529 113.085673 
L 413.377961 113.103545 
L 584.57361 113.211888 
L 413.381335 113.238053 
L 413.402112 113.209457 
L 584.573849 113.324954 
L 413.402705 113.351132 
L 413.423721 113.354706 
L 584.5743 113.463054 
L 413.424169 113.489236 
L 413.491475 113.489236 
L 584.575704 113.604734 
L 413.492375 113.630914 
L 413.528864 113.733269 
L 413.535907 113.855765 
L 584.576669 113.935517 
L 413.537432 113.96168 
L 413.540791 113.947383 
L 413.558672 114.023571 
L 584.588175 114.049713 
L 413.677355 114.343807 
L 584.589215 114.373525 
L 413.678298 114.660474 
L 584.589782 114.686616 
L 413.678982 114.955702 
L 413.680428 114.955702 
L 584.590808 114.98542 
L 413.682879 115.24736 
L 584.594677 115.340077 
L 413.685266 115.641313 
L 584.599123 115.667455 
L 413.686637 115.961549 
L 584.602512 115.984115 
L 413.687581 116.281782 
L 413.689497 116.281782 
L 584.60795 116.315073 
L 413.691384 116.577009 
L 584.608208 116.603146 
L 413.692726 116.882944 
L 413.694371 116.882944 
L 584.613205 116.909082 
L 413.697818 117.167446 
L 584.61409 117.193583 
L 413.69972 117.412645 
L 585.622615 117.475636 
L 585.222611 117.501776 
L 413.733501 117.749424 
L 585.222671 117.77556 
L 413.733909 118.008913 
L 585.222813 118.035052 
L 413.734634 118.271979 
L 421.170324 118.271979 
L 585.233691 118.29812 
L 421.173103 118.938764 
L 585.245757 118.96848 
L 421.177046 119.61627 
L 585.26694 119.61739 
L 421.181135 120.283058 
L 585.302779 120.291336 
L 421.185752 121.032035 
L 585.337287 121.06177 
L 421.189524 121.788176 
L 585.364255 121.807189 
L 421.192624 122.562184 
L 585.374895 122.591922 
L 421.1948 123.336196 
L 585.387283 123.365929 
L 421.196605 124.095906 
L 585.393724 124.122064 
L 421.198101 124.841326 
L 585.398538 124.888932 
L 421.199251 125.586749 
L 585.403541 125.620048 
L 421.201808 126.317863 
L 421.251581 126.317863 
L 585.406861 126.344014 
L 421.256465 127.05255 
L 421.266035 127.05255 
L 585.407187 127.078692 
L 421.266792 127.765783 
L 421.286296 127.765783 
L 585.408641 127.806232 
L 421.28764 128.493324 
L 421.29286 128.493324 
L 585.40888 128.519475 
L 421.293552 129.195857 
L 421.299828 129.195857 
L 585.409 129.222001 
L 421.30024 129.862648 
L 421.305804 129.862648 
L 585.4095 129.885223 
L 421.306861 130.543741 
L 421.310945 130.543741 
L 585.410152 130.569891 
L 421.312256 131.224834 
L 421.344266 131.224834 
L 585.41229 131.250982 
L 421.345362 131.88806 
L 421.352304 131.88806 
L 585.414657 131.92136 
L 421.352633 132.576302 
L 421.359805 132.576302 
L 585.415415 132.602453 
L 421.360062 133.250253 
L 421.36596 133.250253 
L 585.416467 133.276404 
L 421.366313 133.924204 
L 421.368468 133.924204 
L 585.416955 133.950357 
L 421.369411 134.637459 
L 421.375406 134.637459 
L 585.418437 134.663612 
L 421.376171 135.336422 
L 421.377418 135.336422 
L 585.418664 135.362572 
L 421.379458 136.031806 
L 421.40105 136.031806 
L 585.422678 136.057957 
L 421.401642 136.723621 
L 421.402273 136.723621 
L 585.42288 136.749773 
L 421.403531 137.415439 
L 421.416543 137.415439 
L 585.423441 137.44159 
L 421.41748 138.096535 
L 421.438418 138.096535 
L 585.424444 138.122685 
L 421.442092 138.763338 
L 421.452485 138.763338 
L 585.424669 138.789489 
L 421.453269 139.426571 
L 421.466316 139.426571 
L 585.424991 139.45272 
L 421.467689 140.0898 
L 421.590715 140.0898 
L 585.429361 140.115958 
L 421.591227 140.828074 
L 421.641265 140.828074 
L 585.429596 140.85423 
L 421.645249 141.544908 
L 421.679373 141.544908 
L 585.429881 141.571068 
L 421.679567 142.551138 
L 421.683831 142.551138 
L 585.430033 142.577296 
L 421.68453 143.514492 
L 421.724501 143.514492 
L 585.430658 143.540648 
L 421.724988 144.492133 
L 421.803536 144.492133 
L 585.431942 144.518289 
L 421.805563 145.462629 
L 421.879227 145.462629 
L 585.433758 145.488782 
L 421.879553 146.747515 
L 421.886868 146.747515 
L 585.435249 146.770097 
L 421.887033 147.989535 
L 421.888119 147.989535 
L 585.436393 148.015693 
L 421.89106 149.224414 
L 585.436954 149.250576 
L 421.892121 150.491455 
L 421.892335 150.491455 
L 585.437502 150.517616 
L 421.892463 151.76564 
L 585.438312 151.798953 
L 421.892926 153.050548 
L 421.895161 153.050548 
L 585.438759 153.076707 
L 421.896413 154.306866 
L 421.897424 154.306866 
L 585.439438 154.333028 
L 421.897932 155.559616 
L 421.901476 155.559616 
L 585.441609 155.585775 
L 421.902244 156.883815 
L 421.904164 156.883815 
L 585.443316 156.909974 
L 421.904447 158.161567 
L 421.905191 158.161567 
L 585.443659 158.187718 
L 421.905606 159.400004 
L 421.909378 159.400004 
L 585.444138 159.426157 
L 421.909645 160.670599 
L 585.44436 160.69675 
L 421.910189 161.941191 
L 421.919528 161.941191 
L 585.445943 161.96735 
L 421.919981 163.229663 
L 421.928485 163.229663 
L 585.447424 163.25582 
L 421.930072 164.482402 
L 421.93017 164.482402 
L 585.447871 164.50856 
L 421.930319 165.735145 
L 585.448335 165.761301 
L 421.932333 166.948584 
L 421.938863 166.948584 
L 585.451047 166.974738 
L 421.939472 168.158446 
L 421.959446 168.158446 
L 585.454339 168.181025 
L 421.963208 169.364733 
L 421.987162 169.364733 
L 585.456281 169.390886 
L 421.987357 170.549583 
L 422.079374 170.549583 
L 585.460632 170.57574 
L 422.079949 171.934512 
L 422.101005 171.934512 
L 585.461618 171.960665 
L 422.102969 173.233689 
L 422.108743 173.233689 
L 585.461859 173.259845 
L 422.113042 174.504291 
L 422.140208 174.504291 
L 585.463463 174.530444 
L 422.140449 175.664132 
L 422.760935 175.664132 
L 585.465626 175.686712 
L 422.763255 176.82755 
L 422.763654 176.82755 
L 585.468711 176.842981 
L 422.764803 178.044558 
L 422.828955 178.044558 
L 585.469367 178.070718 
L 422.83243 179.240141 
L 422.903885 179.330728 
L 422.905678 179.363507 
L 422.929551 179.317039 
L 422.945204 179.331337 
L 585.470154 178.298311 
L 423.003647 179.424862 
L 423.01582 179.560081 
L 585.470558 178.466289 
L 423.022283 179.651212 
L 423.093817 180.044908 
L 423.099234 179.99129 
L 585.470844 178.947541 
L 423.157224 179.88763 
L 423.164095 179.805417 
L 423.159266 179.901928 
L 423.164421 179.819715 
L 585.524227 178.933243 
L 431.222134 179.852584 
L 585.527306 179.878748 
L 431.222717 180.96243 
L 431.27208 180.96243 
L 585.527756 180.988595 
L 431.274489 182.050842 
L 431.37995 182.050842 
L 585.52867 182.077006 
L 431.381168 183.021352 
L 431.453307 183.076397 
L 585.52921 183.102563 
L 431.455207 184.021902 
L 431.525989 184.095535 
L 585.529925 183.266254 
L 431.6795 184.196312 
L 431.717662 184.258474 
L 432.319936 184.284205 
L 585.532513 183.415605 
L 432.322174 184.392108 
L 585.535967 184.421846 
L 432.323169 185.384054 
L 585.53765 184.523299 
L 432.448645 185.295387 
L 432.490161 185.231046 
L 432.510945 185.316834 
L 432.559552 185.298962 
L 432.614022 185.263217 
L 432.667789 185.424769 
L 585.538831 185.450927 
L 432.668463 186.377405 
L 432.700009 186.458203 
L 432.803465 186.659153 
L 432.8143 186.630557 
L 432.824652 186.587663 
L 432.853769 186.867283 
L 432.912145 186.824389 
L 433.02225 186.835112 
L 585.542448 186.077322 
L 440.282024 186.649239 
L 585.614651 186.102343 
L 440.535399 186.53843 
L 440.538301 186.524132 
L 585.623992 186.152386 
L 440.998143 186.608138 
L 441.010275 186.644785 
L 585.62516 186.670915 
L 441.012674 187.104332 
L 441.042051 187.104332 
L 585.625383 187.130447 
L 441.042272 187.567422 
L 441.088749 187.567422 
L 585.626171 187.593539 
L 441.089258 188.112688 
L 441.091094 188.112688 
L 585.626268 188.138804 
L 441.093015 188.629369 
L 441.125341 188.629369 
L 585.626823 188.655493 
L 441.129271 189.171077 
L 441.150103 189.171077 
L 585.627056 189.197198 
L 441.152076 189.766368 
L 441.873299 189.766368 
L 585.627526 189.785336 
L 441.875364 190.290198 
L 585.630586 190.305593 
L 441.876297 190.803313 
L 585.632518 190.825861 
L 441.876532 191.327154 
L 442.000089 191.415642 
L 442.088347 191.624766 
L 442.096091 191.585446 
L 585.633564 191.195828 
L 442.207596 191.488935 
L 442.224176 191.42102 
L 442.262682 191.528255 
L 442.313571 191.506808 
L 442.319795 191.496084 
L 442.373076 191.698945 
L 585.636027 191.725069 
L 442.37593 192.169199 
L 442.39034 192.169199 
L 585.6363 192.195325 
L 442.391025 192.65732 
L 442.397847 192.65732 
L 585.636632 192.683448 
L 442.398759 193.163308 
L 442.436 193.163308 
L 585.638104 193.189428 
L 442.436413 193.730017 
L 442.445225 193.730017 
L 585.638363 193.756143 
L 442.446702 194.257438 
L 442.45747 194.257438 
L 585.63882 194.283562 
L 442.459724 194.766991 
L 442.468011 194.766991 
L 585.639602 194.796688 
L 442.468958 195.255105 
L 449.837782 195.281104 
L 585.698312 194.9594 
L 585.699529 194.923655 
L 449.861663 195.302551 
L 585.701657 194.841442 
L 585.702617 194.784251 
L 449.862875 195.306125 
L 585.717174 194.723484 
L 450.364723 195.394799 
L 450.377815 195.450341 
L 585.717436 195.476632 
L 450.377934 196.128144 
L 450.412635 196.18369 
L 585.717658 196.209982 
L 450.414089 196.872214 
L 450.444645 196.872214 
L 585.71787 196.898511 
L 450.446735 197.578613 
L 450.823287 197.66726 
L 450.829083 197.844558 
L 450.830634 197.837409 
L 451.430555 197.833834 
L 585.721754 197.158257 
L 451.448592 197.933209 
L 451.507464 198.183912 
L 585.722235 198.210224 
L 451.510656 198.911775 
L 451.547316 198.974452 
L 585.722437 199.000769 
L 451.54913 199.73448 
L 451.569259 199.73448 
L 585.722639 199.760789 
L 451.570156 200.508782 
L 451.600455 200.593858 
L 451.645841 200.755898 
L 585.722882 200.782212 
L 451.647554 201.540928 
L 451.652222 201.540928 
L 585.723014 201.567245 
L 451.654257 202.365265 
L 451.661928 202.365265 
L 585.723199 202.391577 
L 451.662804 203.186019 
L 451.68944 203.186019 
L 585.723434 203.212327 
L 451.691575 203.956747 
L 451.721071 203.956747 
L 585.723693 203.983059 
L 451.721389 204.731055 
L 451.770527 204.816117 
L 451.804237 205.17783 
L 451.822161 205.152809 
L 585.723874 204.5237 
L 451.836471 205.251216 
L 451.853757 205.346998 
L 585.724101 205.373306 
L 451.854444 206.132017 
L 451.881192 206.132017 
L 585.724462 206.158324 
L 451.881639 207.020641 
L 451.891198 207.020641 
L 585.724688 207.046937 
L 451.891424 207.937825 
L 451.892631 207.937825 
L 585.724918 207.964133 
L 451.894998 208.858607 
L 451.898058 208.858607 
L 585.725145 208.884903 
L 451.89918 209.729346 
L 451.902735 209.729346 
L 585.725736 209.755638 
L 451.903392 210.610796 
L 451.919822 210.610796 
L 585.726762 210.637072 
L 451.919923 211.492214 
L 451.921074 211.492214 
L 585.726978 211.518488 
L 451.921527 212.380773 
L 451.930279 212.380773 
L 585.727322 212.407051 
L 451.932776 213.265767 
L 451.946673 213.265767 
L 585.728326 213.292049 
L 451.949051 214.068597 
L 451.986034 214.068597 
L 585.729129 214.094885 
L 451.987369 214.896449 
L 452.011849 214.896449 
L 585.729275 214.922739 
L 452.012192 215.720732 
L 452.019104 215.720732 
L 585.729499 215.747017 
L 452.020464 216.527141 
L 452.025263 216.527141 
L 585.730632 216.553433 
L 478.507552 217.218287 
L 585.743744 216.54271 
L 478.712628 217.315002 
L 478.754652 217.654239 
L 585.744438 217.680531 
L 478.758644 218.367772 
L 478.89861 218.456389 
L 479.004182 218.77678 
L 479.010431 218.751759 
L 479.035214 218.83585 
L 479.127664 219.379122 
L 585.744987 219.405421 
L 479.128116 220.121251 
L 479.353608 220.121251 
L 585.745654 220.147547 
L 479.353984 220.99199 
L 479.380963 220.99199 
L 585.74591 221.018284 
L 479.382584 221.862725 
L 480.098135 221.862725 
L 585.746916 221.889023 
L 480.099177 222.690596 
L 480.100823 222.690596 
L 585.748123 222.716886 
L 480.101068 223.48987 
L 480.104795 223.48987 
L 585.74881 223.516167 
L 480.105936 224.307022 
L 480.409697 224.307022 
L 585.750222 224.333309 
L 480.410526 225.395678 
L 480.441874 225.395678 
L 585.750887 225.421986 
L 480.442428 226.541539 
L 480.529347 226.541539 
L 585.752046 226.567835 
L 480.529766 227.655222 
L 480.647886 227.655222 
L 585.752385 227.681514 
L 480.648203 228.861787 
L 480.692433 228.861787 
L 585.753743 228.888092 
L 480.69295 230.161268 
L 480.694331 230.161268 
L 585.753977 230.187571 
L 480.812194 231.457172 
L 585.758324 231.422719 
L 488.062923 233.003186 
L 585.759564 233.029521 
L 488.064007 234.60998 
L 585.761543 234.672054 
L 488.067749 236.191753 
L 585.76461 236.243106 
L 488.070096 237.780676 
L 585.768133 237.846309 
L 488.07313 239.340981 
L 585.780277 239.363704 
L 488.074611 240.879818 
L 585.784046 240.923983 
L 488.075667 242.411499 
L 585.785518 242.42706 
L 488.076211 243.928875 
L 488.078605 243.928875 
L 585.78577 243.955167 
L 488.079099 245.460555 
L 488.206845 245.460555 
L 585.786537 245.486853 
L 488.207331 246.913647 
L 488.24052 246.913647 
L 585.787332 246.939947 
L 488.241894 248.409616 
L 488.254109 248.409616 
L 585.787893 248.435908 
L 488.254664 249.905569 
L 488.257599 249.905569 
L 585.787977 249.931869 
L 488.258192 251.40511 
L 488.312306 251.40511 
L 585.789484 251.431402 
L 488.314451 252.865337 
L 488.330089 252.865337 
L 585.789729 252.891631 
L 488.330322 254.318422 
L 488.378619 254.318422 
L 585.790615 254.344716 
L 488.379848 255.782225 
L 488.425012 255.782225 
L 585.790869 255.808517 
L 488.425424 257.224589 
L 488.511244 257.224589 
L 585.791333 257.250897 
L 488.513534 258.627684 
L 488.56658 258.627684 
L 585.791666 258.653984 
L 488.568377 260.020044 
L 488.833937 260.111399 
L 488.925215 260.600943 
L 488.950106 260.536602 
L 488.957563 260.561623 
L 488.99137 260.475836 
L 489.049545 260.490134 
L 489.054203 260.475836 
L 489.05533 260.482985 
L 489.656964 260.461538 
L 585.796689 259.299831 
L 490.049999 260.562308 
L 490.094408 260.826017 
L 490.160761 260.643719 
L 490.189147 260.536484 
L 490.190434 260.49359 
L 490.198575 260.518612 
L 585.797008 259.66431 
L 490.214772 260.443548 
L 490.225694 260.314866 
L 490.25076 260.322015 
L 585.797763 259.660735 
L 497.619088 260.49359 
L 585.807953 259.639289 
L 497.858878 260.600825 
L 497.982477 260.676684 
L 585.808543 260.765387 
L 498.117107 261.977838 
L 498.460631 261.977838 
L 585.808987 262.004151 
L 498.460879 263.305918 
L 498.539154 263.397446 
L 498.612421 263.869961 
L 498.612698 263.866386 
L 499.326461 263.705534 
L 499.326686 263.709109 
L 499.365237 263.580427 
L 499.338933 263.73413 
L 499.438417 263.684087 
L 499.514399 263.416001 
L 499.453535 263.744854 
L 499.587387 263.448171 
L 499.66007 263.723407 
L 499.667778 263.659066 
L 585.810756 262.643912 
L 499.675814 263.726981 
L 499.73318 263.858778 
L 499.757676 263.612138 
L 499.783598 263.672905 
L 499.797523 263.719373 
L 499.806903 263.705075 
L 499.914716 263.665756 
L 585.81293 262.797156 
L 507.476329 263.483457 
L 507.506338 263.472733 
L 507.551777 263.522776 
L 507.587135 263.490606 
L 507.614807 263.426265 
L 507.673577 263.554947 
L 507.694403 263.515627 
L 507.716975 263.529925 
L 507.776097 263.340478 
L 507.794172 263.397669 
L 507.816788 263.340478 
L 507.870843 263.440563 
L 507.903259 263.408393 
L 507.936194 263.376222 
L 508.033593 263.60786 
L 508.071386 263.696541 
L 508.168105 263.910608 
L 508.968548 264.032442 
L 509.082303 264.087963 
L 509.217546 264.187282 
L 509.363702 265.150716 
L 518.343285 265.238816 
L 518.491496 266.020138 
L 518.492626 266.016563 
L 518.531298 266.155445 
L 518.495821 265.987968 
L 518.606763 266.076806 
L 518.647245 266.041061 
L 518.662108 266.141147 
L 518.707233 266.116125 
L 518.715078 266.105402 
L 518.919107 266.489133 
L 612.296313 266.515511 
L 545.409821 267.756606 
L 545.618297 267.756606 
L 612.297773 267.782986 
L 545.618669 269.149127 
L 545.700984 269.149127 
L 612.29902 269.175514 
L 545.708059 270.563098 
L 546.102395 270.63954 
L 612.299975 270.66592 
L 546.104464 272.064215 
L 546.235143 272.144895 
L 546.244205 272.207027 
L 546.346053 272.178431 
L 546.391845 272.164133 
L 546.36912 272.189154 
L 546.394195 272.171282 
L 546.994204 272.160558 
L 612.302765 270.873744 
L 547.035772 272.053324 
L 547.078023 272.039026 
L 547.118157 272.124814 
L 547.118371 272.121239 
L 547.155931 272.131963 
L 547.202933 272.049749 
L 547.226797 272.067622 
L 547.267835 272.135537 
L 547.340303 272.085494 
L 547.418927 271.974685 
L 547.36474 272.11409 
L 547.458021 272.08192 
L 547.502762 272.042601 
L 547.569463 272.249999 
L 612.304239 272.276374 
L 547.572784 273.585346 
L 547.708217 273.585346 
L 612.304778 273.611726 
L 554.960153 274.99573 
L 554.961986 274.99573 
L 612.305148 275.014963 
L 554.963668 276.391827 
L 612.309706 276.407485 
L 554.966797 277.777206 
L 612.329742 277.803593 
L 554.969234 279.159023 
L 612.342578 279.149664 
L 554.970484 280.544409 
L 612.34481 280.570811 
L 554.971306 281.954837 
L 554.973345 281.954837 
L 612.345289 281.981239 
L 554.973798 283.36884 
L 554.982386 283.36884 
L 612.345499 283.395241 
L 554.98326 284.789985 
L 555.086116 284.789985 
L 612.347548 284.816388 
L 555.087061 286.157544 
L 555.08825 286.157544 
L 612.347667 286.183948 
L 555.088397 287.525105 
L 555.091945 287.525105 
L 612.348121 287.551508 
L 555.092186 288.892664 
L 555.135533 288.892664 
L 612.349259 288.919068 
L 555.136531 290.23879 
L 555.154859 290.23879 
L 612.349711 290.265192 
L 555.156655 291.563475 
L 555.400071 291.651597 
L 555.445253 291.879447 
L 555.445449 291.872298 
L 612.352792 290.678421 
L 555.495398 291.960433 
L 555.606445 292.01919 
L 555.668837 292.129567 
L 555.783518 292.320147 
L 555.838853 292.419827 
L 555.887844 292.566753 
L 555.949588 292.531008 
L 556.552932 292.541731 
L 612.385986 291.274389 
L 564.521923 292.350309 
L 612.41318 291.310134 
L 565.507465 292.431728 
L 612.41469 292.458192 
L 566.108332 293.556465 
L 612.414926 293.582927 
L 566.108671 294.674052 
L 566.177496 294.674052 
L 612.415942 294.700513 
L 566.179866 295.805927 
L 566.572532 295.889962 
L 566.664432 296.10003 
L 566.688537 296.082158 
L 566.698863 296.060711 
L 566.701028 296.064286 
L 574.074107 295.846242 
L 612.436598 295.009813 
L 574.833638 295.937618 
L 574.834464 295.996826 
L 574.840699 295.982528 
L 612.438879 295.128226 
L 574.927306 296.012139 
L 612.439445 296.038605 
L 574.927763 296.915372 
L 574.960448 296.9935 
L 612.439802 296.160645 
L 574.961802 297.059881 
L 574.998427 297.103788 
L 612.440567 297.133821 
L 575.048268 297.985571 
L 575.061305 297.985571 
L 612.441023 298.012029 
L 575.662449 298.874499 
L 612.441482 298.900964 
L 575.663598 299.770586 
L 612.44173 299.797044 
L 575.665224 300.659514 
L 575.685406 300.741255 
L 575.690602 300.833714 
L 612.442844 300.860173 
L 575.693547 301.708351 
L 575.799871 301.708351 
L 612.4433 301.734808 
L 575.803608 302.579412 
L 576.054419 302.679035 
L 576.258461 303.496864 
L 612.44398 303.523323 
L 583.6262 304.320433 
L 612.446546 303.519748 
L 583.635152 304.367929 
L 612.447281 304.394383 
L 583.637518 305.198642 
L 612.451687 304.38366 
L 583.638622 305.221122 
L 612.452376 305.24757 
L 583.63922 306.060011 
L 583.714147 306.060011 
L 612.453766 306.086467 
L 583.715764 306.920353 
L 583.78417 306.920353 
L 612.454304 306.946803 
L 583.786006 307.762818 
L 583.804089 307.762818 
L 612.795325 307.689191 
L 612.884916 307.599829 
L 612.908116 307.667744 
L 612.941729 307.692765 
L 613.011166 307.614127 
L 613.013199 307.614127 
L 613.036887 307.59268 
L 613.032047 307.653446 
L 613.119842 307.617701 
L 613.137023 307.657021 
L 613.175787 307.539063 
L 613.192802 307.539063 
L 613.26918 307.353189 
L 613.213049 307.553361 
L 613.288378 307.406807 
L 613.920449 307.278125 
L 613.927936 307.231657 
L 614.006716 307.324594 
L 614.030122 307.306721 
L 614.193182 307.195912 
L 614.300064 306.977869 
L 614.304334 306.999316 
L 614.321944 307.117274 
L 614.390338 306.791995 
L 614.399037 306.834889 
L 614.403937 306.881358 
L 614.482351 306.58825 
L 622.122686 306.688335 
L 622.230701 306.731229 
L 622.184913 306.656165 
L 622.234481 306.727655 
L 622.243031 306.713357 
L 622.285557 307.02678 
L 622.328857 307.02678 
L 622.636364 307.02678 
L 622.636364 307.02678 
" clip-path="url(#p038791185d)" style="fill: none; stroke: #0000ff; stroke-width: 1.5; stroke-linecap: square"/>
   </g>
   <g id="patch_3">
    <path d="M 90 320.4 
L 90 43.2 
" style="fill: none; stroke: #000000; stroke-width: 0.8; stroke-linejoin: miter; stroke-linecap: square"/>
   </g>
   <g id="patch_4">
    <path d="M 648 320.4 
L 648 43.2 
" style="fill: none; stroke: #000000; stroke-width: 0.8; stroke-linejoin: miter; stroke-linecap: square"/>
   </g>
   <g id="patch_5">
    <path d="M 90 320.4 
L 648 320.4 
" style="fill: none; stroke: #000000; stroke-width: 0.8; stroke-linejoin: miter; stroke-linecap: square"/>
   </g>
   <g id="patch_6">
    <path d="M 90 43.2 
L 648 43.2 
" style="fill: none; stroke: #000000; stroke-width: 0.8; stroke-linejoin: miter; stroke-linecap: square"/>
   </g>
   <g id="text_19">
    <!-- Holding Period Return Over Time -->
    <g transform="translate(270.705938 37.2) scale(0.12 -0.12)">
     <defs>
      <path id="DejaVuSans-4f" d="M 2522 4238 
Q 1834 4238 1429 3725 
Q 1025 3213 1025 2328 
Q 1025 1447 1429 934 
Q 1834 422 2522 422 
Q 3209 422 3611 934 
Q 4013 1447 4013 2328 
Q 4013 3213 3611 3725 
Q 3209 4238 2522 4238 
z
M 2522 4750 
Q 3503 4750 4090 4092 
Q 4678 3434 4678 2328 
Q 4678 1225 4090 567 
Q 3503 -91 2522 -91 
Q 1538 -91 948 565 
Q 359 1222 359 2328 
Q 359 3434 948 4092 
Q 1538 4750 2522 4750 
z
" transform="scale(0.015625)"/>
      <path id="DejaVuSans-76" d="M 191 3500 
L 800 3500 
L 1894 563 
L 2988 3500 
L 3597 3500 
L 2284 0 
L 1503 0 
L 191 3500 
z
" transform="scale(0.015625)"/>
     </defs>
     <use xlink:href="#DejaVuSans-48"/>
     <use xlink:href="#DejaVuSans-6f" transform="translate(75.195312 0)"/>
     <use xlink:href="#DejaVuSans-6c" transform="translate(136.376953 0)"/>
     <use xlink:href="#DejaVuSans-64" transform="translate(164.160156 0)"/>
     <use xlink:href="#DejaVuSans-69" transform="translate(227.636719 0)"/>
     <use xlink:href="#DejaVuSans-6e" transform="translate(255.419922 0)"/>
     <use xlink:href="#DejaVuSans-67" transform="translate(318.798828 0)"/>
     <use xlink:href="#DejaVuSans-20" transform="translate(382.275391 0)"/>
     <use xlink:href="#DejaVuSans-50" transform="translate(414.0625 0)"/>
     <use xlink:href="#DejaVuSans-65" transform="translate(470.740234 0)"/>
     <use xlink:href="#DejaVuSans-72" transform="translate(532.263672 0)"/>
     <use xlink:href="#DejaVuSans-69" transform="translate(573.376953 0)"/>
     <use xlink:href="#DejaVuSans-6f" transform="translate(601.160156 0)"/>
     <use xlink:href="#DejaVuSans-64" transform="translate(662.341797 0)"/>
     <use xlink:href="#DejaVuSans-20" transform="translate(725.818359 0)"/>
     <use xlink:href="#DejaVuSans-52" transform="translate(757.605469 0)"/>
     <use xlink:href="#DejaVuSans-65" transform="translate(822.587891 0)"/>
     <use xlink:href="#DejaVuSans-74" transform="translate(884.111328 0)"/>
     <use xlink:href="#DejaVuSans-75" transform="translate(923.320312 0)"/>
     <use xlink:href="#DejaVuSans-72" transform="translate(986.699219 0)"/>
     <use xlink:href="#DejaVuSans-6e" transform="translate(1026.0625 0)"/>
     <use xlink:href="#DejaVuSans-20" transform="translate(1089.441406 0)"/>
     <use xlink:href="#DejaVuSans-4f" transform="translate(1121.228516 0)"/>
     <use xlink:href="#DejaVuSans-76" transform="translate(1199.939453 0)"/>
     <use xlink:href="#DejaVuSans-65" transform="translate(1259.119141 0)"/>
     <use xlink:href="#DejaVuSans-72" transform="translate(1320.642578 0)"/>
     <use xlink:href="#DejaVuSans-20" transform="translate(1361.755859 0)"/>
     <use xlink:href="#DejaVuSans-54" transform="translate(1393.542969 0)"/>
     <use xlink:href="#DejaVuSans-69" transform="translate(1451.501953 0)"/>
     <use xlink:href="#DejaVuSans-6d" transform="translate(1479.285156 0)"/>
     <use xlink:href="#DejaVuSans-65" transform="translate(1576.697266 0)"/>
    </g>
   </g>
  </g>
 </g>
 <defs>
  <clipPath id="p038791185d">
   <rect x="90" y="43.2" width="558" height="277.2"/>
  </clipPath>
 </defs>
</svg>
