<?xml version="1.0" encoding="utf-8" standalone="no"?>
<!DOCTYPE svg PUBLIC "-//W3C//DTD SVG 1.1//EN"
  "http://www.w3.org/Graphics/SVG/1.1/DTD/svg11.dtd">
<svg xmlns:xlink="http://www.w3.org/1999/xlink" width="864pt" height="432pt" viewBox="0 0 864 432" xmlns="http://www.w3.org/2000/svg" version="1.1">
 <metadata>
  <rdf:RDF xmlns:dc="http://purl.org/dc/elements/1.1/" xmlns:cc="http://creativecommons.org/ns#" xmlns:rdf="http://www.w3.org/1999/02/22-rdf-syntax-ns#">
   <cc:Work>
    <dc:type rdf:resource="http://purl.org/dc/dcmitype/StillImage"/>
    <dc:date>2026-05-13T23:36:19.022892</dc:date>
    <dc:format>image/svg+xml</dc:format>
    <dc:creator>
     <cc:Agent>
      <dc:title>Matplotlib v3.10.9, https://matplotlib.org/</dc:title>
     </cc:Agent>
    </dc:creator>
   </cc:Work>
  </rdf:RDF>
 </metadata>
 <defs>
  <style type="text/css">*{stroke-linejoin: round; stroke-linecap: butt}</style>
 </defs>
 <g id="figure_1">
  <g id="patch_1">
   <path d="M 0 432 
L 864 432 
L 864 0 
L 0 0 
z
" style="fill: #ffffff"/>
  </g>
  <g id="axes_1">
   <g id="patch_2">
    <path d="M 71.57 342.610464 
L 853.2 342.610464 
L 853.2 29.4 
L 71.57 29.4 
z
" style="fill: #ffffff"/>
   </g>
   <g id="matplotlib.axis_1">
    <g id="xtick_1">
     <g id="line2d_1">
      <path d="M 164.269277 342.610464 
L 164.269277 29.4 
" clip-path="url(#p6d96ea4de9)" style="fill: none; stroke-dasharray: 2.96,1.28; stroke-dashoffset: 0; stroke: #b0b0b0; stroke-opacity: 0.6; stroke-width: 0.8"/>
     </g>
     <g id="line2d_2">
      <defs>
       <path id="m87dba76629" d="M 0 0 
L 0 3.5 
" style="stroke: #000000; stroke-width: 0.8"/>
      </defs>
      <g>
       <use xlink:href="#m87dba76629" x="164.269277" y="342.610464" style="stroke: #000000; stroke-width: 0.8"/>
      </g>
     </g>
     <g id="text_1">
      <!-- 1970-01-19 21:55 -->
      <g transform="translate(85.189719 401.247154) rotate(-30) scale(0.1 -0.1)">
       <defs>
        <path id="DejaVuSans-31" d="M 794 531 
L 1825 531 
L 1825 4091 
L 703 3866 
L 703 4441 
L 1819 4666 
L 2450 4666 
L 2450 531 
L 3481 531 
L 3481 0 
L 794 0 
L 794 531 
z
" transform="scale(0.015625)"/>
        <path id="DejaVuSans-39" d="M 703 97 
L 703 672 
Q 941 559 1184 500 
Q 1428 441 1663 441 
Q 2288 441 2617 861 
Q 2947 1281 2994 2138 
Q 2813 1869 2534 1725 
Q 2256 1581 1919 1581 
Q 1219 1581 811 2004 
Q 403 2428 403 3163 
Q 403 3881 828 4315 
Q 1253 4750 1959 4750 
Q 2769 4750 3195 4129 
Q 3622 3509 3622 2328 
Q 3622 1225 3098 567 
Q 2575 -91 1691 -91 
Q 1453 -91 1209 -44 
Q 966 3 703 97 
z
M 1959 2075 
Q 2384 2075 2632 2365 
Q 2881 2656 2881 3163 
Q 2881 3666 2632 3958 
Q 2384 4250 1959 4250 
Q 1534 4250 1286 3958 
Q 1038 3666 1038 3163 
Q 1038 2656 1286 2365 
Q 1534 2075 1959 2075 
z
" transform="scale(0.015625)"/>
        <path id="DejaVuSans-37" d="M 525 4666 
L 3525 4666 
L 3525 4397 
L 1831 0 
L 1172 0 
L 2766 4134 
L 525 4134 
L 525 4666 
z
" transform="scale(0.015625)"/>
        <path id="DejaVuSans-30" d="M 2034 4250 
Q 1547 4250 1301 3770 
Q 1056 3291 1056 2328 
Q 1056 1369 1301 889 
Q 1547 409 2034 409 
Q 2525 409 2770 889 
Q 3016 1369 3016 2328 
Q 3016 3291 2770 3770 
Q 2525 4250 2034 4250 
z
M 2034 4750 
Q 2819 4750 3233 4129 
Q 3647 3509 3647 2328 
Q 3647 1150 3233 529 
Q 2819 -91 2034 -91 
Q 1250 -91 836 529 
Q 422 1150 422 2328 
Q 422 3509 836 4129 
Q 1250 4750 2034 4750 
z
" transform="scale(0.015625)"/>
        <path id="DejaVuSans-2d" d="M 313 2009 
L 1997 2009 
L 1997 1497 
L 313 1497 
L 313 2009 
z
" transform="scale(0.015625)"/>
        <path id="DejaVuSans-20" transform="scale(0.015625)"/>
        <path id="DejaVuSans-32" d="M 1228 531 
L 3431 531 
L 3431 0 
L 469 0 
L 469 531 
Q 828 903 1448 1529 
Q 2069 2156 2228 2338 
Q 2531 2678 2651 2914 
Q 2772 3150 2772 3378 
Q 2772 3750 2511 3984 
Q 2250 4219 1831 4219 
Q 1534 4219 1204 4116 
Q 875 4013 500 3803 
L 500 4441 
Q 881 4594 1212 4672 
Q 1544 4750 1819 4750 
Q 2544 4750 2975 4387 
Q 3406 4025 3406 3419 
Q 3406 3131 3298 2873 
Q 3191 2616 2906 2266 
Q 2828 2175 2409 1742 
Q 1991 1309 1228 531 
z
" transform="scale(0.015625)"/>
        <path id="DejaVuSans-3a" d="M 750 794 
L 1409 794 
L 1409 0 
L 750 0 
L 750 794 
z
M 750 3309 
L 1409 3309 
L 1409 2516 
L 750 2516 
L 750 3309 
z
" transform="scale(0.015625)"/>
        <path id="DejaVuSans-35" d="M 691 4666 
L 3169 4666 
L 3169 4134 
L 1269 4134 
L 1269 2991 
Q 1406 3038 1543 3061 
Q 1681 3084 1819 3084 
Q 2600 3084 3056 2656 
Q 3513 2228 3513 1497 
Q 3513 744 3044 326 
Q 2575 -91 1722 -91 
Q 1428 -91 1123 -41 
Q 819 9 494 109 
L 494 744 
Q 775 591 1075 516 
Q 1375 441 1709 441 
Q 2250 441 2565 725 
Q 2881 1009 2881 1497 
Q 2881 1984 2565 2268 
Q 2250 2553 1709 2553 
Q 1456 2553 1204 2497 
Q 953 2441 691 2322 
L 691 4666 
z
" transform="scale(0.015625)"/>
       </defs>
       <use xlink:href="#DejaVuSans-31"/>
       <use xlink:href="#DejaVuSans-39" transform="translate(63.623047 0)"/>
       <use xlink:href="#DejaVuSans-37" transform="translate(127.246094 0)"/>
       <use xlink:href="#DejaVuSans-30" transform="translate(190.869141 0)"/>
       <use xlink:href="#DejaVuSans-2d" transform="translate(254.492188 0)"/>
       <use xlink:href="#DejaVuSans-30" transform="translate(290.576172 0)"/>
       <use xlink:href="#DejaVuSans-31" transform="translate(354.199219 0)"/>
       <use xlink:href="#DejaVuSans-2d" transform="translate(417.822266 0)"/>
       <use xlink:href="#DejaVuSans-31" transform="translate(453.90625 0)"/>
       <use xlink:href="#DejaVuSans-39" transform="translate(517.529297 0)"/>
       <use xlink:href="#DejaVuSans-20" transform="translate(581.152344 0)"/>
       <use xlink:href="#DejaVuSans-32" transform="translate(612.939453 0)"/>
       <use xlink:href="#DejaVuSans-31" transform="translate(676.5625 0)"/>
       <use xlink:href="#DejaVuSans-3a" transform="translate(740.185547 0)"/>
       <use xlink:href="#DejaVuSans-35" transform="translate(773.876953 0)"/>
       <use xlink:href="#DejaVuSans-35" transform="translate(837.5 0)"/>
      </g>
     </g>
    </g>
    <g id="xtick_2">
     <g id="line2d_3">
      <path d="M 433.680855 342.610464 
L 433.680855 29.4 
" clip-path="url(#p6d96ea4de9)" style="fill: none; stroke-dasharray: 2.96,1.28; stroke-dashoffset: 0; stroke: #b0b0b0; stroke-opacity: 0.6; stroke-width: 0.8"/>
     </g>
     <g id="line2d_4">
      <g>
       <use xlink:href="#m87dba76629" x="433.680855" y="342.610464" style="stroke: #000000; stroke-width: 0.8"/>
      </g>
     </g>
     <g id="text_2">
      <!-- 1970-01-19 22:00 -->
      <g transform="translate(354.601297 401.247154) rotate(-30) scale(0.1 -0.1)">
       <use xlink:href="#DejaVuSans-31"/>
       <use xlink:href="#DejaVuSans-39" transform="translate(63.623047 0)"/>
       <use xlink:href="#DejaVuSans-37" transform="translate(127.246094 0)"/>
       <use xlink:href="#DejaVuSans-30" transform="translate(190.869141 0)"/>
       <use xlink:href="#DejaVuSans-2d" transform="translate(254.492188 0)"/>
       <use xlink:href="#DejaVuSans-30" transform="translate(290.576172 0)"/>
       <use xlink:href="#DejaVuSans-31" transform="translate(354.199219 0)"/>
       <use xlink:href="#DejaVuSans-2d" transform="translate(417.822266 0)"/>
       <use xlink:href="#DejaVuSans-31" transform="translate(453.90625 0)"/>
       <use xlink:href="#DejaVuSans-39" transform="translate(517.529297 0)"/>
       <use xlink:href="#DejaVuSans-20" transform="translate(581.152344 0)"/>
       <use xlink:href="#DejaVuSans-32" transform="translate(612.939453 0)"/>
       <use xlink:href="#DejaVuSans-32" transform="translate(676.5625 0)"/>
       <use xlink:href="#DejaVuSans-3a" transform="translate(740.185547 0)"/>
       <use xlink:href="#DejaVuSans-30" transform="translate(773.876953 0)"/>
       <use xlink:href="#DejaVuSans-30" transform="translate(837.5 0)"/>
      </g>
     </g>
    </g>
    <g id="xtick_3">
     <g id="line2d_5">
      <path d="M 703.092434 342.610464 
L 703.092434 29.4 
" clip-path="url(#p6d96ea4de9)" style="fill: none; stroke-dasharray: 2.96,1.28; stroke-dashoffset: 0; stroke: #b0b0b0; stroke-opacity: 0.6; stroke-width: 0.8"/>
     </g>
     <g id="line2d_6">
      <g>
       <use xlink:href="#m87dba76629" x="703.092434" y="342.610464" style="stroke: #000000; stroke-width: 0.8"/>
      </g>
     </g>
     <g id="text_3">
      <!-- 1970-01-19 22:05 -->
      <g transform="translate(624.012876 401.247154) rotate(-30) scale(0.1 -0.1)">
       <use xlink:href="#DejaVuSans-31"/>
       <use xlink:href="#DejaVuSans-39" transform="translate(63.623047 0)"/>
       <use xlink:href="#DejaVuSans-37" transform="translate(127.246094 0)"/>
       <use xlink:href="#DejaVuSans-30" transform="translate(190.869141 0)"/>
       <use xlink:href="#DejaVuSans-2d" transform="translate(254.492188 0)"/>
       <use xlink:href="#DejaVuSans-30" transform="translate(290.576172 0)"/>
       <use xlink:href="#DejaVuSans-31" transform="translate(354.199219 0)"/>
       <use xlink:href="#DejaVuSans-2d" transform="translate(417.822266 0)"/>
       <use xlink:href="#DejaVuSans-31" transform="translate(453.90625 0)"/>
       <use xlink:href="#DejaVuSans-39" transform="translate(517.529297 0)"/>
       <use xlink:href="#DejaVuSans-20" transform="translate(581.152344 0)"/>
       <use xlink:href="#DejaVuSans-32" transform="translate(612.939453 0)"/>
       <use xlink:href="#DejaVuSans-32" transform="translate(676.5625 0)"/>
       <use xlink:href="#DejaVuSans-3a" transform="translate(740.185547 0)"/>
       <use xlink:href="#DejaVuSans-30" transform="translate(773.876953 0)"/>
       <use xlink:href="#DejaVuSans-35" transform="translate(837.5 0)"/>
      </g>
     </g>
    </g>
    <g id="text_4">
     <!-- Thời gian Thực tế -->
     <g transform="translate(410.290937 417.190091) scale(0.12 -0.12)">
      <defs>
       <path id="DejaVuSans-54" d="M -19 4666 
L 3928 4666 
L 3928 4134 
L 2272 4134 
L 2272 0 
L 1638 0 
L 1638 4134 
L -19 4134 
L -19 4666 
z
" transform="scale(0.015625)"/>
       <path id="DejaVuSans-68" d="M 3513 2113 
L 3513 0 
L 2938 0 
L 2938 2094 
Q 2938 2591 2744 2837 
Q 2550 3084 2163 3084 
Q 1697 3084 1428 2787 
Q 1159 2491 1159 1978 
L 1159 0 
L 581 0 
L 581 4863 
L 1159 4863 
L 1159 2956 
Q 1366 3272 1645 3428 
Q 1925 3584 2291 3584 
Q 2894 3584 3203 3211 
Q 3513 2838 3513 2113 
z
" transform="scale(0.015625)"/>
       <path id="DejaVuSans-1edd" d="M 1507 5119 
L 2388 3950 
L 1910 3950 
L 891 5119 
L 1507 5119 
z
M 2622 3136 
L 2622 3508 
Q 2813 3367 2950 3300 
Q 3088 3233 3185 3233 
Q 3328 3233 3400 3319 
Q 3472 3405 3472 3573 
Q 3472 3673 3448 3770 
Q 3425 3867 3378 3964 
L 3794 3964 
Q 3825 3845 3840 3739 
Q 3856 3633 3856 3539 
Q 3856 3158 3720 2978 
Q 3585 2798 3294 2798 
Q 3144 2798 2980 2881 
Q 2816 2964 2622 3136 
z
M 1975 3097 
Q 1513 3097 1244 2736 
Q 975 2375 975 1747 
Q 975 1119 1242 758 
Q 1510 397 1975 397 
Q 2435 397 2703 759 
Q 2972 1122 2972 1747 
Q 2972 2369 2703 2733 
Q 2435 3097 1975 3097 
z
M 1975 3584 
Q 2725 3584 3153 3096 
Q 3582 2609 3582 1747 
Q 3582 888 3153 398 
Q 2725 -91 1975 -91 
Q 1222 -91 795 398 
Q 369 888 369 1747 
Q 369 2609 795 3096 
Q 1222 3584 1975 3584 
z
" transform="scale(0.015625)"/>
       <path id="DejaVuSans-69" d="M 603 3500 
L 1178 3500 
L 1178 0 
L 603 0 
L 603 3500 
z
M 603 4863 
L 1178 4863 
L 1178 4134 
L 603 4134 
L 603 4863 
z
" transform="scale(0.015625)"/>
       <path id="DejaVuSans-67" d="M 2906 1791 
Q 2906 2416 2648 2759 
Q 2391 3103 1925 3103 
Q 1463 3103 1205 2759 
Q 947 2416 947 1791 
Q 947 1169 1205 825 
Q 1463 481 1925 481 
Q 2391 481 2648 825 
Q 2906 1169 2906 1791 
z
M 3481 434 
Q 3481 -459 3084 -895 
Q 2688 -1331 1869 -1331 
Q 1566 -1331 1297 -1286 
Q 1028 -1241 775 -1147 
L 775 -588 
Q 1028 -725 1275 -790 
Q 1522 -856 1778 -856 
Q 2344 -856 2625 -561 
Q 2906 -266 2906 331 
L 2906 616 
Q 2728 306 2450 153 
Q 2172 0 1784 0 
Q 1141 0 747 490 
Q 353 981 353 1791 
Q 353 2603 747 3093 
Q 1141 3584 1784 3584 
Q 2172 3584 2450 3431 
Q 2728 3278 2906 2969 
L 2906 3500 
L 3481 3500 
L 3481 434 
z
" transform="scale(0.015625)"/>
       <path id="DejaVuSans-61" d="M 2194 1759 
Q 1497 1759 1228 1600 
Q 959 1441 959 1056 
Q 959 750 1161 570 
Q 1363 391 1709 391 
Q 2188 391 2477 730 
Q 2766 1069 2766 1631 
L 2766 1759 
L 2194 1759 
z
M 3341 1997 
L 3341 0 
L 2766 0 
L 2766 531 
Q 2569 213 2275 61 
Q 1981 -91 1556 -91 
Q 1019 -91 701 211 
Q 384 513 384 1019 
Q 384 1609 779 1909 
Q 1175 2209 1959 2209 
L 2766 2209 
L 2766 2266 
Q 2766 2663 2505 2880 
Q 2244 3097 1772 3097 
Q 1472 3097 1187 3025 
Q 903 2953 641 2809 
L 641 3341 
Q 956 3463 1253 3523 
Q 1550 3584 1831 3584 
Q 2591 3584 2966 3190 
Q 3341 2797 3341 1997 
z
" transform="scale(0.015625)"/>
       <path id="DejaVuSans-6e" d="M 3513 2113 
L 3513 0 
L 2938 0 
L 2938 2094 
Q 2938 2591 2744 2837 
Q 2550 3084 2163 3084 
Q 1697 3084 1428 2787 
Q 1159 2491 1159 1978 
L 1159 0 
L 581 0 
L 581 3500 
L 1159 3500 
L 1159 2956 
Q 1366 3272 1645 3428 
Q 1925 3584 2291 3584 
Q 2894 3584 3203 3211 
Q 3513 2838 3513 2113 
z
" transform="scale(0.015625)"/>
       <path id="DejaVuSans-1ef1" d="M 3094 3136 
L 3094 3508 
Q 3285 3367 3422 3300 
Q 3560 3233 3657 3233 
Q 3800 3233 3872 3319 
Q 3944 3405 3944 3573 
Q 3944 3673 3920 3770 
Q 3897 3867 3850 3964 
L 4266 3964 
Q 4297 3845 4312 3739 
Q 4328 3633 4328 3539 
Q 4328 3158 4192 2978 
Q 4057 2798 3766 2798 
Q 3616 2798 3452 2881 
Q 3288 2964 3094 3136 
z
M 552 1381 
L 552 3500 
L 1127 3500 
L 1127 1403 
Q 1127 906 1320 657 
Q 1514 409 1902 409 
Q 2367 409 2637 706 
Q 2908 1003 2908 1516 
L 2908 3500 
L 3483 3500 
L 3483 0 
L 2908 0 
L 2908 538 
Q 2699 219 2422 64 
Q 2146 -91 1780 -91 
Q 1177 -91 864 284 
Q 552 659 552 1381 
z
M 1999 3584 
L 1999 3584 
z
M 1690 -441 
L 2265 -441 
L 2265 -1172 
L 1690 -1172 
L 1690 -441 
z
" transform="scale(0.015625)"/>
       <path id="DejaVuSans-63" d="M 3122 3366 
L 3122 2828 
Q 2878 2963 2633 3030 
Q 2388 3097 2138 3097 
Q 1578 3097 1268 2742 
Q 959 2388 959 1747 
Q 959 1106 1268 751 
Q 1578 397 2138 397 
Q 2388 397 2633 464 
Q 2878 531 3122 666 
L 3122 134 
Q 2881 22 2623 -34 
Q 2366 -91 2075 -91 
Q 1284 -91 818 406 
Q 353 903 353 1747 
Q 353 2603 823 3093 
Q 1294 3584 2113 3584 
Q 2378 3584 2631 3529 
Q 2884 3475 3122 3366 
z
" transform="scale(0.015625)"/>
       <path id="DejaVuSans-74" d="M 1172 4494 
L 1172 3500 
L 2356 3500 
L 2356 3053 
L 1172 3053 
L 1172 1153 
Q 1172 725 1289 603 
Q 1406 481 1766 481 
L 2356 481 
L 2356 0 
L 1766 0 
Q 1100 0 847 248 
Q 594 497 594 1153 
L 594 3053 
L 172 3053 
L 172 3500 
L 594 3500 
L 594 4494 
L 1172 4494 
z
" transform="scale(0.015625)"/>
       <path id="DejaVuSans-1ebf" d="M 1738 4775 
L 2326 4775 
L 2985 3944 
L 2551 3944 
L 2032 4500 
L 1513 3944 
L 1079 3944 
L 1738 4775 
z
M 3348 5409 
L 3926 5409 
L 3214 4584 
L 2735 4584 
L 3348 5409 
z
M 3597 1894 
L 3597 1613 
L 953 1613 
Q 991 1019 1311 708 
Q 1631 397 2203 397 
Q 2534 397 2845 478 
Q 3156 559 3463 722 
L 3463 178 
Q 3153 47 2828 -22 
Q 2503 -91 2169 -91 
Q 1331 -91 842 396 
Q 353 884 353 1716 
Q 353 2575 817 3079 
Q 1281 3584 2069 3584 
Q 2775 3584 3186 3129 
Q 3597 2675 3597 1894 
z
M 3022 2063 
Q 3016 2534 2758 2815 
Q 2500 3097 2075 3097 
Q 1594 3097 1305 2825 
Q 1016 2553 972 2059 
L 3022 2063 
z
" transform="scale(0.015625)"/>
      </defs>
      <use xlink:href="#DejaVuSans-54"/>
      <use xlink:href="#DejaVuSans-68" transform="translate(61.083984 0)"/>
      <use xlink:href="#DejaVuSans-1edd" transform="translate(124.462891 0)"/>
      <use xlink:href="#DejaVuSans-69" transform="translate(185.644531 0)"/>
      <use xlink:href="#DejaVuSans-20" transform="translate(213.427734 0)"/>
      <use xlink:href="#DejaVuSans-67" transform="translate(245.214844 0)"/>
      <use xlink:href="#DejaVuSans-69" transform="translate(308.691406 0)"/>
      <use xlink:href="#DejaVuSans-61" transform="translate(336.474609 0)"/>
      <use xlink:href="#DejaVuSans-6e" transform="translate(397.753906 0)"/>
      <use xlink:href="#DejaVuSans-20" transform="translate(461.132812 0)"/>
      <use xlink:href="#DejaVuSans-54" transform="translate(492.919922 0)"/>
      <use xlink:href="#DejaVuSans-68" transform="translate(554.003906 0)"/>
      <use xlink:href="#DejaVuSans-1ef1" transform="translate(617.382812 0)"/>
      <use xlink:href="#DejaVuSans-63" transform="translate(680.761719 0)"/>
      <use xlink:href="#DejaVuSans-20" transform="translate(735.742188 0)"/>
      <use xlink:href="#DejaVuSans-74" transform="translate(767.529297 0)"/>
      <use xlink:href="#DejaVuSans-1ebf" transform="translate(806.738281 0)"/>
     </g>
    </g>
   </g>
   <g id="matplotlib.axis_2">
    <g id="ytick_1">
     <g id="line2d_7">
      <path d="M 71.57 314.694235 
L 853.2 314.694235 
" clip-path="url(#p6d96ea4de9)" style="fill: none; stroke-dasharray: 2.96,1.28; stroke-dashoffset: 0; stroke: #b0b0b0; stroke-opacity: 0.6; stroke-width: 0.8"/>
     </g>
     <g id="line2d_8">
      <defs>
       <path id="m882a412dab" d="M 0 0 
L -3.5 0 
" style="stroke: #000000; stroke-width: 0.8"/>
      </defs>
      <g>
       <use xlink:href="#m882a412dab" x="71.57" y="314.694235" style="stroke: #000000; stroke-width: 0.8"/>
      </g>
     </g>
     <g id="text_5">
      <!-- −0.150 -->
      <g transform="translate(27.562188 318.493454) scale(0.1 -0.1)">
       <defs>
        <path id="DejaVuSans-2212" d="M 678 2272 
L 4684 2272 
L 4684 1741 
L 678 1741 
L 678 2272 
z
" transform="scale(0.015625)"/>
        <path id="DejaVuSans-2e" d="M 684 794 
L 1344 794 
L 1344 0 
L 684 0 
L 684 794 
z
" transform="scale(0.015625)"/>
       </defs>
       <use xlink:href="#DejaVuSans-2212"/>
       <use xlink:href="#DejaVuSans-30" transform="translate(83.789062 0)"/>
       <use xlink:href="#DejaVuSans-2e" transform="translate(147.412109 0)"/>
       <use xlink:href="#DejaVuSans-31" transform="translate(179.199219 0)"/>
       <use xlink:href="#DejaVuSans-35" transform="translate(242.822266 0)"/>
       <use xlink:href="#DejaVuSans-30" transform="translate(306.445312 0)"/>
      </g>
     </g>
    </g>
    <g id="ytick_2">
     <g id="line2d_9">
      <path d="M 71.57 272.772525 
L 853.2 272.772525 
" clip-path="url(#p6d96ea4de9)" style="fill: none; stroke-dasharray: 2.96,1.28; stroke-dashoffset: 0; stroke: #b0b0b0; stroke-opacity: 0.6; stroke-width: 0.8"/>
     </g>
     <g id="line2d_10">
      <g>
       <use xlink:href="#m882a412dab" x="71.57" y="272.772525" style="stroke: #000000; stroke-width: 0.8"/>
      </g>
     </g>
     <g id="text_6">
      <!-- −0.125 -->
      <g transform="translate(27.562188 276.571743) scale(0.1 -0.1)">
       <use xlink:href="#DejaVuSans-2212"/>
       <use xlink:href="#DejaVuSans-30" transform="translate(83.789062 0)"/>
       <use xlink:href="#DejaVuSans-2e" transform="translate(147.412109 0)"/>
       <use xlink:href="#DejaVuSans-31" transform="translate(179.199219 0)"/>
       <use xlink:href="#DejaVuSans-32" transform="translate(242.822266 0)"/>
       <use xlink:href="#DejaVuSans-35" transform="translate(306.445312 0)"/>
      </g>
     </g>
    </g>
    <g id="ytick_3">
     <g id="line2d_11">
      <path d="M 71.57 230.850814 
L 853.2 230.850814 
" clip-path="url(#p6d96ea4de9)" style="fill: none; stroke-dasharray: 2.96,1.28; stroke-dashoffset: 0; stroke: #b0b0b0; stroke-opacity: 0.6; stroke-width: 0.8"/>
     </g>
     <g id="line2d_12">
      <g>
       <use xlink:href="#m882a412dab" x="71.57" y="230.850814" style="stroke: #000000; stroke-width: 0.8"/>
      </g>
     </g>
     <g id="text_7">
      <!-- −0.100 -->
      <g transform="translate(27.562188 234.650033) scale(0.1 -0.1)">
       <use xlink:href="#DejaVuSans-2212"/>
       <use xlink:href="#DejaVuSans-30" transform="translate(83.789062 0)"/>
       <use xlink:href="#DejaVuSans-2e" transform="translate(147.412109 0)"/>
       <use xlink:href="#DejaVuSans-31" transform="translate(179.199219 0)"/>
       <use xlink:href="#DejaVuSans-30" transform="translate(242.822266 0)"/>
       <use xlink:href="#DejaVuSans-30" transform="translate(306.445312 0)"/>
      </g>
     </g>
    </g>
    <g id="ytick_4">
     <g id="line2d_13">
      <path d="M 71.57 188.929104 
L 853.2 188.929104 
" clip-path="url(#p6d96ea4de9)" style="fill: none; stroke-dasharray: 2.96,1.28; stroke-dashoffset: 0; stroke: #b0b0b0; stroke-opacity: 0.6; stroke-width: 0.8"/>
     </g>
     <g id="line2d_14">
      <g>
       <use xlink:href="#m882a412dab" x="71.57" y="188.929104" style="stroke: #000000; stroke-width: 0.8"/>
      </g>
     </g>
     <g id="text_8">
      <!-- −0.075 -->
      <g transform="translate(27.562188 192.728322) scale(0.1 -0.1)">
       <use xlink:href="#DejaVuSans-2212"/>
       <use xlink:href="#DejaVuSans-30" transform="translate(83.789062 0)"/>
       <use xlink:href="#DejaVuSans-2e" transform="translate(147.412109 0)"/>
       <use xlink:href="#DejaVuSans-30" transform="translate(179.199219 0)"/>
       <use xlink:href="#DejaVuSans-37" transform="translate(242.822266 0)"/>
       <use xlink:href="#DejaVuSans-35" transform="translate(306.445312 0)"/>
      </g>
     </g>
    </g>
    <g id="ytick_5">
     <g id="line2d_15">
      <path d="M 71.57 147.007393 
L 853.2 147.007393 
" clip-path="url(#p6d96ea4de9)" style="fill: none; stroke-dasharray: 2.96,1.28; stroke-dashoffset: 0; stroke: #b0b0b0; stroke-opacity: 0.6; stroke-width: 0.8"/>
     </g>
     <g id="line2d_16">
      <g>
       <use xlink:href="#m882a412dab" x="71.57" y="147.007393" style="stroke: #000000; stroke-width: 0.8"/>
      </g>
     </g>
     <g id="text_9">
      <!-- −0.050 -->
      <g transform="translate(27.562188 150.806612) scale(0.1 -0.1)">
       <use xlink:href="#DejaVuSans-2212"/>
       <use xlink:href="#DejaVuSans-30" transform="translate(83.789062 0)"/>
       <use xlink:href="#DejaVuSans-2e" transform="translate(147.412109 0)"/>
       <use xlink:href="#DejaVuSans-30" transform="translate(179.199219 0)"/>
       <use xlink:href="#DejaVuSans-35" transform="translate(242.822266 0)"/>
       <use xlink:href="#DejaVuSans-30" transform="translate(306.445312 0)"/>
      </g>
     </g>
    </g>
    <g id="ytick_6">
     <g id="line2d_17">
      <path d="M 71.57 105.085683 
L 853.2 105.085683 
" clip-path="url(#p6d96ea4de9)" style="fill: none; stroke-dasharray: 2.96,1.28; stroke-dashoffset: 0; stroke: #b0b0b0; stroke-opacity: 0.6; stroke-width: 0.8"/>
     </g>
     <g id="line2d_18">
      <g>
       <use xlink:href="#m882a412dab" x="71.57" y="105.085683" style="stroke: #000000; stroke-width: 0.8"/>
      </g>
     </g>
     <g id="text_10">
      <!-- −0.025 -->
      <g transform="translate(27.562188 108.884901) scale(0.1 -0.1)">
       <use xlink:href="#DejaVuSans-2212"/>
       <use xlink:href="#DejaVuSans-30" transform="translate(83.789062 0)"/>
       <use xlink:href="#DejaVuSans-2e" transform="translate(147.412109 0)"/>
       <use xlink:href="#DejaVuSans-30" transform="translate(179.199219 0)"/>
       <use xlink:href="#DejaVuSans-32" transform="translate(242.822266 0)"/>
       <use xlink:href="#DejaVuSans-35" transform="translate(306.445312 0)"/>
      </g>
     </g>
    </g>
    <g id="ytick_7">
     <g id="line2d_19">
      <path d="M 71.57 63.163972 
L 853.2 63.163972 
" clip-path="url(#p6d96ea4de9)" style="fill: none; stroke-dasharray: 2.96,1.28; stroke-dashoffset: 0; stroke: #b0b0b0; stroke-opacity: 0.6; stroke-width: 0.8"/>
     </g>
     <g id="line2d_20">
      <g>
       <use xlink:href="#m882a412dab" x="71.57" y="63.163972" style="stroke: #000000; stroke-width: 0.8"/>
      </g>
     </g>
     <g id="text_11">
      <!-- 0.000 -->
      <g transform="translate(35.941875 66.963191) scale(0.1 -0.1)">
       <use xlink:href="#DejaVuSans-30"/>
       <use xlink:href="#DejaVuSans-2e" transform="translate(63.623047 0)"/>
       <use xlink:href="#DejaVuSans-30" transform="translate(95.410156 0)"/>
       <use xlink:href="#DejaVuSans-30" transform="translate(159.033203 0)"/>
       <use xlink:href="#DejaVuSans-30" transform="translate(222.65625 0)"/>
      </g>
     </g>
    </g>
    <g id="text_12">
     <!-- Return (%) -->
     <g transform="translate(21.066563 218.204607) rotate(-90) scale(0.12 -0.12)">
      <defs>
       <path id="DejaVuSans-52" d="M 2841 2188 
Q 3044 2119 3236 1894 
Q 3428 1669 3622 1275 
L 4263 0 
L 3584 0 
L 2988 1197 
Q 2756 1666 2539 1819 
Q 2322 1972 1947 1972 
L 1259 1972 
L 1259 0 
L 628 0 
L 628 4666 
L 2053 4666 
Q 2853 4666 3247 4331 
Q 3641 3997 3641 3322 
Q 3641 2881 3436 2590 
Q 3231 2300 2841 2188 
z
M 1259 4147 
L 1259 2491 
L 2053 2491 
Q 2509 2491 2742 2702 
Q 2975 2913 2975 3322 
Q 2975 3731 2742 3939 
Q 2509 4147 2053 4147 
L 1259 4147 
z
" transform="scale(0.015625)"/>
       <path id="DejaVuSans-65" d="M 3597 1894 
L 3597 1613 
L 953 1613 
Q 991 1019 1311 708 
Q 1631 397 2203 397 
Q 2534 397 2845 478 
Q 3156 559 3463 722 
L 3463 178 
Q 3153 47 2828 -22 
Q 2503 -91 2169 -91 
Q 1331 -91 842 396 
Q 353 884 353 1716 
Q 353 2575 817 3079 
Q 1281 3584 2069 3584 
Q 2775 3584 3186 3129 
Q 3597 2675 3597 1894 
z
M 3022 2063 
Q 3016 2534 2758 2815 
Q 2500 3097 2075 3097 
Q 1594 3097 1305 2825 
Q 1016 2553 972 2059 
L 3022 2063 
z
" transform="scale(0.015625)"/>
       <path id="DejaVuSans-75" d="M 544 1381 
L 544 3500 
L 1119 3500 
L 1119 1403 
Q 1119 906 1312 657 
Q 1506 409 1894 409 
Q 2359 409 2629 706 
Q 2900 1003 2900 1516 
L 2900 3500 
L 3475 3500 
L 3475 0 
L 2900 0 
L 2900 538 
Q 2691 219 2414 64 
Q 2138 -91 1772 -91 
Q 1169 -91 856 284 
Q 544 659 544 1381 
z
M 1991 3584 
L 1991 3584 
z
" transform="scale(0.015625)"/>
       <path id="DejaVuSans-72" d="M 2631 2963 
Q 2534 3019 2420 3045 
Q 2306 3072 2169 3072 
Q 1681 3072 1420 2755 
Q 1159 2438 1159 1844 
L 1159 0 
L 581 0 
L 581 3500 
L 1159 3500 
L 1159 2956 
Q 1341 3275 1631 3429 
Q 1922 3584 2338 3584 
Q 2397 3584 2469 3576 
Q 2541 3569 2628 3553 
L 2631 2963 
z
" transform="scale(0.015625)"/>
       <path id="DejaVuSans-28" d="M 1984 4856 
Q 1566 4138 1362 3434 
Q 1159 2731 1159 2009 
Q 1159 1288 1364 580 
Q 1569 -128 1984 -844 
L 1484 -844 
Q 1016 -109 783 600 
Q 550 1309 550 2009 
Q 550 2706 781 3412 
Q 1013 4119 1484 4856 
L 1984 4856 
z
" transform="scale(0.015625)"/>
       <path id="DejaVuSans-25" d="M 4653 2053 
Q 4381 2053 4226 1822 
Q 4072 1591 4072 1178 
Q 4072 772 4226 539 
Q 4381 306 4653 306 
Q 4919 306 5073 539 
Q 5228 772 5228 1178 
Q 5228 1588 5073 1820 
Q 4919 2053 4653 2053 
z
M 4653 2450 
Q 5147 2450 5437 2106 
Q 5728 1763 5728 1178 
Q 5728 594 5436 251 
Q 5144 -91 4653 -91 
Q 4153 -91 3862 251 
Q 3572 594 3572 1178 
Q 3572 1766 3864 2108 
Q 4156 2450 4653 2450 
z
M 1428 4353 
Q 1159 4353 1004 4120 
Q 850 3888 850 3481 
Q 850 3069 1003 2837 
Q 1156 2606 1428 2606 
Q 1700 2606 1854 2837 
Q 2009 3069 2009 3481 
Q 2009 3884 1853 4118 
Q 1697 4353 1428 4353 
z
M 4250 4750 
L 4750 4750 
L 1831 -91 
L 1331 -91 
L 4250 4750 
z
M 1428 4750 
Q 1922 4750 2215 4408 
Q 2509 4066 2509 3481 
Q 2509 2891 2217 2550 
Q 1925 2209 1428 2209 
Q 931 2209 642 2551 
Q 353 2894 353 3481 
Q 353 4063 643 4406 
Q 934 4750 1428 4750 
z
" transform="scale(0.015625)"/>
       <path id="DejaVuSans-29" d="M 513 4856 
L 1013 4856 
Q 1481 4119 1714 3412 
Q 1947 2706 1947 2009 
Q 1947 1309 1714 600 
Q 1481 -109 1013 -844 
L 513 -844 
Q 928 -128 1133 580 
Q 1338 1288 1338 2009 
Q 1338 2731 1133 3434 
Q 928 4138 513 4856 
z
" transform="scale(0.015625)"/>
      </defs>
      <use xlink:href="#DejaVuSans-52"/>
      <use xlink:href="#DejaVuSans-65" transform="translate(64.982422 0)"/>
      <use xlink:href="#DejaVuSans-74" transform="translate(126.505859 0)"/>
      <use xlink:href="#DejaVuSans-75" transform="translate(165.714844 0)"/>
      <use xlink:href="#DejaVuSans-72" transform="translate(229.09375 0)"/>
      <use xlink:href="#DejaVuSans-6e" transform="translate(268.457031 0)"/>
      <use xlink:href="#DejaVuSans-20" transform="translate(331.835938 0)"/>
      <use xlink:href="#DejaVuSans-28" transform="translate(363.623047 0)"/>
      <use xlink:href="#DejaVuSans-25" transform="translate(402.636719 0)"/>
      <use xlink:href="#DejaVuSans-29" transform="translate(497.65625 0)"/>
     </g>
    </g>
   </g>
   <g id="line2d_21">
    <path d="M 107.098636 63.163972 
L 118.472323 63.163972 
L 119.350945 64.430008 
L 178.304905 59.064029 
L 178.343306 57.051787 
L 178.405599 57.722534 
L 178.421538 57.722534 
L 178.58397 60.237837 
L 178.644838 59.399402 
L 178.667808 58.393281 
L 178.684393 57.219473 
L 178.768965 57.722534 
L 178.792166 58.560968 
L 178.807914 57.219473 
L 178.82205 57.219473 
L 178.824387 56.381039 
L 178.930196 57.051787 
L 178.990979 55.039545 
L 179.068613 55.710292 
L 179.212494 57.38716 
L 179.237548 57.051787 
L 179.269995 57.051787 
L 179.375162 55.207231 
L 179.294807 57.38716 
L 179.402831 55.710292 
L 179.439766 54.704171 
L 179.454559 54.033423 
L 179.483123 55.039545 
L 179.530612 54.536484 
L 179.641684 55.207231 
L 179.562601 54.368797 
L 179.683036 55.039545 
L 179.803351 53.027302 
L 179.824492 53.69805 
L 179.996928 55.710292 
L 180.008146 55.710292 
L 180.117678 55.039545 
L 180.144312 55.374918 
L 180.180459 54.704171 
L 180.214469 54.871858 
L 180.25889 54.368797 
L 180.282943 55.207231 
L 180.324303 54.704171 
L 180.430548 55.374918 
L 180.439577 55.207231 
L 180.494972 54.20111 
L 180.552154 54.536484 
L 180.664912 55.207231 
L 180.763705 54.704171 
L 180.780498 55.039545 
L 180.803744 55.207231 
L 180.816679 54.704171 
L 180.819543 55.039545 
L 180.935591 51.01506 
L 180.98827 51.518121 
L 180.99005 51.853495 
L 181.060507 48.499758 
L 181.087286 49.338192 
L 181.225542 50.176626 
L 181.29189 49.338192 
L 181.23509 50.344313 
L 181.339154 49.841252 
L 181.432246 51.01506 
L 181.455459 50.679687 
L 181.608504 46.487516 
L 181.683984 46.822889 
L 181.75147 47.996697 
L 181.785209 47.661323 
L 181.832733 46.990576 
L 181.874255 48.164384 
L 181.877884 47.661323 
L 181.976753 48.332071 
L 181.980243 48.164384 
L 182.057 50.008939 
L 182.138306 49.170505 
L 182.251968 48.332071 
L 182.273498 48.499758 
L 182.3242 49.170505 
L 182.390939 48.835131 
L 182.452766 47.158263 
L 182.486333 48.499758 
L 182.511764 48.499758 
L 182.603021 47.82901 
L 182.605098 48.499758 
L 182.6394 48.164384 
L 182.671628 48.667445 
L 182.6829 48.667445 
L 182.702298 48.667445 
L 182.80114 47.32595 
L 182.871369 45.984455 
L 182.921072 46.487516 
L 182.970709 43.636839 
L 183.05971 44.64296 
L 183.194603 46.152142 
L 183.210125 45.146021 
L 183.269414 46.655202 
L 183.293393 46.487516 
L 183.309059 46.487516 
L 183.40254 47.158263 
L 183.427656 45.649081 
L 183.437083 45.481395 
L 183.476491 46.655202 
L 183.607454 48.499758 
L 183.706131 50.176626 
L 183.780022 49.170505 
L 183.848339 49.338192 
L 183.961434 53.362676 
L 183.96316 52.859616 
L 184.0369 51.350434 
L 184.056316 52.524242 
L 184.080261 53.194989 
L 184.090265 51.685808 
L 184.144799 51.853495 
L 184.223157 50.847373 
L 184.253612 51.853495 
L 184.328306 52.691929 
L 184.33852 51.350434 
L 184.357995 51.685808 
L 184.504223 48.835131 
L 184.506076 49.002818 
L 184.575762 50.847373 
L 184.619176 50.176626 
L 184.699779 51.853495 
L 184.703365 51.685808 
L 184.816176 53.628627 
L 194.302528 53.628627 
L 194.314509 54.898688 
L 194.407975 53.054132 
L 194.455007 50.203456 
L 194.530936 51.712638 
L 194.68756 57.341969 
L 194.711154 57.341969 
L 194.850332 63.930301 
L 195.296755 63.930301 
L 195.418577 73.222332 
L 195.609084 78.275156 
L 261.120857 78.275156 
L 261.172905 79.706782 
L 261.219719 78.1976 
L 261.228233 78.700661 
L 261.339693 78.029914 
L 261.252908 79.036035 
L 261.341495 78.365287 
L 261.348795 78.365287 
L 261.360874 78.029914 
L 261.396876 79.036035 
L 261.45701 78.365287 
L 261.565445 79.036035 
L 261.478734 77.862227 
L 261.569308 78.700661 
L 261.682685 76.520732 
L 261.634737 79.036035 
L 261.76381 77.526853 
L 261.908474 80.545216 
L 261.824646 77.359166 
L 261.923993 80.042156 
L 261.926962 79.706782 
L 261.964757 83.910272 
L 262.002463 83.574898 
L 262.140733 86.179159 
L 262.83041 86.179159 
L 262.846888 87.441757 
L 262.898566 87.106383 
L 263.074609 89.039561 
L 263.780943 89.039561 
L 263.802233 90.302243 
L 263.820748 87.116193 
L 263.856587 89.296122 
L 263.904567 85.774698 
L 263.954403 86.445445 
L 268.832217 84.433203 
L 268.911657 87.451567 
L 268.951931 85.774698 
L 268.991645 86.445445 
L 269.032919 85.271638 
L 269.03953 85.271638 
L 269.205352 81.079467 
L 269.084636 85.942385 
L 269.221786 81.917901 
L 269.239152 81.582527 
L 269.347113 83.259395 
L 269.356411 80.744093 
L 269.454995 82.420961 
L 269.496505 84.265517 
L 269.523205 82.085588 
L 269.561174 82.924022 
L 269.607831 81.917901 
L 269.615187 82.756335 
L 269.621768 81.079467 
L 269.729545 81.41484 
L 269.735949 80.408719 
L 269.807199 83.259395 
L 269.822617 83.259395 
L 269.87154 83.594769 
L 269.886196 83.091709 
L 269.998968 82.756335 
L 269.929875 83.930143 
L 270.001576 82.924022 
L 270.007925 82.924022 
L 270.066018 83.930143 
L 270.026554 81.41484 
L 270.098692 83.427082 
L 270.144603 81.582527 
L 270.21424 82.924022 
L 270.311768 85.103951 
L 270.38932 85.942385 
L 270.348029 84.768577 
L 270.423154 85.607011 
L 270.533318 84.60089 
L 270.587129 82.924022 
L 270.640251 81.917901 
L 270.690858 82.253274 
L 270.708264 82.756335 
L 270.780171 82.253274 
L 270.823611 81.079467 
L 270.884817 82.756335 
L 270.886562 82.253274 
L 271.008705 89.553689 
L 271.030574 89.553689 
L 271.0515 93.848987 
L 271.145668 93.010553 
L 271.146633 92.842866 
L 271.170755 95.113095 
L 271.240335 95.113095 
L 271.300562 95.113095 
L 271.407269 99.408812 
L 271.433896 97.899631 
L 271.716794 105.30443 
L 271.484781 97.061196 
L 271.743483 103.795248 
L 271.815578 95.24322 
L 271.880203 97.423148 
L 271.925276 99.770764 
L 272.011604 98.093896 
L 272.013102 97.926209 
L 272.083077 101.279946 
L 272.095965 100.609198 
L 272.106222 100.944572 
L 272.133122 99.603077 
L 272.19285 100.106138 
L 272.267448 101.447633 
L 272.501914 114.64509 
L 272.875755 114.64509 
L 273.008895 117.677623 
L 273.653899 117.677623 
L 333.491148 118.943659 
L 333.495621 119.782093 
L 333.593951 117.434477 
L 333.604759 117.937537 
L 333.683047 116.76373 
L 333.74146 114.416114 
L 333.792995 115.086861 
L 333.907613 116.596043 
L 333.939874 115.925295 
L 333.989968 116.428356 
L 334.003023 115.757609 
L 334.004283 116.260669 
L 334.100732 113.913053 
L 334.124369 114.416114 
L 334.248624 115.254548 
L 334.278663 114.416114 
L 334.277121 115.422235 
L 334.303532 115.254548 
L 334.384349 116.092982 
L 334.417042 115.422235 
L 334.488737 115.589922 
L 334.501114 114.919174 
L 334.502883 115.086861 
L 334.549996 112.571559 
L 334.657224 113.57768 
L 334.704435 113.913053 
L 334.711595 113.409993 
L 334.767113 113.409993 
L 334.820693 112.739245 
L 334.867623 113.409993 
L 335.032373 114.919174 
L 334.882408 113.242306 
L 335.047122 114.751487 
L 335.149219 115.086861 
L 335.088452 114.583801 
L 335.158656 114.919174 
L 335.209313 114.08074 
L 335.282358 114.416114 
L 335.30424 114.583801 
L 335.356696 113.074619 
L 335.449344 113.913053 
L 335.473397 113.913053 
L 335.551599 113.242306 
L 335.567709 113.57768 
L 335.648531 112.236185 
L 335.755545 110.559316 
L 335.998415 112.906932 
L 336.034848 112.571559 
L 336.039521 112.403872 
L 336.094686 113.074619 
L 336.131585 112.906932 
L 336.144621 112.906932 
L 336.173922 112.403872 
L 336.212465 113.074619 
L 336.231037 112.739245 
L 336.261564 112.739245 
L 336.275492 112.403872 
L 336.310747 113.745366 
L 336.34401 113.745366 
L 336.450215 112.068498 
L 336.509161 112.236185 
L 336.562803 111.900811 
L 336.683596 113.745366 
L 336.716704 112.403872 
L 336.784413 113.913053 
L 336.893325 115.589922 
L 336.850091 113.409993 
L 336.92841 115.254548 
L 336.944173 114.751487 
L 336.957098 115.925295 
L 337.03644 115.254548 
L 337.047744 115.254548 
L 337.184354 113.745366 
L 337.203143 113.745366 
L 337.296067 114.583801 
L 337.367318 114.248427 
L 337.449615 113.57768 
L 337.479303 113.913053 
L 337.495235 113.913053 
L 337.565099 114.583801 
L 337.591987 113.913053 
L 337.624352 112.906932 
L 337.667139 114.248427 
L 337.700081 113.745366 
L 337.728745 114.08074 
L 337.765844 111.900811 
L 337.768707 112.236185 
L 337.772733 111.565438 
L 337.794291 112.571559 
L 337.875752 112.236185 
L 337.882478 112.236185 
L 337.966197 113.242306 
L 337.906941 112.068498 
L 337.994714 113.074619 
L 338.002162 112.236185 
L 338.049147 113.242306 
L 338.106388 112.739245 
L 338.145259 113.409993 
L 338.199544 111.230064 
L 338.205261 110.727003 
L 338.273645 112.236185 
L 338.29849 112.236185 
L 338.345403 113.074619 
L 338.388053 112.068498 
L 338.406216 112.403872 
L 338.437665 111.900811 
L 338.478187 113.074619 
L 338.495765 113.074619 
L 338.515997 113.242306 
L 338.556417 112.236185 
L 338.576896 112.739245 
L 338.583322 112.571559 
L 338.605518 113.242306 
L 338.659334 113.074619 
L 338.720077 114.08074 
L 338.766186 113.57768 
L 338.85338 111.900811 
L 338.906898 112.739245 
L 338.926936 113.074619 
L 338.980749 112.403872 
L 338.997328 112.739245 
L 339.103196 111.565438 
L 339.160256 111.733124 
L 339.219257 112.906932 
L 339.258853 110.559316 
L 339.26729 107.876327 
L 339.362166 109.217822 
L 339.381662 109.385509 
L 339.398119 109.050135 
L 339.443639 107.876327 
L 339.498767 108.882448 
L 339.588054 110.559316 
L 339.614846 112.068498 
L 339.70447 111.397751 
L 339.708112 111.230064 
L 339.744126 112.571559 
L 339.780136 112.403872 
L 339.874992 114.583801 
L 339.914903 113.913053 
L 339.924404 113.745366 
L 339.951136 114.416114 
L 339.991699 114.08074 
L 340.529208 140.165099 
L 340.576958 140.165099 
L 340.793347 152.156637 
L 340.859358 152.156637 
L 341.133588 183.519023 
L 341.200381 182.848276 
L 341.225981 183.183649 
L 341.251523 182.177528 
L 341.278497 181.842155 
L 341.316256 182.848276 
L 341.364156 182.512902 
L 341.544063 188.930194 
L 346.448486 187.588699 
L 346.446452 187.085638 
L 346.538736 188.762507 
L 346.540596 188.091759 
L 346.593166 188.091759 
L 346.670588 188.59482 
L 346.696667 187.924072 
L 346.698453 188.091759 
L 346.703961 187.756386 
L 346.741937 190.199164 
L 346.766963 190.199164 
L 346.788893 190.199164 
L 346.857481 194.509554 
L 347.000587 207.607489 
L 347.148607 207.607489 
L 347.170284 208.876627 
L 347.25172 207.870506 
L 347.266663 207.870506 
L 347.270127 208.038193 
L 347.3201 206.193638 
L 347.355051 207.199759 
L 347.453894 206.696698 
L 347.399373 208.373567 
L 347.460379 206.864385 
L 347.477918 206.864385 
L 347.53128 206.361325 
L 347.609833 207.535133 
L 347.663386 206.696698 
L 347.712236 207.702819 
L 347.720475 207.367446 
L 347.786094 206.025951 
L 347.787915 206.529011 
L 347.804512 205.187517 
L 347.866405 208.038193 
L 348.099088 210.480971 
L 568.295474 210.480971 
L 568.303078 211.746588 
L 568.39718 210.908153 
L 568.483305 209.902032 
L 568.501131 210.57278 
L 568.623404 211.578901 
L 568.626464 210.908153 
L 568.709761 211.746588 
L 568.730799 211.243527 
L 568.736769 211.243527 
L 568.882732 223.379108 
L 568.748485 210.740467 
L 568.973336 222.540673 
L 569.040286 221.534552 
L 569.000545 222.70836 
L 569.108024 221.869926 
L 569.109525 222.2053 
L 569.203336 221.199179 
L 569.21628 221.366866 
L 569.273206 220.696118 
L 569.312778 221.702239 
L 569.323101 221.366866 
L 569.339114 221.031492 
L 569.451322 223.211421 
L 569.477852 222.70836 
L 569.538112 225.482571 
L 569.630772 227.083142 
L 569.638078 225.741648 
L 569.754758 224.064779 
L 569.810636 224.903213 
L 569.86619 224.232466 
L 569.95787 223.394032 
L 569.890724 224.56784 
L 569.982698 223.897092 
L 569.996552 224.232466 
L 570.071264 222.890971 
L 570.074992 223.058658 
L 570.104488 223.226345 
L 570.151619 222.387911 
L 570.254347 223.729405 
L 570.300865 222.890971 
L 570.361685 220.711042 
L 570.429359 220.878729 
L 570.55283 222.387911 
L 570.656856 220.040295 
L 570.689372 220.543355 
L 570.856204 217.524992 
L 570.922302 218.363427 
L 570.950449 218.866487 
L 570.969069 217.860366 
L 571.036508 218.531113 
L 571.0773 219.034174 
L 571.068125 218.363427 
L 571.130684 218.363427 
L 571.191508 216.686558 
L 571.22959 218.19574 
L 571.356603 219.704921 
L 571.367942 219.537234 
L 571.371928 218.866487 
L 571.457581 220.543355 
L 571.463154 220.543355 
L 571.52774 221.717163 
L 571.551456 220.878729 
L 571.640802 220.207982 
L 571.646118 220.375669 
L 571.743138 221.214103 
L 571.764079 220.878729 
L 571.858471 219.872608 
L 571.926284 220.878729 
L 571.988051 220.543355 
L 572.023911 219.201861 
L 572.087339 220.040295 
L 572.134808 220.543355 
L 572.163274 219.704921 
L 572.20132 220.207982 
L 572.222653 220.207982 
L 572.268242 220.040295 
L 572.336082 220.878729 
L 572.357276 220.375669 
L 572.368306 221.38179 
L 572.444035 220.543355 
L 572.451577 221.214103 
L 572.490665 220.375669 
L 572.548109 220.878729 
L 572.579925 219.872608 
L 572.647541 220.711042 
L 572.702101 222.387911 
L 572.763996 221.549477 
L 572.810333 220.207982 
L 572.901721 220.711042 
L 572.927485 220.375669 
L 572.961894 221.214103 
L 572.96439 221.214103 
L 572.968619 221.38179 
L 572.988061 220.543355 
L 573.060171 220.711042 
L 573.064943 220.711042 
L 573.089065 220.878729 
L 573.221094 219.704921 
L 573.226737 220.375669 
L 573.309869 219.201861 
L 573.314428 219.537234 
L 573.341335 218.531113 
L 573.426609 219.369548 
L 573.439569 219.369548 
L 573.481271 218.531113 
L 573.526295 220.040295 
L 573.544491 220.040295 
L 573.548541 220.040295 
L 573.651028 220.711042 
L 573.671738 220.207982 
L 573.673294 219.537234 
L 573.768505 222.387911 
L 573.773061 222.220224 
L 573.910949 220.711042 
L 573.915426 220.878729 
L 573.95087 221.38179 
L 573.985339 220.543355 
L 574.013886 220.711042 
L 574.322461 211.82364 
L 579.18279 210.482145 
L 579.219528 207.296095 
L 579.344423 208.805277 
L 579.437841 210.482145 
L 579.459333 210.314458 
L 579.513845 209.643711 
L 579.56569 209.811398 
L 579.677004 210.482145 
L 579.685837 210.314458 
L 579.778561 208.302216 
L 579.801482 209.643711 
L 579.872514 210.985205 
L 579.922019 210.649832 
L 579.993736 210.817519 
L 580.057984 210.146771 
L 580.145755 210.314458 
L 580.075128 209.643711 
L 580.168874 210.146771 
L 580.176163 209.979084 
L 580.233642 210.985205 
L 580.256915 210.482145 
L 580.286524 210.649832 
L 580.306098 210.146771 
L 580.388414 207.799155 
L 580.35108 210.482145 
L 580.435294 209.476024 
L 580.459946 209.476024 
L 580.483458 209.14065 
L 580.517582 210.817519 
L 580.622407 212.829761 
L 580.63588 212.662074 
L 580.696763 211.320579 
L 580.779356 211.991327 
L 580.786891 212.494387 
L 580.838615 210.817519 
L 580.877288 210.985205 
L 580.88278 210.985205 
L 580.946786 209.14065 
L 581.000813 210.314458 
L 581.128276 211.82364 
L 581.182496 211.655953 
L 581.259818 212.494387 
L 581.291732 210.482145 
L 581.304382 210.314458 
L 581.316657 210.817519 
L 581.322409 210.649832 
L 581.324467 211.655953 
L 581.406294 209.308337 
L 581.415517 209.308337 
L 581.55044 205.283853 
L 581.5612 205.9546 
L 581.65672 208.63759 
L 581.605941 205.786913 
L 581.672854 208.302216 
L 581.751658 209.476024 
L 581.77687 208.63759 
L 581.789735 208.302216 
L 581.825387 209.979084 
L 581.845092 209.643711 
L 581.953839 210.649832 
L 581.860326 209.14065 
L 581.954758 210.482145 
L 581.993524 211.320579 
L 582.03416 210.649832 
L 582.155316 208.805277 
L 582.155991 209.14065 
L 582.176303 209.643711 
L 582.219423 208.469903 
L 582.22262 208.469903 
L 582.239607 207.128408 
L 582.264631 209.643711 
L 582.294904 209.14065 
L 582.328215 209.308337 
L 582.421218 210.146771 
L 582.433617 209.643711 
L 582.482377 206.457661 
L 582.576095 207.631469 
L 582.648408 213.668195 
L 582.771606 217.789183 
L 649.553296 217.789183 
L 649.604825 219.556518 
L 649.650186 217.376589 
L 649.655574 217.376589 
L 649.663876 217.041216 
L 649.695184 218.215024 
L 649.748779 217.87965 
L 649.790012 218.885771 
L 649.843574 217.544276 
L 649.845478 217.711963 
L 649.847165 217.208903 
L 649.911061 218.885771 
L 649.939917 218.38271 
L 649.992931 215.867408 
L 650.092843 217.544276 
L 650.201211 218.215024 
L 650.106208 217.208903 
L 650.23762 218.047337 
L 650.253871 217.87965 
L 650.276756 218.718084 
L 650.280501 218.718084 
L 650.291467 219.221145 
L 650.34735 217.376589 
L 650.361497 217.544276 
L 650.393932 218.047337 
L 650.43822 217.208903 
L 650.441973 217.376589 
L 650.571857 214.6936 
L 650.57388 214.861287 
L 650.675829 215.699721 
L 650.71302 216.202782 
L 650.760049 214.525913 
L 650.855201 213.016732 
L 650.87446 213.184418 
L 650.997124 215.364347 
L 651.076399 214.358226 
L 651.095716 215.364347 
L 651.128053 216.202782 
L 651.110671 215.19666 
L 651.192578 215.699721 
L 651.243007 214.525913 
L 651.277259 215.699721 
L 651.293674 216.370468 
L 651.358352 215.364347 
L 651.387017 215.867408 
L 651.447932 210.836803 
L 651.487426 212.178297 
L 651.557411 213.184418 
L 651.600938 212.513671 
L 651.656219 211.004489 
L 651.698155 212.345984 
L 651.72615 212.513671 
L 651.73913 212.178297 
L 651.780734 212.345984 
L 651.855428 212.849045 
L 651.89149 211.172176 
L 651.895067 212.345984 
L 651.90829 211.339863 
L 656.791665 210.166055 
L 656.8905 211.339863 
L 656.915023 211.172176 
L 656.929921 211.172176 
L 657.028329 212.01061 
L 656.97202 209.998368 
L 657.042931 211.675237 
L 657.141664 211.339863 
L 657.050489 211.842924 
L 657.14738 211.675237 
L 657.156281 211.675237 
L 657.179817 212.681358 
L 657.272635 212.178297 
L 657.40073 212.849045 
L 657.33878 211.675237 
L 657.404865 212.681358 
L 657.407727 212.513671 
L 657.478918 214.6936 
L 657.480761 214.525913 
L 657.525982 215.364347 
L 657.484629 214.190539 
L 657.585902 214.525913 
L 657.605106 213.687479 
L 657.677559 214.861287 
L 657.683551 214.6936 
L 657.705765 216.035095 
L 657.788679 215.19666 
L 657.824524 214.525913 
L 657.928651 213.855166 
L 657.831038 215.028974 
L 657.937623 214.190539 
L 657.939609 214.022853 
L 658.034813 215.19666 
L 658.038146 214.6936 
L 658.068064 215.532034 
L 658.131126 214.190539 
L 658.136823 214.190539 
L 658.194972 212.01061 
L 658.255618 212.849045 
L 658.269352 212.681358 
L 658.301577 210.333742 
L 658.369988 210.836803 
L 658.474607 212.345984 
L 658.555764 212.849045 
L 658.499557 212.178297 
L 658.582593 212.513671 
L 658.648878 211.004489 
L 658.687738 212.01061 
L 658.756926 212.849045 
L 658.781675 212.178297 
L 658.805606 211.50755 
L 658.854529 213.016732 
L 658.861042 213.016732 
L 658.876574 213.687479 
L 658.963176 213.016732 
L 658.984337 212.345984 
L 659.057969 213.184418 
L 659.061645 213.016732 
L 659.286556 217.300879 
L 660.005356 217.300879 
L 660.143261 220.335591 
L 660.200472 220.335591 
L 660.21918 224.468904 
L 660.303011 222.456662 
L 660.334225 221.953602 
L 660.457447 223.965844 
L 660.466629 223.63047 
L 660.477959 223.295097 
L 660.519729 224.133531 
L 660.634335 228.770323 
L 661.608291 228.770323 
L 662.474675 230.036862 
L 721.436916 227.353873 
L 721.468428 227.52156 
L 721.583231 225.677004 
L 721.593189 226.012378 
L 721.74077 224.670883 
L 721.789136 225.006257 
L 721.793178 225.173944 
L 721.848524 223.497075 
L 721.855654 223.832449 
L 721.957969 224.33551 
L 721.959838 224.167823 
L 722.046448 222.994015 
L 722.060266 223.161702 
L 722.124613 223.329388 
L 722.230994 222.490954 
L 722.256568 222.994015 
L 722.292576 224.000136 
L 722.315487 223.832449 
L 722.398422 224.167823 
L 722.401323 224.000136 
L 722.556005 220.311025 
L 722.652193 220.981773 
L 722.748271 221.484833 
L 722.798903 220.646399 
L 722.812642 221.317146 
L 722.888206 221.484833 
L 723.026498 223.329388 
L 723.053396 222.826328 
L 723.077244 222.658641 
L 723.090859 223.329388 
L 723.09499 223.161702 
L 723.136107 223.832449 
L 723.209809 223.664762 
L 723.292801 222.994015 
L 723.304576 223.329388 
L 723.315938 224.167823 
L 723.326769 222.490954 
L 723.408493 223.161702 
L 723.430179 223.161702 
L 723.531168 222.658641 
L 723.434481 223.497075 
L 723.544164 222.826328 
L 723.547725 222.658641 
L 723.627171 223.832449 
L 723.635751 223.664762 
L 723.697297 224.83857 
L 723.790193 224.33551 
L 723.812876 224.000136 
L 723.88387 224.670883 
L 723.88479 224.503196 
L 723.950496 225.173944 
L 723.993428 224.33551 
L 723.995218 224.503196 
L 724.007276 224.670883 
L 724.029242 224.000136 
L 724.05777 224.167823 
L 724.09919 223.161702 
L 724.186764 223.664762 
L 724.207985 224.167823 
L 724.256842 222.994015 
L 724.287269 222.994015 
L 724.294595 223.329388 
L 724.320438 220.478712 
L 724.357434 221.317146 
L 724.413521 221.820207 
L 724.445883 220.981773 
L 724.449379 221.14946 
L 724.479745 219.807965 
L 724.569031 220.646399 
L 724.606742 221.484833 
L 724.648635 220.478712 
L 724.686808 220.981773 
L 724.791039 221.484833 
L 724.801072 221.317146 
L 724.895201 219.807965 
L 724.924704 220.478712 
L 724.98287 220.646399 
L 724.950504 220.311025 
L 724.984645 220.311025 
L 725.018721 219.640278 
L 725.06388 219.975652 
L 725.142762 219.304904 
L 725.149641 218.634157 
L 725.219768 219.975652 
L 725.250378 218.801844 
L 725.265065 218.801844 
L 725.404812 220.646399 
L 725.440315 220.478712 
L 725.473431 220.478712 
L 725.510983 220.143338 
L 725.578361 220.981773 
L 725.620479 220.143338 
L 725.697993 220.646399 
L 725.785723 221.484833 
L 725.948739 220.478712 
L 725.967546 221.14946 
L 726.003177 221.317146 
L 726.023303 220.478712 
L 726.069449 220.814086 
L 726.08223 220.646399 
L 726.150396 221.14946 
L 726.320281 222.155581 
L 726.446613 221.65252 
L 726.450048 221.987894 
L 726.546677 221.317146 
L 726.554309 221.484833 
L 726.557881 221.317146 
L 726.646569 221.820207 
L 726.649146 221.65252 
L 726.733892 221.317146 
L 726.779516 222.155581 
L 726.793231 221.987894 
L 726.823422 222.658641 
L 726.914034 223.497075 
L 727.046564 222.658641 
L 727.048576 222.826328 
L 727.206605 223.497075 
L 727.265287 222.658641 
L 727.308379 223.329388 
L 727.444934 225.006257 
L 727.482781 224.33551 
L 727.611518 222.826328 
L 727.660755 224.33551 
L 727.705904 223.664762 
L 727.749159 223.664762 
L 727.851601 221.987894 
L 727.761115 223.832449 
L 727.890546 222.323267 
L 727.963229 223.329388 
L 727.917995 222.155581 
L 727.971311 222.658641 
L 728.010954 222.826328 
L 728.029336 222.658641 
L 728.050624 222.323267 
L 728.106794 223.832449 
L 728.122304 223.497075 
L 728.141893 223.497075 
L 728.171188 223.329388 
L 728.194417 224.33551 
L 728.203474 224.167823 
L 728.352196 234.826921 
L 728.433204 233.8208 
L 728.473837 234.32386 
L 728.501358 234.156173 
L 728.508806 234.491547 
L 728.522628 234.491547 
L 728.673851 240.073758 
L 728.752989 239.235324 
L 728.762172 239.403011 
L 728.864613 238.89995 
L 729.02402 241.175964 
L 729.498643 241.175964 
L 729.502213 242.446359 
L 734.378598 241.607925 
L 734.505966 244.051961 
L 739.19414 244.051961 
L 799.026297 245.3159 
L 799.036065 245.651274 
L 799.05998 242.800598 
L 799.100436 244.477466 
L 799.110195 243.639032 
L 799.199673 244.309779 
L 799.214405 244.309779 
L 799.256023 244.477466 
L 799.304143 243.639032 
L 799.325172 244.142092 
L 799.381702 243.974406 
L 799.560423 242.12985 
L 799.589161 242.800598 
L 799.707656 243.806719 
L 799.749926 243.639032 
L 799.821064 242.465224 
L 799.884923 242.800598 
L 799.972469 243.135971 
L 799.94345 242.632911 
L 799.9786 242.968285 
L 800.130899 241.962163 
L 800.201949 242.968285 
L 800.20473 242.800598 
L 800.263677 242.800598 
L 800.412483 243.303658 
L 800.476333 242.800598 
L 800.510393 243.135971 
L 800.626155 243.639032 
L 800.629499 243.471345 
L 800.656384 243.806719 
L 800.699631 243.471345 
L 800.841421 242.12985 
L 800.874244 242.632911 
L 800.899005 242.465224 
L 801.046206 243.639032 
L 801.053003 243.135971 
L 801.121445 243.639032 
L 801.267238 243.135971 
L 801.278273 243.303658 
L 801.370158 244.142092 
L 801.3798 243.974406 
L 801.434985 243.303658 
L 801.452082 242.800598 
L 801.455877 243.806719 
L 801.549152 242.968285 
L 801.706927 243.303658 
L 801.707016 243.135971 
L 801.852938 242.297537 
L 801.85562 242.465224 
L 801.889085 242.297537 
L 802.007433 243.471345 
L 802.087639 243.471345 
L 802.176387 246.489708 
L 802.184362 249.508071 
L 802.288101 248.166577 
L 802.320155 248.669637 
L 802.346806 247.99889 
L 802.362691 247.99889 
L 802.445922 246.825082 
L 802.470812 247.831203 
L 802.503181 248.837324 
L 802.611201 248.334263 
L 802.613283 248.166577 
L 802.655986 252.278342 
L 802.672481 252.278342 
L 803.002487 252.278342 
L 803.120775 255.303664 
L 803.20755 255.303664 
L 803.238037 259.25445 
L 803.334742 256.57146 
L 803.367379 256.57146 
L 803.478718 253.553097 
L 803.498646 254.223845 
L 803.517707 253.888471 
L 803.624137 255.062279 
L 803.639178 255.062279 
L 803.750802 256.739147 
L 803.778225 256.236087 
L 803.92421 253.888471 
L 803.987127 254.223845 
L 804.011999 254.559218 
L 804.065742 252.379289 
L 804.085933 253.217724 
L 804.137707 251.876229 
L 804.171772 253.217724 
L 804.364299 256.739147 
L 804.454467 254.559218 
L 804.482606 254.894592 
L 804.50379 254.559218 
L 804.55456 256.236087 
L 804.562092 255.565339 
L 804.570274 256.236087 
L 804.577597 254.726905 
L 804.660789 255.397652 
L 804.674555 255.229966 
L 804.703173 256.236087 
L 804.737489 255.733026 
L 804.77177 256.57146 
L 804.84673 256.0684 
L 804.965966 253.050037 
L 805.002941 254.559218 
L 805.114621 258.751389 
L 805.129454 257.912955 
L 805.175523 255.900713 
L 805.242229 257.409895 
L 805.249539 257.409895 
L 805.285602 256.403774 
L 805.339106 258.248329 
L 805.351983 257.242208 
L 805.435896 257.912955 
L 805.390014 256.403774 
L 805.454523 257.074521 
L 805.475848 256.403774 
L 805.504545 258.583702 
L 805.537038 262.112337 
L 805.626473 261.776963 
L 805.638025 259.764721 
L 805.695219 263.54128 
L 805.707974 263.54128 
L 805.876008 263.54128 
L 806.141936 275.148312 
L 806.230898 275.148312 
L 806.356312 278.512026 
L 813.327405 278.512026 
L 813.476322 284.395067 
L 815.488071 284.395067 
L 815.694801 289.095581 
L 815.723385 289.095581 
L 815.826834 313.353663 
L 815.867426 312.347542 
L 815.992302 322.415879 
L 815.888535 311.341421 
L 816.014113 321.912818 
L 816.032558 320.23595 
L 816.105795 325.605702 
L 816.109341 324.767268 
L 816.140836 322.755025 
L 816.202181 325.102641 
L 816.207494 325.102641 
L 816.32901 328.373625 
L 817.671364 328.373625 
L 817.671364 328.373625 
" clip-path="url(#p6d96ea4de9)" style="fill: none; stroke: #0000ff; stroke-width: 1.5; stroke-linecap: square"/>
   </g>
   <g id="patch_3">
    <path d="M 71.57 342.610464 
L 71.57 29.4 
" style="fill: none; stroke: #000000; stroke-width: 0.8; stroke-linejoin: miter; stroke-linecap: square"/>
   </g>
   <g id="patch_4">
    <path d="M 853.2 342.610464 
L 853.2 29.4 
" style="fill: none; stroke: #000000; stroke-width: 0.8; stroke-linejoin: miter; stroke-linecap: square"/>
   </g>
   <g id="patch_5">
    <path d="M 71.57 342.610464 
L 853.2 342.610464 
" style="fill: none; stroke: #000000; stroke-width: 0.8; stroke-linejoin: miter; stroke-linecap: square"/>
   </g>
   <g id="patch_6">
    <path d="M 71.57 29.4 
L 853.2 29.4 
" style="fill: none; stroke: #000000; stroke-width: 0.8; stroke-linejoin: miter; stroke-linecap: square"/>
   </g>
   <g id="text_13">
    <!-- Out-of-Sample HPR (VWAP Window: 996) - 30% Cuối -->
    <g transform="translate(256.34875 23.4) scale(0.14 -0.14)">
     <defs>
      <path id="DejaVuSans-Bold-4f" d="M 2719 3878 
Q 2169 3878 1866 3472 
Q 1563 3066 1563 2328 
Q 1563 1594 1866 1187 
Q 2169 781 2719 781 
Q 3272 781 3575 1187 
Q 3878 1594 3878 2328 
Q 3878 3066 3575 3472 
Q 3272 3878 2719 3878 
z
M 2719 4750 
Q 3844 4750 4481 4106 
Q 5119 3463 5119 2328 
Q 5119 1197 4481 553 
Q 3844 -91 2719 -91 
Q 1597 -91 958 553 
Q 319 1197 319 2328 
Q 319 3463 958 4106 
Q 1597 4750 2719 4750 
z
" transform="scale(0.015625)"/>
      <path id="DejaVuSans-Bold-75" d="M 500 1363 
L 500 3500 
L 1625 3500 
L 1625 3150 
Q 1625 2866 1622 2436 
Q 1619 2006 1619 1863 
Q 1619 1441 1641 1255 
Q 1663 1069 1716 984 
Q 1784 875 1895 815 
Q 2006 756 2150 756 
Q 2500 756 2700 1025 
Q 2900 1294 2900 1772 
L 2900 3500 
L 4019 3500 
L 4019 0 
L 2900 0 
L 2900 506 
Q 2647 200 2364 54 
Q 2081 -91 1741 -91 
Q 1134 -91 817 281 
Q 500 653 500 1363 
z
" transform="scale(0.015625)"/>
      <path id="DejaVuSans-Bold-74" d="M 1759 4494 
L 1759 3500 
L 2913 3500 
L 2913 2700 
L 1759 2700 
L 1759 1216 
Q 1759 972 1856 886 
Q 1953 800 2241 800 
L 2816 800 
L 2816 0 
L 1856 0 
Q 1194 0 917 276 
Q 641 553 641 1216 
L 641 2700 
L 84 2700 
L 84 3500 
L 641 3500 
L 641 4494 
L 1759 4494 
z
" transform="scale(0.015625)"/>
      <path id="DejaVuSans-Bold-2d" d="M 347 2297 
L 2309 2297 
L 2309 1388 
L 347 1388 
L 347 2297 
z
" transform="scale(0.015625)"/>
      <path id="DejaVuSans-Bold-6f" d="M 2203 2784 
Q 1831 2784 1636 2517 
Q 1441 2250 1441 1747 
Q 1441 1244 1636 976 
Q 1831 709 2203 709 
Q 2569 709 2762 976 
Q 2956 1244 2956 1747 
Q 2956 2250 2762 2517 
Q 2569 2784 2203 2784 
z
M 2203 3584 
Q 3106 3584 3614 3096 
Q 4122 2609 4122 1747 
Q 4122 884 3614 396 
Q 3106 -91 2203 -91 
Q 1297 -91 786 396 
Q 275 884 275 1747 
Q 275 2609 786 3096 
Q 1297 3584 2203 3584 
z
" transform="scale(0.015625)"/>
      <path id="DejaVuSans-Bold-66" d="M 2841 4863 
L 2841 4128 
L 2222 4128 
Q 1984 4128 1890 4042 
Q 1797 3956 1797 3744 
L 1797 3500 
L 2753 3500 
L 2753 2700 
L 1797 2700 
L 1797 0 
L 678 0 
L 678 2700 
L 122 2700 
L 122 3500 
L 678 3500 
L 678 3744 
Q 678 4316 997 4589 
Q 1316 4863 1984 4863 
L 2841 4863 
z
" transform="scale(0.015625)"/>
      <path id="DejaVuSans-Bold-53" d="M 3834 4519 
L 3834 3531 
Q 3450 3703 3084 3790 
Q 2719 3878 2394 3878 
Q 1963 3878 1756 3759 
Q 1550 3641 1550 3391 
Q 1550 3203 1689 3098 
Q 1828 2994 2194 2919 
L 2706 2816 
Q 3484 2659 3812 2340 
Q 4141 2022 4141 1434 
Q 4141 663 3683 286 
Q 3225 -91 2284 -91 
Q 1841 -91 1394 -6 
Q 947 78 500 244 
L 500 1259 
Q 947 1022 1364 901 
Q 1781 781 2169 781 
Q 2563 781 2772 912 
Q 2981 1044 2981 1288 
Q 2981 1506 2839 1625 
Q 2697 1744 2272 1838 
L 1806 1941 
Q 1106 2091 782 2419 
Q 459 2747 459 3303 
Q 459 4000 909 4375 
Q 1359 4750 2203 4750 
Q 2588 4750 2994 4692 
Q 3400 4634 3834 4519 
z
" transform="scale(0.015625)"/>
      <path id="DejaVuSans-Bold-61" d="M 2106 1575 
Q 1756 1575 1579 1456 
Q 1403 1338 1403 1106 
Q 1403 894 1545 773 
Q 1688 653 1941 653 
Q 2256 653 2472 879 
Q 2688 1106 2688 1447 
L 2688 1575 
L 2106 1575 
z
M 3816 1997 
L 3816 0 
L 2688 0 
L 2688 519 
Q 2463 200 2181 54 
Q 1900 -91 1497 -91 
Q 953 -91 614 226 
Q 275 544 275 1050 
Q 275 1666 698 1953 
Q 1122 2241 2028 2241 
L 2688 2241 
L 2688 2328 
Q 2688 2594 2478 2717 
Q 2269 2841 1825 2841 
Q 1466 2841 1156 2769 
Q 847 2697 581 2553 
L 581 3406 
Q 941 3494 1303 3539 
Q 1666 3584 2028 3584 
Q 2975 3584 3395 3211 
Q 3816 2838 3816 1997 
z
" transform="scale(0.015625)"/>
      <path id="DejaVuSans-Bold-6d" d="M 3781 2919 
Q 3994 3244 4286 3414 
Q 4578 3584 4928 3584 
Q 5531 3584 5847 3212 
Q 6163 2841 6163 2131 
L 6163 0 
L 5038 0 
L 5038 1825 
Q 5041 1866 5042 1909 
Q 5044 1953 5044 2034 
Q 5044 2406 4934 2573 
Q 4825 2741 4581 2741 
Q 4263 2741 4089 2478 
Q 3916 2216 3909 1719 
L 3909 0 
L 2784 0 
L 2784 1825 
Q 2784 2406 2684 2573 
Q 2584 2741 2328 2741 
Q 2006 2741 1831 2477 
Q 1656 2213 1656 1722 
L 1656 0 
L 531 0 
L 531 3500 
L 1656 3500 
L 1656 2988 
Q 1863 3284 2130 3434 
Q 2397 3584 2719 3584 
Q 3081 3584 3359 3409 
Q 3638 3234 3781 2919 
z
" transform="scale(0.015625)"/>
      <path id="DejaVuSans-Bold-70" d="M 1656 506 
L 1656 -1331 
L 538 -1331 
L 538 3500 
L 1656 3500 
L 1656 2988 
Q 1888 3294 2169 3439 
Q 2450 3584 2816 3584 
Q 3463 3584 3878 3070 
Q 4294 2556 4294 1747 
Q 4294 938 3878 423 
Q 3463 -91 2816 -91 
Q 2450 -91 2169 54 
Q 1888 200 1656 506 
z
M 2400 2772 
Q 2041 2772 1848 2508 
Q 1656 2244 1656 1747 
Q 1656 1250 1848 986 
Q 2041 722 2400 722 
Q 2759 722 2948 984 
Q 3138 1247 3138 1747 
Q 3138 2247 2948 2509 
Q 2759 2772 2400 2772 
z
" transform="scale(0.015625)"/>
      <path id="DejaVuSans-Bold-6c" d="M 538 4863 
L 1656 4863 
L 1656 0 
L 538 0 
L 538 4863 
z
" transform="scale(0.015625)"/>
      <path id="DejaVuSans-Bold-65" d="M 4031 1759 
L 4031 1441 
L 1416 1441 
Q 1456 1047 1700 850 
Q 1944 653 2381 653 
Q 2734 653 3104 758 
Q 3475 863 3866 1075 
L 3866 213 
Q 3469 63 3072 -14 
Q 2675 -91 2278 -91 
Q 1328 -91 801 392 
Q 275 875 275 1747 
Q 275 2603 792 3093 
Q 1309 3584 2216 3584 
Q 3041 3584 3536 3087 
Q 4031 2591 4031 1759 
z
M 2881 2131 
Q 2881 2450 2695 2645 
Q 2509 2841 2209 2841 
Q 1884 2841 1681 2658 
Q 1478 2475 1428 2131 
L 2881 2131 
z
" transform="scale(0.015625)"/>
      <path id="DejaVuSans-Bold-20" transform="scale(0.015625)"/>
      <path id="DejaVuSans-Bold-48" d="M 588 4666 
L 1791 4666 
L 1791 2888 
L 3566 2888 
L 3566 4666 
L 4769 4666 
L 4769 0 
L 3566 0 
L 3566 1978 
L 1791 1978 
L 1791 0 
L 588 0 
L 588 4666 
z
" transform="scale(0.015625)"/>
      <path id="DejaVuSans-Bold-50" d="M 588 4666 
L 2584 4666 
Q 3475 4666 3951 4270 
Q 4428 3875 4428 3144 
Q 4428 2409 3951 2014 
Q 3475 1619 2584 1619 
L 1791 1619 
L 1791 0 
L 588 0 
L 588 4666 
z
M 1791 3794 
L 1791 2491 
L 2456 2491 
Q 2806 2491 2997 2661 
Q 3188 2831 3188 3144 
Q 3188 3456 2997 3625 
Q 2806 3794 2456 3794 
L 1791 3794 
z
" transform="scale(0.015625)"/>
      <path id="DejaVuSans-Bold-52" d="M 2297 2597 
Q 2675 2597 2839 2737 
Q 3003 2878 3003 3200 
Q 3003 3519 2839 3656 
Q 2675 3794 2297 3794 
L 1791 3794 
L 1791 2597 
L 2297 2597 
z
M 1791 1766 
L 1791 0 
L 588 0 
L 588 4666 
L 2425 4666 
Q 3347 4666 3776 4356 
Q 4206 4047 4206 3378 
Q 4206 2916 3982 2619 
Q 3759 2322 3309 2181 
Q 3556 2125 3751 1926 
Q 3947 1728 4147 1325 
L 4800 0 
L 3519 0 
L 2950 1159 
Q 2778 1509 2601 1637 
Q 2425 1766 2131 1766 
L 1791 1766 
z
" transform="scale(0.015625)"/>
      <path id="DejaVuSans-Bold-28" d="M 2413 -844 
L 1484 -844 
Q 1006 -72 778 623 
Q 550 1319 550 2003 
Q 550 2688 779 3389 
Q 1009 4091 1484 4856 
L 2413 4856 
Q 2013 4116 1813 3408 
Q 1613 2700 1613 2009 
Q 1613 1319 1811 609 
Q 2009 -100 2413 -844 
z
" transform="scale(0.015625)"/>
      <path id="DejaVuSans-Bold-56" d="M 31 4666 
L 1241 4666 
L 2478 1222 
L 3713 4666 
L 4922 4666 
L 3194 0 
L 1759 0 
L 31 4666 
z
" transform="scale(0.015625)"/>
      <path id="DejaVuSans-Bold-57" d="M 191 4666 
L 1344 4666 
L 2150 1275 
L 2950 4666 
L 4109 4666 
L 4909 1275 
L 5716 4666 
L 6859 4666 
L 5759 0 
L 4372 0 
L 3525 3547 
L 2688 0 
L 1300 0 
L 191 4666 
z
" transform="scale(0.015625)"/>
      <path id="DejaVuSans-Bold-41" d="M 3419 850 
L 1538 850 
L 1241 0 
L 31 0 
L 1759 4666 
L 3194 4666 
L 4922 0 
L 3713 0 
L 3419 850 
z
M 1838 1716 
L 3116 1716 
L 2478 3572 
L 1838 1716 
z
" transform="scale(0.015625)"/>
      <path id="DejaVuSans-Bold-69" d="M 538 3500 
L 1656 3500 
L 1656 0 
L 538 0 
L 538 3500 
z
M 538 4863 
L 1656 4863 
L 1656 3950 
L 538 3950 
L 538 4863 
z
" transform="scale(0.015625)"/>
      <path id="DejaVuSans-Bold-6e" d="M 4056 2131 
L 4056 0 
L 2931 0 
L 2931 347 
L 2931 1631 
Q 2931 2084 2911 2256 
Q 2891 2428 2841 2509 
Q 2775 2619 2662 2680 
Q 2550 2741 2406 2741 
Q 2056 2741 1856 2470 
Q 1656 2200 1656 1722 
L 1656 0 
L 538 0 
L 538 3500 
L 1656 3500 
L 1656 2988 
Q 1909 3294 2193 3439 
Q 2478 3584 2822 3584 
Q 3428 3584 3742 3212 
Q 4056 2841 4056 2131 
z
" transform="scale(0.015625)"/>
      <path id="DejaVuSans-Bold-64" d="M 2919 2988 
L 2919 4863 
L 4044 4863 
L 4044 0 
L 2919 0 
L 2919 506 
Q 2688 197 2409 53 
Q 2131 -91 1766 -91 
Q 1119 -91 703 423 
Q 288 938 288 1747 
Q 288 2556 703 3070 
Q 1119 3584 1766 3584 
Q 2128 3584 2408 3439 
Q 2688 3294 2919 2988 
z
M 2181 722 
Q 2541 722 2730 984 
Q 2919 1247 2919 1747 
Q 2919 2247 2730 2509 
Q 2541 2772 2181 2772 
Q 1825 2772 1636 2509 
Q 1447 2247 1447 1747 
Q 1447 1247 1636 984 
Q 1825 722 2181 722 
z
" transform="scale(0.015625)"/>
      <path id="DejaVuSans-Bold-77" d="M 225 3500 
L 1313 3500 
L 1900 1088 
L 2491 3500 
L 3425 3500 
L 4013 1113 
L 4603 3500 
L 5691 3500 
L 4769 0 
L 3547 0 
L 2956 2406 
L 2369 0 
L 1147 0 
L 225 3500 
z
" transform="scale(0.015625)"/>
      <path id="DejaVuSans-Bold-3a" d="M 716 3500 
L 1844 3500 
L 1844 2291 
L 716 2291 
L 716 3500 
z
M 716 1209 
L 1844 1209 
L 1844 0 
L 716 0 
L 716 1209 
z
" transform="scale(0.015625)"/>
      <path id="DejaVuSans-Bold-39" d="M 641 103 
L 641 966 
Q 928 831 1190 764 
Q 1453 697 1709 697 
Q 2247 697 2547 995 
Q 2847 1294 2900 1881 
Q 2688 1725 2447 1647 
Q 2206 1569 1925 1569 
Q 1209 1569 770 1986 
Q 331 2403 331 3084 
Q 331 3838 820 4291 
Q 1309 4744 2131 4744 
Q 3044 4744 3544 4128 
Q 4044 3513 4044 2388 
Q 4044 1231 3459 570 
Q 2875 -91 1856 -91 
Q 1528 -91 1228 -42 
Q 928 6 641 103 
z
M 2125 2350 
Q 2441 2350 2600 2554 
Q 2759 2759 2759 3169 
Q 2759 3575 2600 3781 
Q 2441 3988 2125 3988 
Q 1809 3988 1650 3781 
Q 1491 3575 1491 3169 
Q 1491 2759 1650 2554 
Q 1809 2350 2125 2350 
z
" transform="scale(0.015625)"/>
      <path id="DejaVuSans-Bold-36" d="M 2316 2303 
Q 2000 2303 1842 2098 
Q 1684 1894 1684 1484 
Q 1684 1075 1842 870 
Q 2000 666 2316 666 
Q 2634 666 2792 870 
Q 2950 1075 2950 1484 
Q 2950 1894 2792 2098 
Q 2634 2303 2316 2303 
z
M 3803 4544 
L 3803 3681 
Q 3506 3822 3243 3889 
Q 2981 3956 2731 3956 
Q 2194 3956 1894 3657 
Q 1594 3359 1544 2772 
Q 1750 2925 1990 3001 
Q 2231 3078 2516 3078 
Q 3231 3078 3670 2659 
Q 4109 2241 4109 1563 
Q 4109 813 3618 361 
Q 3128 -91 2303 -91 
Q 1394 -91 895 523 
Q 397 1138 397 2266 
Q 397 3422 980 4083 
Q 1563 4744 2578 4744 
Q 2900 4744 3203 4694 
Q 3506 4644 3803 4544 
z
" transform="scale(0.015625)"/>
      <path id="DejaVuSans-Bold-29" d="M 513 -844 
Q 913 -100 1113 609 
Q 1313 1319 1313 2009 
Q 1313 2700 1113 3408 
Q 913 4116 513 4856 
L 1441 4856 
Q 1916 4091 2145 3389 
Q 2375 2688 2375 2003 
Q 2375 1319 2147 623 
Q 1919 -72 1441 -844 
L 513 -844 
z
" transform="scale(0.015625)"/>
      <path id="DejaVuSans-Bold-33" d="M 2981 2516 
Q 3453 2394 3698 2092 
Q 3944 1791 3944 1325 
Q 3944 631 3412 270 
Q 2881 -91 1863 -91 
Q 1503 -91 1142 -33 
Q 781 25 428 141 
L 428 1069 
Q 766 900 1098 814 
Q 1431 728 1753 728 
Q 2231 728 2486 893 
Q 2741 1059 2741 1369 
Q 2741 1688 2480 1852 
Q 2219 2016 1709 2016 
L 1228 2016 
L 1228 2791 
L 1734 2791 
Q 2188 2791 2409 2933 
Q 2631 3075 2631 3366 
Q 2631 3634 2415 3781 
Q 2200 3928 1806 3928 
Q 1516 3928 1219 3862 
Q 922 3797 628 3669 
L 628 4550 
Q 984 4650 1334 4700 
Q 1684 4750 2022 4750 
Q 2931 4750 3382 4451 
Q 3834 4153 3834 3553 
Q 3834 3144 3618 2883 
Q 3403 2622 2981 2516 
z
" transform="scale(0.015625)"/>
      <path id="DejaVuSans-Bold-30" d="M 2944 2338 
Q 2944 3213 2780 3570 
Q 2616 3928 2228 3928 
Q 1841 3928 1675 3570 
Q 1509 3213 1509 2338 
Q 1509 1453 1675 1090 
Q 1841 728 2228 728 
Q 2613 728 2778 1090 
Q 2944 1453 2944 2338 
z
M 4147 2328 
Q 4147 1169 3647 539 
Q 3147 -91 2228 -91 
Q 1306 -91 806 539 
Q 306 1169 306 2328 
Q 306 3491 806 4120 
Q 1306 4750 2228 4750 
Q 3147 4750 3647 4120 
Q 4147 3491 4147 2328 
z
" transform="scale(0.015625)"/>
      <path id="DejaVuSans-Bold-25" d="M 4959 1925 
Q 4738 1925 4616 1733 
Q 4494 1541 4494 1184 
Q 4494 825 4614 633 
Q 4734 441 4959 441 
Q 5184 441 5303 633 
Q 5422 825 5422 1184 
Q 5422 1541 5301 1733 
Q 5181 1925 4959 1925 
z
M 4959 2450 
Q 5541 2450 5875 2112 
Q 6209 1775 6209 1184 
Q 6209 594 5875 251 
Q 5541 -91 4959 -91 
Q 4378 -91 4042 251 
Q 3706 594 3706 1184 
Q 3706 1772 4042 2111 
Q 4378 2450 4959 2450 
z
M 2094 -91 
L 1403 -91 
L 4319 4750 
L 5013 4750 
L 2094 -91 
z
M 1453 4750 
Q 2034 4750 2367 4411 
Q 2700 4072 2700 3481 
Q 2700 2891 2367 2550 
Q 2034 2209 1453 2209 
Q 872 2209 539 2550 
Q 206 2891 206 3481 
Q 206 4072 539 4411 
Q 872 4750 1453 4750 
z
M 1453 4225 
Q 1228 4225 1106 4031 
Q 984 3838 984 3481 
Q 984 3122 1106 2926 
Q 1228 2731 1453 2731 
Q 1678 2731 1798 2926 
Q 1919 3122 1919 3481 
Q 1919 3838 1797 4031 
Q 1675 4225 1453 4225 
z
" transform="scale(0.015625)"/>
      <path id="DejaVuSans-Bold-43" d="M 4288 256 
Q 3956 84 3597 -3 
Q 3238 -91 2847 -91 
Q 1681 -91 1000 561 
Q 319 1213 319 2328 
Q 319 3447 1000 4098 
Q 1681 4750 2847 4750 
Q 3238 4750 3597 4662 
Q 3956 4575 4288 4403 
L 4288 3438 
Q 3953 3666 3628 3772 
Q 3303 3878 2944 3878 
Q 2300 3878 1931 3465 
Q 1563 3053 1563 2328 
Q 1563 1606 1931 1193 
Q 2300 781 2944 781 
Q 3303 781 3628 887 
Q 3953 994 4288 1222 
L 4288 256 
z
" transform="scale(0.015625)"/>
      <path id="DejaVuSans-Bold-1ed1" d="M 2203 2784 
Q 1831 2784 1636 2517 
Q 1441 2250 1441 1747 
Q 1441 1244 1636 976 
Q 1831 709 2203 709 
Q 2569 709 2762 976 
Q 2956 1244 2956 1747 
Q 2956 2250 2762 2517 
Q 2569 2784 2203 2784 
z
M 2203 3584 
Q 3106 3584 3614 3096 
Q 4122 2609 4122 1747 
Q 4122 884 3614 396 
Q 3106 -91 2203 -91 
Q 1297 -91 786 396 
Q 275 884 275 1747 
Q 275 2609 786 3096 
Q 1297 3584 2203 3584 
z
M 1703 4769 
L 2665 4769 
L 3362 3944 
L 2806 3944 
L 2184 4447 
L 1562 3944 
L 1006 3944 
L 1703 4769 
z
M 3463 5601 
L 4348 5601 
L 3457 4776 
L 2845 4776 
L 3463 5601 
z
" transform="scale(0.015625)"/>
     </defs>
     <use xlink:href="#DejaVuSans-Bold-4f"/>
     <use xlink:href="#DejaVuSans-Bold-75" transform="translate(85.009766 0)"/>
     <use xlink:href="#DejaVuSans-Bold-74" transform="translate(156.201172 0)"/>
     <use xlink:href="#DejaVuSans-Bold-2d" transform="translate(204.003906 0)"/>
     <use xlink:href="#DejaVuSans-Bold-6f" transform="translate(245.507812 0)"/>
     <use xlink:href="#DejaVuSans-Bold-66" transform="translate(314.208984 0)"/>
     <use xlink:href="#DejaVuSans-Bold-2d" transform="translate(355.964844 0)"/>
     <use xlink:href="#DejaVuSans-Bold-53" transform="translate(397.46875 0)"/>
     <use xlink:href="#DejaVuSans-Bold-61" transform="translate(469.490234 0)"/>
     <use xlink:href="#DejaVuSans-Bold-6d" transform="translate(536.970703 0)"/>
     <use xlink:href="#DejaVuSans-Bold-70" transform="translate(641.169922 0)"/>
     <use xlink:href="#DejaVuSans-Bold-6c" transform="translate(712.751953 0)"/>
     <use xlink:href="#DejaVuSans-Bold-65" transform="translate(747.029297 0)"/>
     <use xlink:href="#DejaVuSans-Bold-20" transform="translate(814.851562 0)"/>
     <use xlink:href="#DejaVuSans-Bold-48" transform="translate(849.666016 0)"/>
     <use xlink:href="#DejaVuSans-Bold-50" transform="translate(933.357422 0)"/>
     <use xlink:href="#DejaVuSans-Bold-52" transform="translate(1006.648438 0)"/>
     <use xlink:href="#DejaVuSans-Bold-20" transform="translate(1083.650391 0)"/>
     <use xlink:href="#DejaVuSans-Bold-28" transform="translate(1118.464844 0)"/>
     <use xlink:href="#DejaVuSans-Bold-56" transform="translate(1164.167969 0)"/>
     <use xlink:href="#DejaVuSans-Bold-57" transform="translate(1241.560547 0)"/>
     <use xlink:href="#DejaVuSans-Bold-41" transform="translate(1347.363281 0)"/>
     <use xlink:href="#DejaVuSans-Bold-50" transform="translate(1424.755859 0)"/>
     <use xlink:href="#DejaVuSans-Bold-20" transform="translate(1498.046875 0)"/>
     <use xlink:href="#DejaVuSans-Bold-57" transform="translate(1532.861328 0)"/>
     <use xlink:href="#DejaVuSans-Bold-69" transform="translate(1643.164062 0)"/>
     <use xlink:href="#DejaVuSans-Bold-6e" transform="translate(1677.441406 0)"/>
     <use xlink:href="#DejaVuSans-Bold-64" transform="translate(1748.632812 0)"/>
     <use xlink:href="#DejaVuSans-Bold-6f" transform="translate(1820.214844 0)"/>
     <use xlink:href="#DejaVuSans-Bold-77" transform="translate(1888.916016 0)"/>
     <use xlink:href="#DejaVuSans-Bold-3a" transform="translate(1981.298828 0)"/>
     <use xlink:href="#DejaVuSans-Bold-20" transform="translate(2021.289062 0)"/>
     <use xlink:href="#DejaVuSans-Bold-39" transform="translate(2056.103516 0)"/>
     <use xlink:href="#DejaVuSans-Bold-39" transform="translate(2125.683594 0)"/>
     <use xlink:href="#DejaVuSans-Bold-36" transform="translate(2195.263672 0)"/>
     <use xlink:href="#DejaVuSans-Bold-29" transform="translate(2264.84375 0)"/>
     <use xlink:href="#DejaVuSans-Bold-20" transform="translate(2310.546875 0)"/>
     <use xlink:href="#DejaVuSans-Bold-2d" transform="translate(2345.361328 0)"/>
     <use xlink:href="#DejaVuSans-Bold-20" transform="translate(2386.865234 0)"/>
     <use xlink:href="#DejaVuSans-Bold-33" transform="translate(2421.679688 0)"/>
     <use xlink:href="#DejaVuSans-Bold-30" transform="translate(2491.259766 0)"/>
     <use xlink:href="#DejaVuSans-Bold-25" transform="translate(2560.839844 0)"/>
     <use xlink:href="#DejaVuSans-Bold-20" transform="translate(2661.035156 0)"/>
     <use xlink:href="#DejaVuSans-Bold-43" transform="translate(2695.849609 0)"/>
     <use xlink:href="#DejaVuSans-Bold-75" transform="translate(2769.238281 0)"/>
     <use xlink:href="#DejaVuSans-Bold-1ed1" transform="translate(2840.429688 0)"/>
     <use xlink:href="#DejaVuSans-Bold-69" transform="translate(2909.130859 0)"/>
    </g>
   </g>
  </g>
 </g>
 <defs>
  <clipPath id="p6d96ea4de9">
   <rect x="71.57" y="29.4" width="781.63" height="313.210464"/>
  </clipPath>
 </defs>
</svg>
