<?xml version="1.0" encoding="utf-8" standalone="no"?>
<!DOCTYPE svg PUBLIC "-//W3C//DTD SVG 1.1//EN"
  "http://www.w3.org/Graphics/SVG/1.1/DTD/svg11.dtd">
<svg xmlns:xlink="http://www.w3.org/1999/xlink" width="864pt" height="432pt" viewBox="0 0 864 432" xmlns="http://www.w3.org/2000/svg" version="1.1">
 <metadata>
  <rdf:RDF xmlns:dc="http://purl.org/dc/elements/1.1/" xmlns:cc="http://creativecommons.org/ns#" xmlns:rdf="http://www.w3.org/1999/02/22-rdf-syntax-ns#">
   <cc:Work>
    <dc:type rdf:resource="http://purl.org/dc/dcmitype/StillImage"/>
    <dc:date>2026-05-14T09:17:59.854280</dc:date>
    <dc:format>image/svg+xml</dc:format>
    <dc:creator>
     <cc:Agent>
      <dc:title>Matplotlib v3.10.9, https://matplotlib.org/</dc:title>
     </cc:Agent>
    </dc:creator>
   </cc:Work>
  </rdf:RDF>
 </metadata>
 <defs>
  <style type="text/css">*{stroke-linejoin: round; stroke-linecap: butt}</style>
 </defs>
 <g id="figure_1">
  <g id="patch_1">
   <path d="M 0 432 
L 864 432 
L 864 0 
L 0 0 
z
" style="fill: #ffffff"/>
  </g>
  <g id="axes_1">
   <g id="patch_2">
    <path d="M 65.27 342.610464 
L 853.2 342.610464 
L 853.2 29.4 
L 65.27 29.4 
z
" style="fill: #ffffff"/>
   </g>
   <g id="matplotlib.axis_1">
    <g id="xtick_1">
     <g id="line2d_1">
      <path d="M 158.71644 342.610464 
L 158.71644 29.4 
" clip-path="url(#pc5c891ff6f)" style="fill: none; stroke-dasharray: 2.96,1.28; stroke-dashoffset: 0; stroke: #b0b0b0; stroke-opacity: 0.6; stroke-width: 0.8"/>
     </g>
     <g id="line2d_2">
      <defs>
       <path id="m7e633439e3" d="M 0 0 
L 0 3.5 
" style="stroke: #000000; stroke-width: 0.8"/>
      </defs>
      <g>
       <use xlink:href="#m7e633439e3" x="158.71644" y="342.610464" style="stroke: #000000; stroke-width: 0.8"/>
      </g>
     </g>
     <g id="text_1">
      <!-- 1970-01-19 21:55 -->
      <g transform="translate(79.636882 401.247154) rotate(-30) scale(0.1 -0.1)">
       <defs>
        <path id="DejaVuSans-31" d="M 794 531 
L 1825 531 
L 1825 4091 
L 703 3866 
L 703 4441 
L 1819 4666 
L 2450 4666 
L 2450 531 
L 3481 531 
L 3481 0 
L 794 0 
L 794 531 
z
" transform="scale(0.015625)"/>
        <path id="DejaVuSans-39" d="M 703 97 
L 703 672 
Q 941 559 1184 500 
Q 1428 441 1663 441 
Q 2288 441 2617 861 
Q 2947 1281 2994 2138 
Q 2813 1869 2534 1725 
Q 2256 1581 1919 1581 
Q 1219 1581 811 2004 
Q 403 2428 403 3163 
Q 403 3881 828 4315 
Q 1253 4750 1959 4750 
Q 2769 4750 3195 4129 
Q 3622 3509 3622 2328 
Q 3622 1225 3098 567 
Q 2575 -91 1691 -91 
Q 1453 -91 1209 -44 
Q 966 3 703 97 
z
M 1959 2075 
Q 2384 2075 2632 2365 
Q 2881 2656 2881 3163 
Q 2881 3666 2632 3958 
Q 2384 4250 1959 4250 
Q 1534 4250 1286 3958 
Q 1038 3666 1038 3163 
Q 1038 2656 1286 2365 
Q 1534 2075 1959 2075 
z
" transform="scale(0.015625)"/>
        <path id="DejaVuSans-37" d="M 525 4666 
L 3525 4666 
L 3525 4397 
L 1831 0 
L 1172 0 
L 2766 4134 
L 525 4134 
L 525 4666 
z
" transform="scale(0.015625)"/>
        <path id="DejaVuSans-30" d="M 2034 4250 
Q 1547 4250 1301 3770 
Q 1056 3291 1056 2328 
Q 1056 1369 1301 889 
Q 1547 409 2034 409 
Q 2525 409 2770 889 
Q 3016 1369 3016 2328 
Q 3016 3291 2770 3770 
Q 2525 4250 2034 4250 
z
M 2034 4750 
Q 2819 4750 3233 4129 
Q 3647 3509 3647 2328 
Q 3647 1150 3233 529 
Q 2819 -91 2034 -91 
Q 1250 -91 836 529 
Q 422 1150 422 2328 
Q 422 3509 836 4129 
Q 1250 4750 2034 4750 
z
" transform="scale(0.015625)"/>
        <path id="DejaVuSans-2d" d="M 313 2009 
L 1997 2009 
L 1997 1497 
L 313 1497 
L 313 2009 
z
" transform="scale(0.015625)"/>
        <path id="DejaVuSans-20" transform="scale(0.015625)"/>
        <path id="DejaVuSans-32" d="M 1228 531 
L 3431 531 
L 3431 0 
L 469 0 
L 469 531 
Q 828 903 1448 1529 
Q 2069 2156 2228 2338 
Q 2531 2678 2651 2914 
Q 2772 3150 2772 3378 
Q 2772 3750 2511 3984 
Q 2250 4219 1831 4219 
Q 1534 4219 1204 4116 
Q 875 4013 500 3803 
L 500 4441 
Q 881 4594 1212 4672 
Q 1544 4750 1819 4750 
Q 2544 4750 2975 4387 
Q 3406 4025 3406 3419 
Q 3406 3131 3298 2873 
Q 3191 2616 2906 2266 
Q 2828 2175 2409 1742 
Q 1991 1309 1228 531 
z
" transform="scale(0.015625)"/>
        <path id="DejaVuSans-3a" d="M 750 794 
L 1409 794 
L 1409 0 
L 750 0 
L 750 794 
z
M 750 3309 
L 1409 3309 
L 1409 2516 
L 750 2516 
L 750 3309 
z
" transform="scale(0.015625)"/>
        <path id="DejaVuSans-35" d="M 691 4666 
L 3169 4666 
L 3169 4134 
L 1269 4134 
L 1269 2991 
Q 1406 3038 1543 3061 
Q 1681 3084 1819 3084 
Q 2600 3084 3056 2656 
Q 3513 2228 3513 1497 
Q 3513 744 3044 326 
Q 2575 -91 1722 -91 
Q 1428 -91 1123 -41 
Q 819 9 494 109 
L 494 744 
Q 775 591 1075 516 
Q 1375 441 1709 441 
Q 2250 441 2565 725 
Q 2881 1009 2881 1497 
Q 2881 1984 2565 2268 
Q 2250 2553 1709 2553 
Q 1456 2553 1204 2497 
Q 953 2441 691 2322 
L 691 4666 
z
" transform="scale(0.015625)"/>
       </defs>
       <use xlink:href="#DejaVuSans-31"/>
       <use xlink:href="#DejaVuSans-39" transform="translate(63.623047 0)"/>
       <use xlink:href="#DejaVuSans-37" transform="translate(127.246094 0)"/>
       <use xlink:href="#DejaVuSans-30" transform="translate(190.869141 0)"/>
       <use xlink:href="#DejaVuSans-2d" transform="translate(254.492188 0)"/>
       <use xlink:href="#DejaVuSans-30" transform="translate(290.576172 0)"/>
       <use xlink:href="#DejaVuSans-31" transform="translate(354.199219 0)"/>
       <use xlink:href="#DejaVuSans-2d" transform="translate(417.822266 0)"/>
       <use xlink:href="#DejaVuSans-31" transform="translate(453.90625 0)"/>
       <use xlink:href="#DejaVuSans-39" transform="translate(517.529297 0)"/>
       <use xlink:href="#DejaVuSans-20" transform="translate(581.152344 0)"/>
       <use xlink:href="#DejaVuSans-32" transform="translate(612.939453 0)"/>
       <use xlink:href="#DejaVuSans-31" transform="translate(676.5625 0)"/>
       <use xlink:href="#DejaVuSans-3a" transform="translate(740.185547 0)"/>
       <use xlink:href="#DejaVuSans-35" transform="translate(773.876953 0)"/>
       <use xlink:href="#DejaVuSans-35" transform="translate(837.5 0)"/>
      </g>
     </g>
    </g>
    <g id="xtick_2">
     <g id="line2d_3">
      <path d="M 430.299497 342.610464 
L 430.299497 29.4 
" clip-path="url(#pc5c891ff6f)" style="fill: none; stroke-dasharray: 2.96,1.28; stroke-dashoffset: 0; stroke: #b0b0b0; stroke-opacity: 0.6; stroke-width: 0.8"/>
     </g>
     <g id="line2d_4">
      <g>
       <use xlink:href="#m7e633439e3" x="430.299497" y="342.610464" style="stroke: #000000; stroke-width: 0.8"/>
      </g>
     </g>
     <g id="text_2">
      <!-- 1970-01-19 22:00 -->
      <g transform="translate(351.21994 401.247154) rotate(-30) scale(0.1 -0.1)">
       <use xlink:href="#DejaVuSans-31"/>
       <use xlink:href="#DejaVuSans-39" transform="translate(63.623047 0)"/>
       <use xlink:href="#DejaVuSans-37" transform="translate(127.246094 0)"/>
       <use xlink:href="#DejaVuSans-30" transform="translate(190.869141 0)"/>
       <use xlink:href="#DejaVuSans-2d" transform="translate(254.492188 0)"/>
       <use xlink:href="#DejaVuSans-30" transform="translate(290.576172 0)"/>
       <use xlink:href="#DejaVuSans-31" transform="translate(354.199219 0)"/>
       <use xlink:href="#DejaVuSans-2d" transform="translate(417.822266 0)"/>
       <use xlink:href="#DejaVuSans-31" transform="translate(453.90625 0)"/>
       <use xlink:href="#DejaVuSans-39" transform="translate(517.529297 0)"/>
       <use xlink:href="#DejaVuSans-20" transform="translate(581.152344 0)"/>
       <use xlink:href="#DejaVuSans-32" transform="translate(612.939453 0)"/>
       <use xlink:href="#DejaVuSans-32" transform="translate(676.5625 0)"/>
       <use xlink:href="#DejaVuSans-3a" transform="translate(740.185547 0)"/>
       <use xlink:href="#DejaVuSans-30" transform="translate(773.876953 0)"/>
       <use xlink:href="#DejaVuSans-30" transform="translate(837.5 0)"/>
      </g>
     </g>
    </g>
    <g id="xtick_3">
     <g id="line2d_5">
      <path d="M 701.882555 342.610464 
L 701.882555 29.4 
" clip-path="url(#pc5c891ff6f)" style="fill: none; stroke-dasharray: 2.96,1.28; stroke-dashoffset: 0; stroke: #b0b0b0; stroke-opacity: 0.6; stroke-width: 0.8"/>
     </g>
     <g id="line2d_6">
      <g>
       <use xlink:href="#m7e633439e3" x="701.882555" y="342.610464" style="stroke: #000000; stroke-width: 0.8"/>
      </g>
     </g>
     <g id="text_3">
      <!-- 1970-01-19 22:05 -->
      <g transform="translate(622.802997 401.247154) rotate(-30) scale(0.1 -0.1)">
       <use xlink:href="#DejaVuSans-31"/>
       <use xlink:href="#DejaVuSans-39" transform="translate(63.623047 0)"/>
       <use xlink:href="#DejaVuSans-37" transform="translate(127.246094 0)"/>
       <use xlink:href="#DejaVuSans-30" transform="translate(190.869141 0)"/>
       <use xlink:href="#DejaVuSans-2d" transform="translate(254.492188 0)"/>
       <use xlink:href="#DejaVuSans-30" transform="translate(290.576172 0)"/>
       <use xlink:href="#DejaVuSans-31" transform="translate(354.199219 0)"/>
       <use xlink:href="#DejaVuSans-2d" transform="translate(417.822266 0)"/>
       <use xlink:href="#DejaVuSans-31" transform="translate(453.90625 0)"/>
       <use xlink:href="#DejaVuSans-39" transform="translate(517.529297 0)"/>
       <use xlink:href="#DejaVuSans-20" transform="translate(581.152344 0)"/>
       <use xlink:href="#DejaVuSans-32" transform="translate(612.939453 0)"/>
       <use xlink:href="#DejaVuSans-32" transform="translate(676.5625 0)"/>
       <use xlink:href="#DejaVuSans-3a" transform="translate(740.185547 0)"/>
       <use xlink:href="#DejaVuSans-30" transform="translate(773.876953 0)"/>
       <use xlink:href="#DejaVuSans-35" transform="translate(837.5 0)"/>
      </g>
     </g>
    </g>
    <g id="text_4">
     <!-- Thời gian Thực tế -->
     <g transform="translate(407.140938 417.190091) scale(0.12 -0.12)">
      <defs>
       <path id="DejaVuSans-54" d="M -19 4666 
L 3928 4666 
L 3928 4134 
L 2272 4134 
L 2272 0 
L 1638 0 
L 1638 4134 
L -19 4134 
L -19 4666 
z
" transform="scale(0.015625)"/>
       <path id="DejaVuSans-68" d="M 3513 2113 
L 3513 0 
L 2938 0 
L 2938 2094 
Q 2938 2591 2744 2837 
Q 2550 3084 2163 3084 
Q 1697 3084 1428 2787 
Q 1159 2491 1159 1978 
L 1159 0 
L 581 0 
L 581 4863 
L 1159 4863 
L 1159 2956 
Q 1366 3272 1645 3428 
Q 1925 3584 2291 3584 
Q 2894 3584 3203 3211 
Q 3513 2838 3513 2113 
z
" transform="scale(0.015625)"/>
       <path id="DejaVuSans-1edd" d="M 1507 5119 
L 2388 3950 
L 1910 3950 
L 891 5119 
L 1507 5119 
z
M 2622 3136 
L 2622 3508 
Q 2813 3367 2950 3300 
Q 3088 3233 3185 3233 
Q 3328 3233 3400 3319 
Q 3472 3405 3472 3573 
Q 3472 3673 3448 3770 
Q 3425 3867 3378 3964 
L 3794 3964 
Q 3825 3845 3840 3739 
Q 3856 3633 3856 3539 
Q 3856 3158 3720 2978 
Q 3585 2798 3294 2798 
Q 3144 2798 2980 2881 
Q 2816 2964 2622 3136 
z
M 1975 3097 
Q 1513 3097 1244 2736 
Q 975 2375 975 1747 
Q 975 1119 1242 758 
Q 1510 397 1975 397 
Q 2435 397 2703 759 
Q 2972 1122 2972 1747 
Q 2972 2369 2703 2733 
Q 2435 3097 1975 3097 
z
M 1975 3584 
Q 2725 3584 3153 3096 
Q 3582 2609 3582 1747 
Q 3582 888 3153 398 
Q 2725 -91 1975 -91 
Q 1222 -91 795 398 
Q 369 888 369 1747 
Q 369 2609 795 3096 
Q 1222 3584 1975 3584 
z
" transform="scale(0.015625)"/>
       <path id="DejaVuSans-69" d="M 603 3500 
L 1178 3500 
L 1178 0 
L 603 0 
L 603 3500 
z
M 603 4863 
L 1178 4863 
L 1178 4134 
L 603 4134 
L 603 4863 
z
" transform="scale(0.015625)"/>
       <path id="DejaVuSans-67" d="M 2906 1791 
Q 2906 2416 2648 2759 
Q 2391 3103 1925 3103 
Q 1463 3103 1205 2759 
Q 947 2416 947 1791 
Q 947 1169 1205 825 
Q 1463 481 1925 481 
Q 2391 481 2648 825 
Q 2906 1169 2906 1791 
z
M 3481 434 
Q 3481 -459 3084 -895 
Q 2688 -1331 1869 -1331 
Q 1566 -1331 1297 -1286 
Q 1028 -1241 775 -1147 
L 775 -588 
Q 1028 -725 1275 -790 
Q 1522 -856 1778 -856 
Q 2344 -856 2625 -561 
Q 2906 -266 2906 331 
L 2906 616 
Q 2728 306 2450 153 
Q 2172 0 1784 0 
Q 1141 0 747 490 
Q 353 981 353 1791 
Q 353 2603 747 3093 
Q 1141 3584 1784 3584 
Q 2172 3584 2450 3431 
Q 2728 3278 2906 2969 
L 2906 3500 
L 3481 3500 
L 3481 434 
z
" transform="scale(0.015625)"/>
       <path id="DejaVuSans-61" d="M 2194 1759 
Q 1497 1759 1228 1600 
Q 959 1441 959 1056 
Q 959 750 1161 570 
Q 1363 391 1709 391 
Q 2188 391 2477 730 
Q 2766 1069 2766 1631 
L 2766 1759 
L 2194 1759 
z
M 3341 1997 
L 3341 0 
L 2766 0 
L 2766 531 
Q 2569 213 2275 61 
Q 1981 -91 1556 -91 
Q 1019 -91 701 211 
Q 384 513 384 1019 
Q 384 1609 779 1909 
Q 1175 2209 1959 2209 
L 2766 2209 
L 2766 2266 
Q 2766 2663 2505 2880 
Q 2244 3097 1772 3097 
Q 1472 3097 1187 3025 
Q 903 2953 641 2809 
L 641 3341 
Q 956 3463 1253 3523 
Q 1550 3584 1831 3584 
Q 2591 3584 2966 3190 
Q 3341 2797 3341 1997 
z
" transform="scale(0.015625)"/>
       <path id="DejaVuSans-6e" d="M 3513 2113 
L 3513 0 
L 2938 0 
L 2938 2094 
Q 2938 2591 2744 2837 
Q 2550 3084 2163 3084 
Q 1697 3084 1428 2787 
Q 1159 2491 1159 1978 
L 1159 0 
L 581 0 
L 581 3500 
L 1159 3500 
L 1159 2956 
Q 1366 3272 1645 3428 
Q 1925 3584 2291 3584 
Q 2894 3584 3203 3211 
Q 3513 2838 3513 2113 
z
" transform="scale(0.015625)"/>
       <path id="DejaVuSans-1ef1" d="M 3094 3136 
L 3094 3508 
Q 3285 3367 3422 3300 
Q 3560 3233 3657 3233 
Q 3800 3233 3872 3319 
Q 3944 3405 3944 3573 
Q 3944 3673 3920 3770 
Q 3897 3867 3850 3964 
L 4266 3964 
Q 4297 3845 4312 3739 
Q 4328 3633 4328 3539 
Q 4328 3158 4192 2978 
Q 4057 2798 3766 2798 
Q 3616 2798 3452 2881 
Q 3288 2964 3094 3136 
z
M 552 1381 
L 552 3500 
L 1127 3500 
L 1127 1403 
Q 1127 906 1320 657 
Q 1514 409 1902 409 
Q 2367 409 2637 706 
Q 2908 1003 2908 1516 
L 2908 3500 
L 3483 3500 
L 3483 0 
L 2908 0 
L 2908 538 
Q 2699 219 2422 64 
Q 2146 -91 1780 -91 
Q 1177 -91 864 284 
Q 552 659 552 1381 
z
M 1999 3584 
L 1999 3584 
z
M 1690 -441 
L 2265 -441 
L 2265 -1172 
L 1690 -1172 
L 1690 -441 
z
" transform="scale(0.015625)"/>
       <path id="DejaVuSans-63" d="M 3122 3366 
L 3122 2828 
Q 2878 2963 2633 3030 
Q 2388 3097 2138 3097 
Q 1578 3097 1268 2742 
Q 959 2388 959 1747 
Q 959 1106 1268 751 
Q 1578 397 2138 397 
Q 2388 397 2633 464 
Q 2878 531 3122 666 
L 3122 134 
Q 2881 22 2623 -34 
Q 2366 -91 2075 -91 
Q 1284 -91 818 406 
Q 353 903 353 1747 
Q 353 2603 823 3093 
Q 1294 3584 2113 3584 
Q 2378 3584 2631 3529 
Q 2884 3475 3122 3366 
z
" transform="scale(0.015625)"/>
       <path id="DejaVuSans-74" d="M 1172 4494 
L 1172 3500 
L 2356 3500 
L 2356 3053 
L 1172 3053 
L 1172 1153 
Q 1172 725 1289 603 
Q 1406 481 1766 481 
L 2356 481 
L 2356 0 
L 1766 0 
Q 1100 0 847 248 
Q 594 497 594 1153 
L 594 3053 
L 172 3053 
L 172 3500 
L 594 3500 
L 594 4494 
L 1172 4494 
z
" transform="scale(0.015625)"/>
       <path id="DejaVuSans-1ebf" d="M 1738 4775 
L 2326 4775 
L 2985 3944 
L 2551 3944 
L 2032 4500 
L 1513 3944 
L 1079 3944 
L 1738 4775 
z
M 3348 5409 
L 3926 5409 
L 3214 4584 
L 2735 4584 
L 3348 5409 
z
M 3597 1894 
L 3597 1613 
L 953 1613 
Q 991 1019 1311 708 
Q 1631 397 2203 397 
Q 2534 397 2845 478 
Q 3156 559 3463 722 
L 3463 178 
Q 3153 47 2828 -22 
Q 2503 -91 2169 -91 
Q 1331 -91 842 396 
Q 353 884 353 1716 
Q 353 2575 817 3079 
Q 1281 3584 2069 3584 
Q 2775 3584 3186 3129 
Q 3597 2675 3597 1894 
z
M 3022 2063 
Q 3016 2534 2758 2815 
Q 2500 3097 2075 3097 
Q 1594 3097 1305 2825 
Q 1016 2553 972 2059 
L 3022 2063 
z
" transform="scale(0.015625)"/>
      </defs>
      <use xlink:href="#DejaVuSans-54"/>
      <use xlink:href="#DejaVuSans-68" transform="translate(61.083984 0)"/>
      <use xlink:href="#DejaVuSans-1edd" transform="translate(124.462891 0)"/>
      <use xlink:href="#DejaVuSans-69" transform="translate(185.644531 0)"/>
      <use xlink:href="#DejaVuSans-20" transform="translate(213.427734 0)"/>
      <use xlink:href="#DejaVuSans-67" transform="translate(245.214844 0)"/>
      <use xlink:href="#DejaVuSans-69" transform="translate(308.691406 0)"/>
      <use xlink:href="#DejaVuSans-61" transform="translate(336.474609 0)"/>
      <use xlink:href="#DejaVuSans-6e" transform="translate(397.753906 0)"/>
      <use xlink:href="#DejaVuSans-20" transform="translate(461.132812 0)"/>
      <use xlink:href="#DejaVuSans-54" transform="translate(492.919922 0)"/>
      <use xlink:href="#DejaVuSans-68" transform="translate(554.003906 0)"/>
      <use xlink:href="#DejaVuSans-1ef1" transform="translate(617.382812 0)"/>
      <use xlink:href="#DejaVuSans-63" transform="translate(680.761719 0)"/>
      <use xlink:href="#DejaVuSans-20" transform="translate(735.742188 0)"/>
      <use xlink:href="#DejaVuSans-74" transform="translate(767.529297 0)"/>
      <use xlink:href="#DejaVuSans-1ebf" transform="translate(806.738281 0)"/>
     </g>
    </g>
   </g>
   <g id="matplotlib.axis_2">
    <g id="ytick_1">
     <g id="line2d_7">
      <path d="M 65.27 329.604246 
L 853.2 329.604246 
" clip-path="url(#pc5c891ff6f)" style="fill: none; stroke-dasharray: 2.96,1.28; stroke-dashoffset: 0; stroke: #b0b0b0; stroke-opacity: 0.6; stroke-width: 0.8"/>
     </g>
     <g id="line2d_8">
      <defs>
       <path id="mefc5e95b50" d="M 0 0 
L -3.5 0 
" style="stroke: #000000; stroke-width: 0.8"/>
      </defs>
      <g>
       <use xlink:href="#mefc5e95b50" x="65.27" y="329.604246" style="stroke: #000000; stroke-width: 0.8"/>
      </g>
     </g>
     <g id="text_5">
      <!-- −0.12 -->
      <g transform="translate(27.624688 333.403465) scale(0.1 -0.1)">
       <defs>
        <path id="DejaVuSans-2212" d="M 678 2272 
L 4684 2272 
L 4684 1741 
L 678 1741 
L 678 2272 
z
" transform="scale(0.015625)"/>
        <path id="DejaVuSans-2e" d="M 684 794 
L 1344 794 
L 1344 0 
L 684 0 
L 684 794 
z
" transform="scale(0.015625)"/>
       </defs>
       <use xlink:href="#DejaVuSans-2212"/>
       <use xlink:href="#DejaVuSans-30" transform="translate(83.789062 0)"/>
       <use xlink:href="#DejaVuSans-2e" transform="translate(147.412109 0)"/>
       <use xlink:href="#DejaVuSans-31" transform="translate(179.199219 0)"/>
       <use xlink:href="#DejaVuSans-32" transform="translate(242.822266 0)"/>
      </g>
     </g>
    </g>
    <g id="ytick_2">
     <g id="line2d_9">
      <path d="M 65.27 282.23622 
L 853.2 282.23622 
" clip-path="url(#pc5c891ff6f)" style="fill: none; stroke-dasharray: 2.96,1.28; stroke-dashoffset: 0; stroke: #b0b0b0; stroke-opacity: 0.6; stroke-width: 0.8"/>
     </g>
     <g id="line2d_10">
      <g>
       <use xlink:href="#mefc5e95b50" x="65.27" y="282.23622" style="stroke: #000000; stroke-width: 0.8"/>
      </g>
     </g>
     <g id="text_6">
      <!-- −0.10 -->
      <g transform="translate(27.624688 286.035438) scale(0.1 -0.1)">
       <use xlink:href="#DejaVuSans-2212"/>
       <use xlink:href="#DejaVuSans-30" transform="translate(83.789062 0)"/>
       <use xlink:href="#DejaVuSans-2e" transform="translate(147.412109 0)"/>
       <use xlink:href="#DejaVuSans-31" transform="translate(179.199219 0)"/>
       <use xlink:href="#DejaVuSans-30" transform="translate(242.822266 0)"/>
      </g>
     </g>
    </g>
    <g id="ytick_3">
     <g id="line2d_11">
      <path d="M 65.27 234.868193 
L 853.2 234.868193 
" clip-path="url(#pc5c891ff6f)" style="fill: none; stroke-dasharray: 2.96,1.28; stroke-dashoffset: 0; stroke: #b0b0b0; stroke-opacity: 0.6; stroke-width: 0.8"/>
     </g>
     <g id="line2d_12">
      <g>
       <use xlink:href="#mefc5e95b50" x="65.27" y="234.868193" style="stroke: #000000; stroke-width: 0.8"/>
      </g>
     </g>
     <g id="text_7">
      <!-- −0.08 -->
      <g transform="translate(27.624688 238.667412) scale(0.1 -0.1)">
       <defs>
        <path id="DejaVuSans-38" d="M 2034 2216 
Q 1584 2216 1326 1975 
Q 1069 1734 1069 1313 
Q 1069 891 1326 650 
Q 1584 409 2034 409 
Q 2484 409 2743 651 
Q 3003 894 3003 1313 
Q 3003 1734 2745 1975 
Q 2488 2216 2034 2216 
z
M 1403 2484 
Q 997 2584 770 2862 
Q 544 3141 544 3541 
Q 544 4100 942 4425 
Q 1341 4750 2034 4750 
Q 2731 4750 3128 4425 
Q 3525 4100 3525 3541 
Q 3525 3141 3298 2862 
Q 3072 2584 2669 2484 
Q 3125 2378 3379 2068 
Q 3634 1759 3634 1313 
Q 3634 634 3220 271 
Q 2806 -91 2034 -91 
Q 1263 -91 848 271 
Q 434 634 434 1313 
Q 434 1759 690 2068 
Q 947 2378 1403 2484 
z
M 1172 3481 
Q 1172 3119 1398 2916 
Q 1625 2713 2034 2713 
Q 2441 2713 2670 2916 
Q 2900 3119 2900 3481 
Q 2900 3844 2670 4047 
Q 2441 4250 2034 4250 
Q 1625 4250 1398 4047 
Q 1172 3844 1172 3481 
z
" transform="scale(0.015625)"/>
       </defs>
       <use xlink:href="#DejaVuSans-2212"/>
       <use xlink:href="#DejaVuSans-30" transform="translate(83.789062 0)"/>
       <use xlink:href="#DejaVuSans-2e" transform="translate(147.412109 0)"/>
       <use xlink:href="#DejaVuSans-30" transform="translate(179.199219 0)"/>
       <use xlink:href="#DejaVuSans-38" transform="translate(242.822266 0)"/>
      </g>
     </g>
    </g>
    <g id="ytick_4">
     <g id="line2d_13">
      <path d="M 65.27 187.500167 
L 853.2 187.500167 
" clip-path="url(#pc5c891ff6f)" style="fill: none; stroke-dasharray: 2.96,1.28; stroke-dashoffset: 0; stroke: #b0b0b0; stroke-opacity: 0.6; stroke-width: 0.8"/>
     </g>
     <g id="line2d_14">
      <g>
       <use xlink:href="#mefc5e95b50" x="65.27" y="187.500167" style="stroke: #000000; stroke-width: 0.8"/>
      </g>
     </g>
     <g id="text_8">
      <!-- −0.06 -->
      <g transform="translate(27.624688 191.299386) scale(0.1 -0.1)">
       <defs>
        <path id="DejaVuSans-36" d="M 2113 2584 
Q 1688 2584 1439 2293 
Q 1191 2003 1191 1497 
Q 1191 994 1439 701 
Q 1688 409 2113 409 
Q 2538 409 2786 701 
Q 3034 994 3034 1497 
Q 3034 2003 2786 2293 
Q 2538 2584 2113 2584 
z
M 3366 4563 
L 3366 3988 
Q 3128 4100 2886 4159 
Q 2644 4219 2406 4219 
Q 1781 4219 1451 3797 
Q 1122 3375 1075 2522 
Q 1259 2794 1537 2939 
Q 1816 3084 2150 3084 
Q 2853 3084 3261 2657 
Q 3669 2231 3669 1497 
Q 3669 778 3244 343 
Q 2819 -91 2113 -91 
Q 1303 -91 875 529 
Q 447 1150 447 2328 
Q 447 3434 972 4092 
Q 1497 4750 2381 4750 
Q 2619 4750 2861 4703 
Q 3103 4656 3366 4563 
z
" transform="scale(0.015625)"/>
       </defs>
       <use xlink:href="#DejaVuSans-2212"/>
       <use xlink:href="#DejaVuSans-30" transform="translate(83.789062 0)"/>
       <use xlink:href="#DejaVuSans-2e" transform="translate(147.412109 0)"/>
       <use xlink:href="#DejaVuSans-30" transform="translate(179.199219 0)"/>
       <use xlink:href="#DejaVuSans-36" transform="translate(242.822266 0)"/>
      </g>
     </g>
    </g>
    <g id="ytick_5">
     <g id="line2d_15">
      <path d="M 65.27 140.132141 
L 853.2 140.132141 
" clip-path="url(#pc5c891ff6f)" style="fill: none; stroke-dasharray: 2.96,1.28; stroke-dashoffset: 0; stroke: #b0b0b0; stroke-opacity: 0.6; stroke-width: 0.8"/>
     </g>
     <g id="line2d_16">
      <g>
       <use xlink:href="#mefc5e95b50" x="65.27" y="140.132141" style="stroke: #000000; stroke-width: 0.8"/>
      </g>
     </g>
     <g id="text_9">
      <!-- −0.04 -->
      <g transform="translate(27.624688 143.931359) scale(0.1 -0.1)">
       <defs>
        <path id="DejaVuSans-34" d="M 2419 4116 
L 825 1625 
L 2419 1625 
L 2419 4116 
z
M 2253 4666 
L 3047 4666 
L 3047 1625 
L 3713 1625 
L 3713 1100 
L 3047 1100 
L 3047 0 
L 2419 0 
L 2419 1100 
L 313 1100 
L 313 1709 
L 2253 4666 
z
" transform="scale(0.015625)"/>
       </defs>
       <use xlink:href="#DejaVuSans-2212"/>
       <use xlink:href="#DejaVuSans-30" transform="translate(83.789062 0)"/>
       <use xlink:href="#DejaVuSans-2e" transform="translate(147.412109 0)"/>
       <use xlink:href="#DejaVuSans-30" transform="translate(179.199219 0)"/>
       <use xlink:href="#DejaVuSans-34" transform="translate(242.822266 0)"/>
      </g>
     </g>
    </g>
    <g id="ytick_6">
     <g id="line2d_17">
      <path d="M 65.27 92.764114 
L 853.2 92.764114 
" clip-path="url(#pc5c891ff6f)" style="fill: none; stroke-dasharray: 2.96,1.28; stroke-dashoffset: 0; stroke: #b0b0b0; stroke-opacity: 0.6; stroke-width: 0.8"/>
     </g>
     <g id="line2d_18">
      <g>
       <use xlink:href="#mefc5e95b50" x="65.27" y="92.764114" style="stroke: #000000; stroke-width: 0.8"/>
      </g>
     </g>
     <g id="text_10">
      <!-- −0.02 -->
      <g transform="translate(27.624688 96.563333) scale(0.1 -0.1)">
       <use xlink:href="#DejaVuSans-2212"/>
       <use xlink:href="#DejaVuSans-30" transform="translate(83.789062 0)"/>
       <use xlink:href="#DejaVuSans-2e" transform="translate(147.412109 0)"/>
       <use xlink:href="#DejaVuSans-30" transform="translate(179.199219 0)"/>
       <use xlink:href="#DejaVuSans-32" transform="translate(242.822266 0)"/>
      </g>
     </g>
    </g>
    <g id="ytick_7">
     <g id="line2d_19">
      <path d="M 65.27 45.396088 
L 853.2 45.396088 
" clip-path="url(#pc5c891ff6f)" style="fill: none; stroke-dasharray: 2.96,1.28; stroke-dashoffset: 0; stroke: #b0b0b0; stroke-opacity: 0.6; stroke-width: 0.8"/>
     </g>
     <g id="line2d_20">
      <g>
       <use xlink:href="#mefc5e95b50" x="65.27" y="45.396088" style="stroke: #000000; stroke-width: 0.8"/>
      </g>
     </g>
     <g id="text_11">
      <!-- 0.00 -->
      <g transform="translate(36.004375 49.195307) scale(0.1 -0.1)">
       <use xlink:href="#DejaVuSans-30"/>
       <use xlink:href="#DejaVuSans-2e" transform="translate(63.623047 0)"/>
       <use xlink:href="#DejaVuSans-30" transform="translate(95.410156 0)"/>
       <use xlink:href="#DejaVuSans-30" transform="translate(159.033203 0)"/>
      </g>
     </g>
    </g>
    <g id="text_12">
     <!-- Return (%) -->
     <g transform="translate(21.129063 218.204607) rotate(-90) scale(0.12 -0.12)">
      <defs>
       <path id="DejaVuSans-52" d="M 2841 2188 
Q 3044 2119 3236 1894 
Q 3428 1669 3622 1275 
L 4263 0 
L 3584 0 
L 2988 1197 
Q 2756 1666 2539 1819 
Q 2322 1972 1947 1972 
L 1259 1972 
L 1259 0 
L 628 0 
L 628 4666 
L 2053 4666 
Q 2853 4666 3247 4331 
Q 3641 3997 3641 3322 
Q 3641 2881 3436 2590 
Q 3231 2300 2841 2188 
z
M 1259 4147 
L 1259 2491 
L 2053 2491 
Q 2509 2491 2742 2702 
Q 2975 2913 2975 3322 
Q 2975 3731 2742 3939 
Q 2509 4147 2053 4147 
L 1259 4147 
z
" transform="scale(0.015625)"/>
       <path id="DejaVuSans-65" d="M 3597 1894 
L 3597 1613 
L 953 1613 
Q 991 1019 1311 708 
Q 1631 397 2203 397 
Q 2534 397 2845 478 
Q 3156 559 3463 722 
L 3463 178 
Q 3153 47 2828 -22 
Q 2503 -91 2169 -91 
Q 1331 -91 842 396 
Q 353 884 353 1716 
Q 353 2575 817 3079 
Q 1281 3584 2069 3584 
Q 2775 3584 3186 3129 
Q 3597 2675 3597 1894 
z
M 3022 2063 
Q 3016 2534 2758 2815 
Q 2500 3097 2075 3097 
Q 1594 3097 1305 2825 
Q 1016 2553 972 2059 
L 3022 2063 
z
" transform="scale(0.015625)"/>
       <path id="DejaVuSans-75" d="M 544 1381 
L 544 3500 
L 1119 3500 
L 1119 1403 
Q 1119 906 1312 657 
Q 1506 409 1894 409 
Q 2359 409 2629 706 
Q 2900 1003 2900 1516 
L 2900 3500 
L 3475 3500 
L 3475 0 
L 2900 0 
L 2900 538 
Q 2691 219 2414 64 
Q 2138 -91 1772 -91 
Q 1169 -91 856 284 
Q 544 659 544 1381 
z
M 1991 3584 
L 1991 3584 
z
" transform="scale(0.015625)"/>
       <path id="DejaVuSans-72" d="M 2631 2963 
Q 2534 3019 2420 3045 
Q 2306 3072 2169 3072 
Q 1681 3072 1420 2755 
Q 1159 2438 1159 1844 
L 1159 0 
L 581 0 
L 581 3500 
L 1159 3500 
L 1159 2956 
Q 1341 3275 1631 3429 
Q 1922 3584 2338 3584 
Q 2397 3584 2469 3576 
Q 2541 3569 2628 3553 
L 2631 2963 
z
" transform="scale(0.015625)"/>
       <path id="DejaVuSans-28" d="M 1984 4856 
Q 1566 4138 1362 3434 
Q 1159 2731 1159 2009 
Q 1159 1288 1364 580 
Q 1569 -128 1984 -844 
L 1484 -844 
Q 1016 -109 783 600 
Q 550 1309 550 2009 
Q 550 2706 781 3412 
Q 1013 4119 1484 4856 
L 1984 4856 
z
" transform="scale(0.015625)"/>
       <path id="DejaVuSans-25" d="M 4653 2053 
Q 4381 2053 4226 1822 
Q 4072 1591 4072 1178 
Q 4072 772 4226 539 
Q 4381 306 4653 306 
Q 4919 306 5073 539 
Q 5228 772 5228 1178 
Q 5228 1588 5073 1820 
Q 4919 2053 4653 2053 
z
M 4653 2450 
Q 5147 2450 5437 2106 
Q 5728 1763 5728 1178 
Q 5728 594 5436 251 
Q 5144 -91 4653 -91 
Q 4153 -91 3862 251 
Q 3572 594 3572 1178 
Q 3572 1766 3864 2108 
Q 4156 2450 4653 2450 
z
M 1428 4353 
Q 1159 4353 1004 4120 
Q 850 3888 850 3481 
Q 850 3069 1003 2837 
Q 1156 2606 1428 2606 
Q 1700 2606 1854 2837 
Q 2009 3069 2009 3481 
Q 2009 3884 1853 4118 
Q 1697 4353 1428 4353 
z
M 4250 4750 
L 4750 4750 
L 1831 -91 
L 1331 -91 
L 4250 4750 
z
M 1428 4750 
Q 1922 4750 2215 4408 
Q 2509 4066 2509 3481 
Q 2509 2891 2217 2550 
Q 1925 2209 1428 2209 
Q 931 2209 642 2551 
Q 353 2894 353 3481 
Q 353 4063 643 4406 
Q 934 4750 1428 4750 
z
" transform="scale(0.015625)"/>
       <path id="DejaVuSans-29" d="M 513 4856 
L 1013 4856 
Q 1481 4119 1714 3412 
Q 1947 2706 1947 2009 
Q 1947 1309 1714 600 
Q 1481 -109 1013 -844 
L 513 -844 
Q 928 -128 1133 580 
Q 1338 1288 1338 2009 
Q 1338 2731 1133 3434 
Q 928 4138 513 4856 
z
" transform="scale(0.015625)"/>
      </defs>
      <use xlink:href="#DejaVuSans-52"/>
      <use xlink:href="#DejaVuSans-65" transform="translate(64.982422 0)"/>
      <use xlink:href="#DejaVuSans-74" transform="translate(126.505859 0)"/>
      <use xlink:href="#DejaVuSans-75" transform="translate(165.714844 0)"/>
      <use xlink:href="#DejaVuSans-72" transform="translate(229.09375 0)"/>
      <use xlink:href="#DejaVuSans-6e" transform="translate(268.457031 0)"/>
      <use xlink:href="#DejaVuSans-20" transform="translate(331.835938 0)"/>
      <use xlink:href="#DejaVuSans-28" transform="translate(363.623047 0)"/>
      <use xlink:href="#DejaVuSans-25" transform="translate(402.636719 0)"/>
      <use xlink:href="#DejaVuSans-29" transform="translate(497.65625 0)"/>
     </g>
    </g>
   </g>
   <g id="line2d_21">
    <path d="M 101.085 45.396088 
L 343.351373 45.396088 
L 343.36456 47.189441 
L 343.45555 45.29472 
L 343.637965 47.189441 
L 343.64627 46.715761 
L 343.712418 44.82104 
L 343.714253 45.53156 
L 343.730984 43.636839 
L 343.793376 47.663122 
L 343.904283 52.873604 
L 344.063459 63.924565 
L 344.519994 63.924565 
L 344.677725 77.027272 
L 344.954019 77.027272 
L 345.055895 87.498684 
L 345.106156 87.498684 
L 345.281346 95.839365 
L 345.311669 95.839365 
L 345.544437 118.940514 
L 567.786208 118.940514 
L 567.862278 133.599498 
L 567.870227 132.888977 
L 567.947033 133.836338 
L 568.014769 142.178202 
L 568.071747 139.099281 
L 568.081985 138.862441 
L 568.104127 140.283481 
L 568.152942 139.336121 
L 568.274671 141.230842 
L 568.379536 137.91508 
L 568.412314 138.6256 
L 568.58049 134.362478 
L 568.647121 135.546679 
L 568.675495 136.257199 
L 568.694265 134.836158 
L 568.762248 135.783519 
L 568.803369 136.494039 
L 568.79412 135.546679 
L 568.857183 135.546679 
L 568.918497 133.178277 
L 568.956886 135.309839 
L 569.084923 137.4414 
L 569.096353 137.20456 
L 569.100371 136.257199 
L 569.186714 138.6256 
L 569.192332 138.6256 
L 569.257439 140.283481 
L 569.281346 139.099281 
L 569.371413 138.15192 
L 569.376771 138.38876 
L 569.474573 139.572961 
L 569.495683 139.099281 
L 569.590835 137.67824 
L 569.659195 139.099281 
L 569.721461 138.6256 
L 569.757609 136.730879 
L 569.821549 137.91508 
L 569.8694 138.6256 
L 569.898095 137.4414 
L 569.936448 138.15192 
L 569.957953 138.15192 
L 570.00391 137.91508 
L 570.072297 139.099281 
L 570.093661 138.38876 
L 570.10478 139.809801 
L 570.18112 138.6256 
L 570.188722 139.572961 
L 570.228125 138.38876 
L 570.286032 139.099281 
L 570.318105 137.67824 
L 570.386266 138.862441 
L 570.441265 141.230842 
L 570.50366 140.046641 
L 570.55037 138.15192 
L 570.642495 138.862441 
L 570.668466 138.38876 
L 570.703152 139.572961 
L 570.705668 139.572961 
L 570.709932 139.809801 
L 570.72953 138.6256 
L 570.802222 138.862441 
L 570.807032 138.862441 
L 570.831349 139.099281 
L 570.964442 137.4414 
L 570.97013 138.38876 
L 571.053932 136.730879 
L 571.058528 137.20456 
L 571.085652 135.783519 
L 571.171613 136.96772 
L 571.184678 136.96772 
L 571.226716 135.783519 
L 571.272103 137.91508 
L 571.290445 137.91508 
L 571.294528 137.91508 
L 571.397841 138.862441 
L 571.418718 138.15192 
L 571.420287 137.20456 
L 571.516265 141.230842 
L 571.520857 140.994002 
L 571.659857 138.862441 
L 571.66437 139.099281 
L 571.7001 139.809801 
L 571.734847 138.6256 
L 571.763624 138.862441 
L 572.074686 126.309914 
L 576.97419 124.415193 
L 577.011223 119.91523 
L 577.137125 122.046791 
L 577.231297 124.415193 
L 577.252962 124.178352 
L 577.307913 123.230992 
L 577.360176 123.467832 
L 577.472386 124.415193 
L 577.481291 124.178352 
L 577.574762 121.336271 
L 577.597868 123.230992 
L 577.669473 125.125713 
L 577.719377 124.652033 
L 577.791672 124.888873 
L 577.856438 123.941512 
L 577.873719 123.230992 
L 577.944916 124.178352 
L 577.975569 123.704672 
L 578.013749 124.415193 
L 578.015807 124.178352 
L 578.033512 125.125713 
L 578.113962 123.704672 
L 578.120201 123.704672 
L 578.189531 120.62575 
L 578.151896 124.415193 
L 578.236789 122.994152 
L 578.261639 122.994152 
L 578.285341 122.520471 
L 578.31974 124.888873 
L 578.42541 127.730954 
L 578.438992 127.494114 
L 578.500365 125.599393 
L 578.583624 126.546754 
L 578.59122 127.257274 
L 578.643361 124.888873 
L 578.676733 124.888873 
L 578.687882 125.125713 
L 578.734668 123.467832 
L 578.752403 122.520471 
L 578.773583 124.178352 
L 578.788523 124.178352 
L 578.799813 124.178352 
L 578.80427 123.941512 
L 578.85109 125.836233 
L 578.881295 125.125713 
L 578.935356 126.309914 
L 578.990929 125.125713 
L 579.067958 127.257274 
L 579.077159 126.073073 
L 579.241791 121.099431 
L 579.243438 121.336271 
L 579.316201 122.520471 
L 579.329283 120.62575 
L 579.332913 121.336271 
L 579.360923 117.073148 
L 579.440076 119.20471 
L 579.563763 122.994152 
L 579.577139 122.283631 
L 579.602147 121.336271 
L 579.638086 123.704672 
L 579.65795 123.230992 
L 579.767573 124.652033 
L 579.673307 122.520471 
L 579.768499 124.415193 
L 579.807579 125.599393 
L 579.848542 124.652033 
L 579.970674 122.046791 
L 579.971355 122.520471 
L 579.991831 123.230992 
L 580.035298 121.573111 
L 580.038521 121.573111 
L 580.055645 119.67839 
L 580.08087 123.230992 
L 580.111388 122.520471 
L 580.144967 122.757312 
L 580.238719 123.941512 
L 580.251219 123.230992 
L 580.300371 118.731029 
L 580.394845 120.38891 
L 580.527637 136.494039 
L 580.726305 135.309839 
L 580.733809 135.072998 
L 580.753576 137.67824 
L 580.774073 135.783519 
L 580.778878 137.4414 
L 580.865386 135.072998 
L 580.884918 136.020359 
L 580.975279 136.730879 
L 580.93336 134.599318 
L 580.989404 135.309839 
L 580.991194 134.836158 
L 581.043468 140.757162 
L 581.07838 140.046641 
L 581.178658 152.544932 
L 581.28793 168.148315 
L 581.291343 166.964114 
L 581.361352 179.462642 
L 581.415913 185.304067 
L 581.48275 183.646186 
L 581.486806 182.225145 
L 581.511478 187.566837 
L 581.58019 187.566837 
L 581.834986 187.566837 
L 581.847686 189.356165 
L 582.728781 192.3291 
L 642.160637 194.118783 
L 642.168218 193.881943 
L 642.205041 195.066143 
L 642.320719 197.092074 
L 648.927744 197.092074 
L 649.043468 204.720458 
L 649.108961 204.720458 
L 649.141349 206.509311 
L 649.214099 204.37775 
L 649.216715 204.61459 
L 649.224286 204.37775 
L 649.266131 206.272471 
L 649.269801 205.561951 
L 649.399875 221.635698 
L 649.443557 221.635698 
L 649.560592 225.687086 
L 649.611568 225.687086 
L 649.718603 229.501514 
L 649.774338 229.501514 
L 649.809364 231.29096 
L 649.821795 227.264678 
L 649.890574 230.106759 
L 649.932156 230.580439 
L 650.03176 227.501518 
L 650.102255 229.633079 
L 650.157279 229.396239 
L 650.232575 230.106759 
L 650.268928 227.738358 
L 650.272533 229.396239 
L 650.285862 227.975198 
L 655.208598 226.317317 
L 655.30823 227.975198 
L 655.332951 227.738358 
L 655.347968 227.738358 
L 655.44717 228.922559 
L 655.390407 226.080477 
L 655.461889 228.448878 
L 655.561418 227.975198 
L 655.469508 228.685718 
L 655.56718 228.448878 
L 655.576153 228.448878 
L 655.599879 229.869919 
L 655.693445 229.159399 
L 655.711753 229.633079 
L 655.760123 228.448878 
L 655.793558 229.159399 
L 655.796335 228.922559 
L 655.882305 230.81728 
L 655.920376 240.104729 
L 656.032971 244.86711 
L 656.07494 244.63027 
L 656.086387 247.603206 
L 656.116887 247.603206 
L 656.249783 247.603206 
L 656.368178 254.628002 
L 656.370452 254.628002 
L 656.490796 260.468717 
L 656.564598 260.468717 
L 656.650248 263.206233 
L 656.684351 262.495713 
L 656.698196 262.258873 
L 656.73068 258.943111 
L 656.799643 259.653631 
L 656.905105 261.785193 
L 656.986916 262.495713 
L 656.930256 261.548353 
L 657.013961 262.022033 
L 657.08078 259.890472 
L 657.119954 261.311512 
L 657.1897 262.495713 
L 657.214648 261.548353 
L 657.238772 260.600992 
L 657.288089 262.732553 
L 657.294654 262.732553 
L 657.310312 263.679914 
L 657.397611 262.732553 
L 657.418944 261.785193 
L 657.493169 262.969393 
L 657.496874 262.732553 
L 657.519061 268.205692 
L 657.640053 275.704287 
L 658.675609 275.704287 
L 658.694243 274.414811 
L 658.828764 289.993681 
L 658.862428 289.993681 
L 658.980436 294.046016 
L 660.937414 294.046016 
L 720.393422 295.836764 
L 720.406661 296.073604 
L 720.453008 294.652564 
L 720.464639 294.652564 
L 720.579628 293.231523 
L 720.619614 293.468363 
L 720.62885 293.231523 
L 720.681199 292.047322 
L 720.737593 292.521002 
L 720.789821 290.389441 
L 720.892832 291.336802 
L 720.900148 291.573642 
L 720.934534 289.915761 
L 720.959377 290.152601 
L 720.98934 289.678921 
L 721.068135 290.152601 
L 721.175373 288.9684 
L 721.201153 289.678921 
L 721.237452 291.099962 
L 721.260547 290.863121 
L 721.344151 291.336802 
L 721.347075 291.099962 
L 721.503004 285.889479 
L 721.599967 286.836839 
L 721.69682 287.54736 
L 721.747859 286.363159 
L 721.76171 287.310519 
L 721.837883 287.54736 
L 721.977289 290.152601 
L 722.004404 289.442081 
L 722.028444 289.20524 
L 722.042169 290.152601 
L 722.046333 289.915761 
L 722.087782 290.863121 
L 722.162078 290.626281 
L 722.245738 289.678921 
L 722.257609 290.152601 
L 722.269062 291.336802 
L 722.27998 288.9684 
L 722.362363 289.915761 
L 722.384224 289.915761 
L 722.486027 289.20524 
L 722.388561 290.389441 
L 722.495183 289.442081 
L 722.499128 289.442081 
L 722.502718 289.20524 
L 722.582804 290.863121 
L 722.591453 290.626281 
L 722.653495 292.284162 
L 722.747139 291.573642 
L 722.770006 291.099962 
L 722.841572 292.047322 
L 722.842499 291.810482 
L 722.908734 292.757842 
L 722.952013 291.573642 
L 722.965972 292.047322 
L 723.047439 289.915761 
L 723.168299 291.336802 
L 723.1915 290.863121 
L 723.281659 286.126319 
L 723.290203 286.836839 
L 723.375492 288.02104 
L 723.40451 287.073679 
L 723.442249 285.178958 
L 723.51327 286.599999 
L 723.532256 286.363159 
L 723.564001 287.310519 
L 723.567647 287.310519 
L 723.57027 287.54736 
L 723.612501 286.126319 
L 723.668423 287.073679 
L 723.79499 285.652639 
L 723.714218 287.54736 
L 723.798764 285.889479 
L 723.861054 285.178958 
L 723.913146 286.363159 
L 723.985569 284.942118 
L 724.031092 285.415798 
L 724.077697 284.942118 
L 724.090632 285.178958 
L 724.117545 283.521077 
L 724.188237 285.415798 
L 724.246164 283.757917 
L 724.305684 284.942118 
L 724.320452 284.942118 
L 724.445808 286.599999 
L 724.446921 286.363159 
L 724.470959 286.363159 
L 724.481799 285.652639 
L 724.541373 286.836839 
L 724.586774 285.889479 
L 724.621116 286.836839 
L 724.592177 285.652639 
L 724.691837 286.599999 
L 724.827652 287.54736 
L 724.831183 287.073679 
L 724.923084 286.126319 
L 724.840485 287.310519 
L 724.942042 287.073679 
L 724.97796 287.310519 
L 724.998248 286.126319 
L 725.044766 286.599999 
L 725.057651 286.363159 
L 725.126366 287.073679 
L 725.29762 288.49472 
L 725.424971 287.7842 
L 725.428433 288.25788 
L 725.525841 287.310519 
L 725.533535 287.54736 
L 725.537136 287.310519 
L 725.626538 288.02104 
L 725.629136 287.7842 
L 725.714565 287.310519 
L 725.760557 288.49472 
L 725.774382 288.25788 
L 725.804817 289.20524 
L 725.896159 290.389441 
L 726.029757 289.20524 
L 726.091389 290.389441 
L 726.129383 290.152601 
L 726.191089 290.389441 
L 726.250244 289.20524 
L 726.293682 290.152601 
L 726.431338 292.521002 
L 726.469491 291.573642 
L 726.599265 289.442081 
L 726.648898 291.573642 
L 726.694411 290.626281 
L 726.738015 290.626281 
L 726.841282 288.25788 
L 726.750067 290.863121 
L 726.873755 288.49472 
L 726.953811 290.152601 
L 727.003814 289.20524 
L 727.020451 289.20524 
L 727.04191 288.73156 
L 727.098533 290.863121 
L 727.114168 290.389441 
L 727.133915 290.389441 
L 727.163446 290.152601 
L 727.186862 291.573642 
L 727.230513 290.863121 
L 727.301135 291.336802 
L 727.34003 290.626281 
L 727.343839 291.099962 
L 727.427574 289.442081 
L 727.561319 290.626281 
L 727.590335 290.626281 
L 727.86246 288.73156 
L 727.885709 289.20524 
L 728.019564 291.336802 
L 728.048332 290.152601 
L 728.12167 291.573642 
L 728.124503 292.284162 
L 728.16058 291.336802 
L 728.233442 291.810482 
L 728.23674 292.047322 
L 728.291858 290.863121 
L 728.326861 291.099962 
L 728.352868 290.626281 
L 728.376089 291.810482 
L 728.41997 291.573642 
L 728.431097 291.810482 
L 728.469059 290.626281 
L 728.505199 288.73156 
L 733.420888 287.54736 
L 733.523692 291.573642 
L 733.549282 290.389441 
L 733.606405 295.126244 
L 733.606534 294.415723 
L 733.739415 304.285917 
L 733.768901 304.285917 
L 734.358376 328.373625 
L 817.385 328.373625 
L 817.385 328.373625 
" clip-path="url(#pc5c891ff6f)" style="fill: none; stroke: #0000ff; stroke-width: 1.5; stroke-linecap: square"/>
   </g>
   <g id="patch_3">
    <path d="M 65.27 342.610464 
L 65.27 29.4 
" style="fill: none; stroke: #000000; stroke-width: 0.8; stroke-linejoin: miter; stroke-linecap: square"/>
   </g>
   <g id="patch_4">
    <path d="M 853.2 342.610464 
L 853.2 29.4 
" style="fill: none; stroke: #000000; stroke-width: 0.8; stroke-linejoin: miter; stroke-linecap: square"/>
   </g>
   <g id="patch_5">
    <path d="M 65.27 342.610464 
L 853.2 342.610464 
" style="fill: none; stroke: #000000; stroke-width: 0.8; stroke-linejoin: miter; stroke-linecap: square"/>
   </g>
   <g id="patch_6">
    <path d="M 65.27 29.4 
L 853.2 29.4 
" style="fill: none; stroke: #000000; stroke-width: 0.8; stroke-linejoin: miter; stroke-linecap: square"/>
   </g>
   <g id="text_13">
    <!-- Out-of-Sample HPR (VWAP Window: 6333) - 30% Cuối -->
    <g transform="translate(248.328281 23.4) scale(0.14 -0.14)">
     <defs>
      <path id="DejaVuSans-Bold-4f" d="M 2719 3878 
Q 2169 3878 1866 3472 
Q 1563 3066 1563 2328 
Q 1563 1594 1866 1187 
Q 2169 781 2719 781 
Q 3272 781 3575 1187 
Q 3878 1594 3878 2328 
Q 3878 3066 3575 3472 
Q 3272 3878 2719 3878 
z
M 2719 4750 
Q 3844 4750 4481 4106 
Q 5119 3463 5119 2328 
Q 5119 1197 4481 553 
Q 3844 -91 2719 -91 
Q 1597 -91 958 553 
Q 319 1197 319 2328 
Q 319 3463 958 4106 
Q 1597 4750 2719 4750 
z
" transform="scale(0.015625)"/>
      <path id="DejaVuSans-Bold-75" d="M 500 1363 
L 500 3500 
L 1625 3500 
L 1625 3150 
Q 1625 2866 1622 2436 
Q 1619 2006 1619 1863 
Q 1619 1441 1641 1255 
Q 1663 1069 1716 984 
Q 1784 875 1895 815 
Q 2006 756 2150 756 
Q 2500 756 2700 1025 
Q 2900 1294 2900 1772 
L 2900 3500 
L 4019 3500 
L 4019 0 
L 2900 0 
L 2900 506 
Q 2647 200 2364 54 
Q 2081 -91 1741 -91 
Q 1134 -91 817 281 
Q 500 653 500 1363 
z
" transform="scale(0.015625)"/>
      <path id="DejaVuSans-Bold-74" d="M 1759 4494 
L 1759 3500 
L 2913 3500 
L 2913 2700 
L 1759 2700 
L 1759 1216 
Q 1759 972 1856 886 
Q 1953 800 2241 800 
L 2816 800 
L 2816 0 
L 1856 0 
Q 1194 0 917 276 
Q 641 553 641 1216 
L 641 2700 
L 84 2700 
L 84 3500 
L 641 3500 
L 641 4494 
L 1759 4494 
z
" transform="scale(0.015625)"/>
      <path id="DejaVuSans-Bold-2d" d="M 347 2297 
L 2309 2297 
L 2309 1388 
L 347 1388 
L 347 2297 
z
" transform="scale(0.015625)"/>
      <path id="DejaVuSans-Bold-6f" d="M 2203 2784 
Q 1831 2784 1636 2517 
Q 1441 2250 1441 1747 
Q 1441 1244 1636 976 
Q 1831 709 2203 709 
Q 2569 709 2762 976 
Q 2956 1244 2956 1747 
Q 2956 2250 2762 2517 
Q 2569 2784 2203 2784 
z
M 2203 3584 
Q 3106 3584 3614 3096 
Q 4122 2609 4122 1747 
Q 4122 884 3614 396 
Q 3106 -91 2203 -91 
Q 1297 -91 786 396 
Q 275 884 275 1747 
Q 275 2609 786 3096 
Q 1297 3584 2203 3584 
z
" transform="scale(0.015625)"/>
      <path id="DejaVuSans-Bold-66" d="M 2841 4863 
L 2841 4128 
L 2222 4128 
Q 1984 4128 1890 4042 
Q 1797 3956 1797 3744 
L 1797 3500 
L 2753 3500 
L 2753 2700 
L 1797 2700 
L 1797 0 
L 678 0 
L 678 2700 
L 122 2700 
L 122 3500 
L 678 3500 
L 678 3744 
Q 678 4316 997 4589 
Q 1316 4863 1984 4863 
L 2841 4863 
z
" transform="scale(0.015625)"/>
      <path id="DejaVuSans-Bold-53" d="M 3834 4519 
L 3834 3531 
Q 3450 3703 3084 3790 
Q 2719 3878 2394 3878 
Q 1963 3878 1756 3759 
Q 1550 3641 1550 3391 
Q 1550 3203 1689 3098 
Q 1828 2994 2194 2919 
L 2706 2816 
Q 3484 2659 3812 2340 
Q 4141 2022 4141 1434 
Q 4141 663 3683 286 
Q 3225 -91 2284 -91 
Q 1841 -91 1394 -6 
Q 947 78 500 244 
L 500 1259 
Q 947 1022 1364 901 
Q 1781 781 2169 781 
Q 2563 781 2772 912 
Q 2981 1044 2981 1288 
Q 2981 1506 2839 1625 
Q 2697 1744 2272 1838 
L 1806 1941 
Q 1106 2091 782 2419 
Q 459 2747 459 3303 
Q 459 4000 909 4375 
Q 1359 4750 2203 4750 
Q 2588 4750 2994 4692 
Q 3400 4634 3834 4519 
z
" transform="scale(0.015625)"/>
      <path id="DejaVuSans-Bold-61" d="M 2106 1575 
Q 1756 1575 1579 1456 
Q 1403 1338 1403 1106 
Q 1403 894 1545 773 
Q 1688 653 1941 653 
Q 2256 653 2472 879 
Q 2688 1106 2688 1447 
L 2688 1575 
L 2106 1575 
z
M 3816 1997 
L 3816 0 
L 2688 0 
L 2688 519 
Q 2463 200 2181 54 
Q 1900 -91 1497 -91 
Q 953 -91 614 226 
Q 275 544 275 1050 
Q 275 1666 698 1953 
Q 1122 2241 2028 2241 
L 2688 2241 
L 2688 2328 
Q 2688 2594 2478 2717 
Q 2269 2841 1825 2841 
Q 1466 2841 1156 2769 
Q 847 2697 581 2553 
L 581 3406 
Q 941 3494 1303 3539 
Q 1666 3584 2028 3584 
Q 2975 3584 3395 3211 
Q 3816 2838 3816 1997 
z
" transform="scale(0.015625)"/>
      <path id="DejaVuSans-Bold-6d" d="M 3781 2919 
Q 3994 3244 4286 3414 
Q 4578 3584 4928 3584 
Q 5531 3584 5847 3212 
Q 6163 2841 6163 2131 
L 6163 0 
L 5038 0 
L 5038 1825 
Q 5041 1866 5042 1909 
Q 5044 1953 5044 2034 
Q 5044 2406 4934 2573 
Q 4825 2741 4581 2741 
Q 4263 2741 4089 2478 
Q 3916 2216 3909 1719 
L 3909 0 
L 2784 0 
L 2784 1825 
Q 2784 2406 2684 2573 
Q 2584 2741 2328 2741 
Q 2006 2741 1831 2477 
Q 1656 2213 1656 1722 
L 1656 0 
L 531 0 
L 531 3500 
L 1656 3500 
L 1656 2988 
Q 1863 3284 2130 3434 
Q 2397 3584 2719 3584 
Q 3081 3584 3359 3409 
Q 3638 3234 3781 2919 
z
" transform="scale(0.015625)"/>
      <path id="DejaVuSans-Bold-70" d="M 1656 506 
L 1656 -1331 
L 538 -1331 
L 538 3500 
L 1656 3500 
L 1656 2988 
Q 1888 3294 2169 3439 
Q 2450 3584 2816 3584 
Q 3463 3584 3878 3070 
Q 4294 2556 4294 1747 
Q 4294 938 3878 423 
Q 3463 -91 2816 -91 
Q 2450 -91 2169 54 
Q 1888 200 1656 506 
z
M 2400 2772 
Q 2041 2772 1848 2508 
Q 1656 2244 1656 1747 
Q 1656 1250 1848 986 
Q 2041 722 2400 722 
Q 2759 722 2948 984 
Q 3138 1247 3138 1747 
Q 3138 2247 2948 2509 
Q 2759 2772 2400 2772 
z
" transform="scale(0.015625)"/>
      <path id="DejaVuSans-Bold-6c" d="M 538 4863 
L 1656 4863 
L 1656 0 
L 538 0 
L 538 4863 
z
" transform="scale(0.015625)"/>
      <path id="DejaVuSans-Bold-65" d="M 4031 1759 
L 4031 1441 
L 1416 1441 
Q 1456 1047 1700 850 
Q 1944 653 2381 653 
Q 2734 653 3104 758 
Q 3475 863 3866 1075 
L 3866 213 
Q 3469 63 3072 -14 
Q 2675 -91 2278 -91 
Q 1328 -91 801 392 
Q 275 875 275 1747 
Q 275 2603 792 3093 
Q 1309 3584 2216 3584 
Q 3041 3584 3536 3087 
Q 4031 2591 4031 1759 
z
M 2881 2131 
Q 2881 2450 2695 2645 
Q 2509 2841 2209 2841 
Q 1884 2841 1681 2658 
Q 1478 2475 1428 2131 
L 2881 2131 
z
" transform="scale(0.015625)"/>
      <path id="DejaVuSans-Bold-20" transform="scale(0.015625)"/>
      <path id="DejaVuSans-Bold-48" d="M 588 4666 
L 1791 4666 
L 1791 2888 
L 3566 2888 
L 3566 4666 
L 4769 4666 
L 4769 0 
L 3566 0 
L 3566 1978 
L 1791 1978 
L 1791 0 
L 588 0 
L 588 4666 
z
" transform="scale(0.015625)"/>
      <path id="DejaVuSans-Bold-50" d="M 588 4666 
L 2584 4666 
Q 3475 4666 3951 4270 
Q 4428 3875 4428 3144 
Q 4428 2409 3951 2014 
Q 3475 1619 2584 1619 
L 1791 1619 
L 1791 0 
L 588 0 
L 588 4666 
z
M 1791 3794 
L 1791 2491 
L 2456 2491 
Q 2806 2491 2997 2661 
Q 3188 2831 3188 3144 
Q 3188 3456 2997 3625 
Q 2806 3794 2456 3794 
L 1791 3794 
z
" transform="scale(0.015625)"/>
      <path id="DejaVuSans-Bold-52" d="M 2297 2597 
Q 2675 2597 2839 2737 
Q 3003 2878 3003 3200 
Q 3003 3519 2839 3656 
Q 2675 3794 2297 3794 
L 1791 3794 
L 1791 2597 
L 2297 2597 
z
M 1791 1766 
L 1791 0 
L 588 0 
L 588 4666 
L 2425 4666 
Q 3347 4666 3776 4356 
Q 4206 4047 4206 3378 
Q 4206 2916 3982 2619 
Q 3759 2322 3309 2181 
Q 3556 2125 3751 1926 
Q 3947 1728 4147 1325 
L 4800 0 
L 3519 0 
L 2950 1159 
Q 2778 1509 2601 1637 
Q 2425 1766 2131 1766 
L 1791 1766 
z
" transform="scale(0.015625)"/>
      <path id="DejaVuSans-Bold-28" d="M 2413 -844 
L 1484 -844 
Q 1006 -72 778 623 
Q 550 1319 550 2003 
Q 550 2688 779 3389 
Q 1009 4091 1484 4856 
L 2413 4856 
Q 2013 4116 1813 3408 
Q 1613 2700 1613 2009 
Q 1613 1319 1811 609 
Q 2009 -100 2413 -844 
z
" transform="scale(0.015625)"/>
      <path id="DejaVuSans-Bold-56" d="M 31 4666 
L 1241 4666 
L 2478 1222 
L 3713 4666 
L 4922 4666 
L 3194 0 
L 1759 0 
L 31 4666 
z
" transform="scale(0.015625)"/>
      <path id="DejaVuSans-Bold-57" d="M 191 4666 
L 1344 4666 
L 2150 1275 
L 2950 4666 
L 4109 4666 
L 4909 1275 
L 5716 4666 
L 6859 4666 
L 5759 0 
L 4372 0 
L 3525 3547 
L 2688 0 
L 1300 0 
L 191 4666 
z
" transform="scale(0.015625)"/>
      <path id="DejaVuSans-Bold-41" d="M 3419 850 
L 1538 850 
L 1241 0 
L 31 0 
L 1759 4666 
L 3194 4666 
L 4922 0 
L 3713 0 
L 3419 850 
z
M 1838 1716 
L 3116 1716 
L 2478 3572 
L 1838 1716 
z
" transform="scale(0.015625)"/>
      <path id="DejaVuSans-Bold-69" d="M 538 3500 
L 1656 3500 
L 1656 0 
L 538 0 
L 538 3500 
z
M 538 4863 
L 1656 4863 
L 1656 3950 
L 538 3950 
L 538 4863 
z
" transform="scale(0.015625)"/>
      <path id="DejaVuSans-Bold-6e" d="M 4056 2131 
L 4056 0 
L 2931 0 
L 2931 347 
L 2931 1631 
Q 2931 2084 2911 2256 
Q 2891 2428 2841 2509 
Q 2775 2619 2662 2680 
Q 2550 2741 2406 2741 
Q 2056 2741 1856 2470 
Q 1656 2200 1656 1722 
L 1656 0 
L 538 0 
L 538 3500 
L 1656 3500 
L 1656 2988 
Q 1909 3294 2193 3439 
Q 2478 3584 2822 3584 
Q 3428 3584 3742 3212 
Q 4056 2841 4056 2131 
z
" transform="scale(0.015625)"/>
      <path id="DejaVuSans-Bold-64" d="M 2919 2988 
L 2919 4863 
L 4044 4863 
L 4044 0 
L 2919 0 
L 2919 506 
Q 2688 197 2409 53 
Q 2131 -91 1766 -91 
Q 1119 -91 703 423 
Q 288 938 288 1747 
Q 288 2556 703 3070 
Q 1119 3584 1766 3584 
Q 2128 3584 2408 3439 
Q 2688 3294 2919 2988 
z
M 2181 722 
Q 2541 722 2730 984 
Q 2919 1247 2919 1747 
Q 2919 2247 2730 2509 
Q 2541 2772 2181 2772 
Q 1825 2772 1636 2509 
Q 1447 2247 1447 1747 
Q 1447 1247 1636 984 
Q 1825 722 2181 722 
z
" transform="scale(0.015625)"/>
      <path id="DejaVuSans-Bold-77" d="M 225 3500 
L 1313 3500 
L 1900 1088 
L 2491 3500 
L 3425 3500 
L 4013 1113 
L 4603 3500 
L 5691 3500 
L 4769 0 
L 3547 0 
L 2956 2406 
L 2369 0 
L 1147 0 
L 225 3500 
z
" transform="scale(0.015625)"/>
      <path id="DejaVuSans-Bold-3a" d="M 716 3500 
L 1844 3500 
L 1844 2291 
L 716 2291 
L 716 3500 
z
M 716 1209 
L 1844 1209 
L 1844 0 
L 716 0 
L 716 1209 
z
" transform="scale(0.015625)"/>
      <path id="DejaVuSans-Bold-36" d="M 2316 2303 
Q 2000 2303 1842 2098 
Q 1684 1894 1684 1484 
Q 1684 1075 1842 870 
Q 2000 666 2316 666 
Q 2634 666 2792 870 
Q 2950 1075 2950 1484 
Q 2950 1894 2792 2098 
Q 2634 2303 2316 2303 
z
M 3803 4544 
L 3803 3681 
Q 3506 3822 3243 3889 
Q 2981 3956 2731 3956 
Q 2194 3956 1894 3657 
Q 1594 3359 1544 2772 
Q 1750 2925 1990 3001 
Q 2231 3078 2516 3078 
Q 3231 3078 3670 2659 
Q 4109 2241 4109 1563 
Q 4109 813 3618 361 
Q 3128 -91 2303 -91 
Q 1394 -91 895 523 
Q 397 1138 397 2266 
Q 397 3422 980 4083 
Q 1563 4744 2578 4744 
Q 2900 4744 3203 4694 
Q 3506 4644 3803 4544 
z
" transform="scale(0.015625)"/>
      <path id="DejaVuSans-Bold-33" d="M 2981 2516 
Q 3453 2394 3698 2092 
Q 3944 1791 3944 1325 
Q 3944 631 3412 270 
Q 2881 -91 1863 -91 
Q 1503 -91 1142 -33 
Q 781 25 428 141 
L 428 1069 
Q 766 900 1098 814 
Q 1431 728 1753 728 
Q 2231 728 2486 893 
Q 2741 1059 2741 1369 
Q 2741 1688 2480 1852 
Q 2219 2016 1709 2016 
L 1228 2016 
L 1228 2791 
L 1734 2791 
Q 2188 2791 2409 2933 
Q 2631 3075 2631 3366 
Q 2631 3634 2415 3781 
Q 2200 3928 1806 3928 
Q 1516 3928 1219 3862 
Q 922 3797 628 3669 
L 628 4550 
Q 984 4650 1334 4700 
Q 1684 4750 2022 4750 
Q 2931 4750 3382 4451 
Q 3834 4153 3834 3553 
Q 3834 3144 3618 2883 
Q 3403 2622 2981 2516 
z
" transform="scale(0.015625)"/>
      <path id="DejaVuSans-Bold-29" d="M 513 -844 
Q 913 -100 1113 609 
Q 1313 1319 1313 2009 
Q 1313 2700 1113 3408 
Q 913 4116 513 4856 
L 1441 4856 
Q 1916 4091 2145 3389 
Q 2375 2688 2375 2003 
Q 2375 1319 2147 623 
Q 1919 -72 1441 -844 
L 513 -844 
z
" transform="scale(0.015625)"/>
      <path id="DejaVuSans-Bold-30" d="M 2944 2338 
Q 2944 3213 2780 3570 
Q 2616 3928 2228 3928 
Q 1841 3928 1675 3570 
Q 1509 3213 1509 2338 
Q 1509 1453 1675 1090 
Q 1841 728 2228 728 
Q 2613 728 2778 1090 
Q 2944 1453 2944 2338 
z
M 4147 2328 
Q 4147 1169 3647 539 
Q 3147 -91 2228 -91 
Q 1306 -91 806 539 
Q 306 1169 306 2328 
Q 306 3491 806 4120 
Q 1306 4750 2228 4750 
Q 3147 4750 3647 4120 
Q 4147 3491 4147 2328 
z
" transform="scale(0.015625)"/>
      <path id="DejaVuSans-Bold-25" d="M 4959 1925 
Q 4738 1925 4616 1733 
Q 4494 1541 4494 1184 
Q 4494 825 4614 633 
Q 4734 441 4959 441 
Q 5184 441 5303 633 
Q 5422 825 5422 1184 
Q 5422 1541 5301 1733 
Q 5181 1925 4959 1925 
z
M 4959 2450 
Q 5541 2450 5875 2112 
Q 6209 1775 6209 1184 
Q 6209 594 5875 251 
Q 5541 -91 4959 -91 
Q 4378 -91 4042 251 
Q 3706 594 3706 1184 
Q 3706 1772 4042 2111 
Q 4378 2450 4959 2450 
z
M 2094 -91 
L 1403 -91 
L 4319 4750 
L 5013 4750 
L 2094 -91 
z
M 1453 4750 
Q 2034 4750 2367 4411 
Q 2700 4072 2700 3481 
Q 2700 2891 2367 2550 
Q 2034 2209 1453 2209 
Q 872 2209 539 2550 
Q 206 2891 206 3481 
Q 206 4072 539 4411 
Q 872 4750 1453 4750 
z
M 1453 4225 
Q 1228 4225 1106 4031 
Q 984 3838 984 3481 
Q 984 3122 1106 2926 
Q 1228 2731 1453 2731 
Q 1678 2731 1798 2926 
Q 1919 3122 1919 3481 
Q 1919 3838 1797 4031 
Q 1675 4225 1453 4225 
z
" transform="scale(0.015625)"/>
      <path id="DejaVuSans-Bold-43" d="M 4288 256 
Q 3956 84 3597 -3 
Q 3238 -91 2847 -91 
Q 1681 -91 1000 561 
Q 319 1213 319 2328 
Q 319 3447 1000 4098 
Q 1681 4750 2847 4750 
Q 3238 4750 3597 4662 
Q 3956 4575 4288 4403 
L 4288 3438 
Q 3953 3666 3628 3772 
Q 3303 3878 2944 3878 
Q 2300 3878 1931 3465 
Q 1563 3053 1563 2328 
Q 1563 1606 1931 1193 
Q 2300 781 2944 781 
Q 3303 781 3628 887 
Q 3953 994 4288 1222 
L 4288 256 
z
" transform="scale(0.015625)"/>
      <path id="DejaVuSans-Bold-1ed1" d="M 2203 2784 
Q 1831 2784 1636 2517 
Q 1441 2250 1441 1747 
Q 1441 1244 1636 976 
Q 1831 709 2203 709 
Q 2569 709 2762 976 
Q 2956 1244 2956 1747 
Q 2956 2250 2762 2517 
Q 2569 2784 2203 2784 
z
M 2203 3584 
Q 3106 3584 3614 3096 
Q 4122 2609 4122 1747 
Q 4122 884 3614 396 
Q 3106 -91 2203 -91 
Q 1297 -91 786 396 
Q 275 884 275 1747 
Q 275 2609 786 3096 
Q 1297 3584 2203 3584 
z
M 1703 4769 
L 2665 4769 
L 3362 3944 
L 2806 3944 
L 2184 4447 
L 1562 3944 
L 1006 3944 
L 1703 4769 
z
M 3463 5601 
L 4348 5601 
L 3457 4776 
L 2845 4776 
L 3463 5601 
z
" transform="scale(0.015625)"/>
     </defs>
     <use xlink:href="#DejaVuSans-Bold-4f"/>
     <use xlink:href="#DejaVuSans-Bold-75" transform="translate(85.009766 0)"/>
     <use xlink:href="#DejaVuSans-Bold-74" transform="translate(156.201172 0)"/>
     <use xlink:href="#DejaVuSans-Bold-2d" transform="translate(204.003906 0)"/>
     <use xlink:href="#DejaVuSans-Bold-6f" transform="translate(245.507812 0)"/>
     <use xlink:href="#DejaVuSans-Bold-66" transform="translate(314.208984 0)"/>
     <use xlink:href="#DejaVuSans-Bold-2d" transform="translate(355.964844 0)"/>
     <use xlink:href="#DejaVuSans-Bold-53" transform="translate(397.46875 0)"/>
     <use xlink:href="#DejaVuSans-Bold-61" transform="translate(469.490234 0)"/>
     <use xlink:href="#DejaVuSans-Bold-6d" transform="translate(536.970703 0)"/>
     <use xlink:href="#DejaVuSans-Bold-70" transform="translate(641.169922 0)"/>
     <use xlink:href="#DejaVuSans-Bold-6c" transform="translate(712.751953 0)"/>
     <use xlink:href="#DejaVuSans-Bold-65" transform="translate(747.029297 0)"/>
     <use xlink:href="#DejaVuSans-Bold-20" transform="translate(814.851562 0)"/>
     <use xlink:href="#DejaVuSans-Bold-48" transform="translate(849.666016 0)"/>
     <use xlink:href="#DejaVuSans-Bold-50" transform="translate(933.357422 0)"/>
     <use xlink:href="#DejaVuSans-Bold-52" transform="translate(1006.648438 0)"/>
     <use xlink:href="#DejaVuSans-Bold-20" transform="translate(1083.650391 0)"/>
     <use xlink:href="#DejaVuSans-Bold-28" transform="translate(1118.464844 0)"/>
     <use xlink:href="#DejaVuSans-Bold-56" transform="translate(1164.167969 0)"/>
     <use xlink:href="#DejaVuSans-Bold-57" transform="translate(1241.560547 0)"/>
     <use xlink:href="#DejaVuSans-Bold-41" transform="translate(1347.363281 0)"/>
     <use xlink:href="#DejaVuSans-Bold-50" transform="translate(1424.755859 0)"/>
     <use xlink:href="#DejaVuSans-Bold-20" transform="translate(1498.046875 0)"/>
     <use xlink:href="#DejaVuSans-Bold-57" transform="translate(1532.861328 0)"/>
     <use xlink:href="#DejaVuSans-Bold-69" transform="translate(1643.164062 0)"/>
     <use xlink:href="#DejaVuSans-Bold-6e" transform="translate(1677.441406 0)"/>
     <use xlink:href="#DejaVuSans-Bold-64" transform="translate(1748.632812 0)"/>
     <use xlink:href="#DejaVuSans-Bold-6f" transform="translate(1820.214844 0)"/>
     <use xlink:href="#DejaVuSans-Bold-77" transform="translate(1888.916016 0)"/>
     <use xlink:href="#DejaVuSans-Bold-3a" transform="translate(1981.298828 0)"/>
     <use xlink:href="#DejaVuSans-Bold-20" transform="translate(2021.289062 0)"/>
     <use xlink:href="#DejaVuSans-Bold-36" transform="translate(2056.103516 0)"/>
     <use xlink:href="#DejaVuSans-Bold-33" transform="translate(2125.683594 0)"/>
     <use xlink:href="#DejaVuSans-Bold-33" transform="translate(2195.263672 0)"/>
     <use xlink:href="#DejaVuSans-Bold-33" transform="translate(2264.84375 0)"/>
     <use xlink:href="#DejaVuSans-Bold-29" transform="translate(2334.423828 0)"/>
     <use xlink:href="#DejaVuSans-Bold-20" transform="translate(2380.126953 0)"/>
     <use xlink:href="#DejaVuSans-Bold-2d" transform="translate(2414.941406 0)"/>
     <use xlink:href="#DejaVuSans-Bold-20" transform="translate(2456.445312 0)"/>
     <use xlink:href="#DejaVuSans-Bold-33" transform="translate(2491.259766 0)"/>
     <use xlink:href="#DejaVuSans-Bold-30" transform="translate(2560.839844 0)"/>
     <use xlink:href="#DejaVuSans-Bold-25" transform="translate(2630.419922 0)"/>
     <use xlink:href="#DejaVuSans-Bold-20" transform="translate(2730.615234 0)"/>
     <use xlink:href="#DejaVuSans-Bold-43" transform="translate(2765.429688 0)"/>
     <use xlink:href="#DejaVuSans-Bold-75" transform="translate(2838.818359 0)"/>
     <use xlink:href="#DejaVuSans-Bold-1ed1" transform="translate(2910.009766 0)"/>
     <use xlink:href="#DejaVuSans-Bold-69" transform="translate(2978.710938 0)"/>
    </g>
   </g>
  </g>
 </g>
 <defs>
  <clipPath id="pc5c891ff6f">
   <rect x="65.27" y="29.4" width="787.93" height="313.210464"/>
  </clipPath>
 </defs>
</svg>
